<?xml version="1.0" encoding="UTF-8" standalone="no"?>
<!-- Created with Inkscape (http://www.inkscape.org/) -->

<svg
   xmlns:dc="http://purl.org/dc/elements/1.1/"
   xmlns:cc="http://creativecommons.org/ns#"
   xmlns:rdf="http://www.w3.org/1999/02/22-rdf-syntax-ns#"
   xmlns:svg="http://www.w3.org/2000/svg"
   xmlns="http://www.w3.org/2000/svg"
   xmlns:sodipodi="http://sodipodi.sourceforge.net/DTD/sodipodi-0.dtd"
   xmlns:inkscape="http://www.inkscape.org/namespaces/inkscape"
   width="210mm"
   height="297mm"
   id="svg2"
   version="1.1"
   inkscape:version="0.48.3.1 r9886"
   sodipodi:docname="bedingte-wahrscheinlichkeit.svg">
  <sodipodi:namedview
     id="base"
     pagecolor="#ffffff"
     bordercolor="#666666"
     borderopacity="1.0"
     inkscape:pageopacity="0.0"
     inkscape:pageshadow="2"
     inkscape:zoom="4"
     inkscape:cx="351.82497"
     inkscape:cy="500.60982"
     inkscape:document-units="px"
     inkscape:current-layer="layer1"
     showgrid="true"
     inkscape:window-width="1600"
     inkscape:window-height="846"
     inkscape:window-x="-4"
     inkscape:window-y="-8"
     inkscape:window-maximized="1">
    <inkscape:grid
       type="xygrid"
       id="grid2985"
       empspacing="5"
       visible="true"
       enabled="true"
       snapvisiblegridlinesonly="true"
       units="mm"
       spacingx="0.1mm"
       spacingy="0.1mm" />
  </sodipodi:namedview>
  <defs
     id="defs4">
    <marker
       inkscape:stockid="Arrow1Mend"
       orient="auto"
       refY="0.0"
       refX="0.0"
       id="Arrow1Mend"
       style="overflow:visible;">
      <path
         id="path3772"
         d="M 0.0,0.0 L 5.0,-5.0 L -12.5,0.0 L 5.0,5.0 L 0.0,0.0 z "
         style="fill-rule:evenodd;stroke:#000000;stroke-width:1.0pt;"
         transform="scale(0.4) rotate(180) translate(10,0)" />
    </marker>
    <marker
       inkscape:stockid="Arrow1Lend"
       orient="auto"
       refY="0.0"
       refX="0.0"
       id="Arrow1Lend"
       style="overflow:visible;">
      <path
         id="path3766"
         d="M 0.0,0.0 L 5.0,-5.0 L -12.5,0.0 L 5.0,5.0 L 0.0,0.0 z "
         style="fill-rule:evenodd;stroke:#000000;stroke-width:1.0pt;"
         transform="scale(0.8) rotate(180) translate(12.5,0)" />
    </marker>
    <marker
       inkscape:stockid="Arrow1Mend"
       orient="auto"
       refY="0"
       refX="0"
       id="Arrow1Mend-7"
       style="overflow:visible">
      <path
         id="path3772-4"
         d="M 0,0 5,-5 -12.5,0 5,5 0,0 z"
         style="fill-rule:evenodd;stroke:#000000;stroke-width:1pt"
         transform="matrix(-0.4,0,0,-0.4,-4,0)"
         inkscape:connector-curvature="0" />
    </marker>
    <marker
       inkscape:stockid="Arrow1Mend"
       orient="auto"
       refY="0"
       refX="0"
       id="Arrow1Mend-6"
       style="overflow:visible">
      <path
         id="path3772-0"
         d="M 0,0 5,-5 -12.5,0 5,5 0,0 z"
         style="fill-rule:evenodd;stroke:#000000;stroke-width:1pt"
         transform="matrix(-0.4,0,0,-0.4,-4,0)"
         inkscape:connector-curvature="0" />
    </marker>
  </defs>
  <metadata
     id="metadata7">
    <rdf:RDF>
      <cc:Work
         rdf:about="">
        <dc:format>image/svg+xml</dc:format>
        <dc:type
           rdf:resource="http://purl.org/dc/dcmitype/StillImage" />
        <dc:title></dc:title>
      </cc:Work>
    </rdf:RDF>
  </metadata>
  <g
     inkscape:label="Ebene 1"
     inkscape:groupmode="layer"
     id="layer1">
    <text
       xml:space="preserve"
       style="font-size:10px;font-style:normal;font-weight:normal;line-height:100%;letter-spacing:0px;word-spacing:0px;fill:#000000;fill-opacity:1;stroke:none;font-family:Sans"
       x="320.71429"
       y="313.79074"
       id="text4581"
       sodipodi:linespacing="100%"><tspan
         sodipodi:role="line"
         id="tspan4583"
         x="320.71429"
         y="313.79074" /></text>
    <g
       id="g3562"
       transform="matrix(0.25,0,0,0.25,132.56398,365.28216)">
      <g
         word-spacing="normal"
         letter-spacing="normal"
         font-size-adjust="none"
         font-stretch="normal"
         font-weight="normal"
         font-variant="normal"
         font-style="normal"
         stroke-miterlimit="10.433"
         xml:space="preserve"
         transform="matrix(1.0629921,0,0,-1.0629921,-186.02362,789.27165)"
         id="content"
         style="font-style:normal;font-variant:normal;font-weight:normal;font-stretch:normal;letter-spacing:normal;word-spacing:normal;text-anchor:start;fill:none;stroke:#000000;stroke-width:4;stroke-linecap:butt;stroke-linejoin:miter;stroke-miterlimit:10.43299961;stroke-opacity:1;stroke-dasharray:none;stroke-dashoffset:0"><path
           id="path3565"
           d="m 1197.7,362.19 0.2,1.28 3.4,13.57 c 0.4,1.73 0.5,1.89 2.7,1.89 h 4.8 c 4.1,0 6.7,-1.35 6.7,-4.79 0,-1.95 -1,-6.23 -2.9,-8.03 -2.5,-2.23 -5.5,-2.64 -7.7,-2.64 h -7 l -0.2,-1.28 h 8.5 c 7,0 14,5.17 14,10.75 0,3.85 -3.3,7.53 -9.9,7.53 h -16.1 c -0.9,0 -1.5,0 -1.5,-0.95 0,-0.59 0.5,-0.59 1.5,-0.59 0.6,0 1.5,-0.05 2.1,-0.1 0.8,-0.11 1.1,-0.25 1.1,-0.79 0,-0.21 -0.1,-0.36 -0.2,-0.96 l -6.7,-26.75 c -0.5,-1.95 -0.6,-2.34 -4.5,-2.34 -0.8,0 -1.4,0 -1.4,-0.95 0,-0.6 0.6,-0.6 0.7,-0.6 1.4,0 5,0.16 6.4,0.16 1,0 2.1,-0.06 3.1,-0.06 1.2,0 2.3,-0.1 3.3,-0.1 0.3,0 1,0 1,1 0,0.55 -0.4,0.55 -1.4,0.55 -1.9,0 -3.2,0 -3.2,0.89 0,0.3 0.1,0.55 0.1,0.84 z"
           inkscape:connector-curvature="0"
           style="fill:#000000;stroke-width:0" /><path
           id="path3567"
           d="m 1238.1,334.49 0,0.02 0,0.03 0,0.01 0,0.02 0,0.01 0,0.02 0,0.02 0,0.01 -0.1,0.02 0,0.02 0,0.03 0,0.02 0,0.02 0,0.03 0,0.03 -0.1,0.03 0,0.04 0,0.03 0,0.02 -0.1,0.02 0,0.02 0,0.02 0,0.02 0,0.03 -0.1,0.02 0,0.02 0,0.03 0,0.03 0,0.02 -0.1,0.03 0,0.03 0,0.03 -0.1,0.03 0,0.03 0,0.03 0,0.03 -0.1,0.04 0,0.03 0,0.04 -0.1,0.04 0,0.03 -0.1,0.04 c -6.2,6.28 -7.8,15.69 -7.8,23.31 0,8.68 1.9,17.35 8,23.57 0.7,0.61 0.7,0.7 0.7,0.86 0,0.34 -0.2,0.48 -0.5,0.48 -0.5,0 -5,-3.37 -7.9,-9.7 -2.6,-5.49 -3.2,-11.02 -3.2,-15.21 0,-3.89 0.6,-9.9 3.3,-15.54 3,-6.13 7.3,-9.36 7.8,-9.36 0.3,0 0.5,0.14 0.5,0.5 z"
           inkscape:connector-curvature="0"
           style="fill:#000000;stroke-width:0" /><path
           id="path3569"
           d="m 1249.8,352.18 -0.1,-0.31 -0.2,-0.29 -0.2,-0.28 -0.2,-0.26 -0.2,-0.25 -0.2,-0.23 -0.2,-0.22 -0.2,-0.21 -0.1,-0.2 -0.2,-0.18 -0.2,-0.17 -0.2,-0.16 -0.2,-0.15 -0.2,-0.14 -0.2,-0.13 -0.2,-0.12 -0.1,-0.11 -0.2,-0.1 -0.2,-0.09 -0.2,-0.09 -0.2,-0.07 -0.2,-0.07 -0.2,-0.06 -0.2,-0.06 -0.2,-0.05 -0.2,-0.04 -0.2,-0.04 -0.2,-0.03 -0.4,-0.05 -0.4,-0.03 c -0.6,-0.05 -1,-0.05 -1,-1 0,-0.3 0.2,-0.55 0.6,-0.55 1.4,0 2.9,0.16 4.3,0.16 1.6,0 3.4,-0.16 5,-0.16 0.3,0 0.9,0 0.9,0.95 0,0.55 -0.4,0.6 -0.8,0.6 -1.1,0.09 -2.3,0.5 -2.3,1.73 0,0.61 0.3,1.16 0.7,1.85 l 3.8,6.39 h 12.5 l -0.2,1.53 h -11.4 l 9.8,16.45 1.6,-16.45 0.2,-1.53 c 0.1,-1.05 0.8,-7.83 0.8,-8.33 0,-1.5 -2.6,-1.64 -3.6,-1.64 -0.7,0 -1.2,0 -1.2,-1 0,-0.55 0.6,-0.55 0.7,-0.55 2,0 4.2,0.16 6.2,0.16 1.3,0 4.4,-0.16 5.6,-0.16 0.3,0 0.9,0 0.9,1 0,0.55 -0.5,0.55 -1.1,0.55 -3.1,0 -3.1,0.34 -3.3,1.8 l -3,31.12 c -0.1,1 -0.1,1.2 -0.9,1.2 -0.8,0 -1,-0.34 -1.3,-0.84 z"
           inkscape:connector-curvature="0"
           style="fill:#000000;stroke-width:0" /><path
           id="path3571"
           d="m 1292.6,358.89 0,0.38 0,0.38 0,0.39 0,0.41 0,0.84 -0.1,0.88 -0.1,0.92 -0.1,0.95 -0.1,0.98 -0.2,1 -0.2,1.02 -0.2,1.04 -0.3,1.05 -0.3,1.06 -0.3,1.06 -0.4,1.07 -0.2,0.53 -0.3,0.53 -0.2,0.53 -0.3,0.53 c -2.9,6.13 -7.2,9.36 -7.7,9.36 -0.3,0 -0.5,-0.19 -0.5,-0.48 0,-0.16 0,-0.25 0.9,-1.16 4.9,-4.92 7.8,-12.84 7.8,-23.27 0,-8.51 -1.9,-17.28 -8.1,-23.56 -0.6,-0.59 -0.6,-0.7 -0.6,-0.84 0,-0.3 0.2,-0.5 0.5,-0.5 0.5,0 4.9,3.39 7.9,9.72 2.5,5.47 3.1,11 3.1,15.18 z"
           inkscape:connector-curvature="0"
           style="fill:#000000;stroke-width:0" /></g>    </g>
    <g
       id="g3681"
       transform="matrix(0.25,0,0,0.25,227.40946,365.77291)">
      <g
         word-spacing="normal"
         letter-spacing="normal"
         font-size-adjust="none"
         font-stretch="normal"
         font-weight="normal"
         font-variant="normal"
         font-style="normal"
         stroke-miterlimit="10.433"
         xml:space="preserve"
         transform="matrix(1.0629921,0,0,-1.0629921,-186.02362,789.27165)"
         id="g3683"
         style="font-style:normal;font-variant:normal;font-weight:normal;font-stretch:normal;letter-spacing:normal;word-spacing:normal;text-anchor:start;fill:none;stroke:#000000;stroke-width:4;stroke-linecap:butt;stroke-linejoin:miter;stroke-miterlimit:10.43299961;stroke-opacity:1;stroke-dasharray:none;stroke-dashoffset:0"><path
           id="path3685"
           d="m 1197.7,362.19 0.2,1.28 3.4,13.57 c 0.4,1.73 0.5,1.89 2.7,1.89 h 4.8 c 4.1,0 6.7,-1.35 6.7,-4.79 0,-1.95 -1,-6.23 -2.9,-8.03 -2.5,-2.23 -5.5,-2.64 -7.7,-2.64 h -7 l -0.2,-1.28 h 8.5 c 7,0 14,5.17 14,10.75 0,3.85 -3.3,7.53 -9.9,7.53 h -16.1 c -0.9,0 -1.5,0 -1.5,-0.95 0,-0.59 0.5,-0.59 1.5,-0.59 0.6,0 1.5,-0.05 2.1,-0.1 0.8,-0.11 1.1,-0.25 1.1,-0.79 0,-0.21 -0.1,-0.36 -0.2,-0.96 l -6.7,-26.75 c -0.5,-1.95 -0.6,-2.34 -4.5,-2.34 -0.8,0 -1.4,0 -1.4,-0.95 0,-0.6 0.6,-0.6 0.7,-0.6 1.4,0 5,0.16 6.4,0.16 1,0 2.1,-0.06 3.1,-0.06 1.2,0 2.3,-0.1 3.3,-0.1 0.3,0 1,0 1,1 0,0.55 -0.4,0.55 -1.4,0.55 -1.9,0 -3.2,0 -3.2,0.89 0,0.3 0.1,0.55 0.1,0.84 z"
           inkscape:connector-curvature="0"
           style="fill:#000000;stroke-width:0" /><path
           id="path3687"
           d="m 1238.1,334.49 0,0.02 0,0.03 0,0.01 0,0.02 0,0.01 0,0.02 0,0.02 0,0.01 -0.1,0.02 0,0.02 0,0.03 0,0.02 0,0.02 0,0.03 0,0.03 -0.1,0.03 0,0.04 0,0.03 0,0.02 -0.1,0.02 0,0.02 0,0.02 0,0.02 0,0.03 -0.1,0.02 0,0.02 0,0.03 0,0.03 0,0.02 -0.1,0.03 0,0.03 0,0.03 -0.1,0.03 0,0.03 0,0.03 0,0.03 -0.1,0.04 0,0.03 0,0.04 -0.1,0.04 0,0.03 -0.1,0.04 c -6.2,6.28 -7.8,15.69 -7.8,23.31 0,8.68 1.9,17.35 8,23.57 0.7,0.61 0.7,0.7 0.7,0.86 0,0.34 -0.2,0.48 -0.5,0.48 -0.5,0 -5,-3.37 -7.9,-9.7 -2.6,-5.49 -3.2,-11.02 -3.2,-15.21 0,-3.89 0.6,-9.9 3.3,-15.54 3,-6.13 7.3,-9.36 7.8,-9.36 0.3,0 0.5,0.14 0.5,0.5 z"
           inkscape:connector-curvature="0"
           style="fill:#000000;stroke-width:0" /><polygon
           id="polygon3689"
           points="1257.4,388.43 1257.4,386.88 1275.4,386.88 1275.4,388.43 "
           style="fill:#000000;stroke-width:0" /><path
           id="path3691"
           d="m 1249.8,352.18 -0.1,-0.31 -0.2,-0.29 -0.2,-0.28 -0.2,-0.26 -0.2,-0.25 -0.2,-0.23 -0.2,-0.22 -0.2,-0.21 -0.1,-0.2 -0.2,-0.18 -0.2,-0.17 -0.2,-0.16 -0.2,-0.15 -0.2,-0.14 -0.2,-0.13 -0.1,-0.12 -0.2,-0.11 -0.2,-0.1 -0.2,-0.09 -0.2,-0.09 -0.2,-0.07 -0.2,-0.07 -0.2,-0.06 -0.2,-0.06 -0.2,-0.05 -0.2,-0.04 -0.2,-0.04 -0.2,-0.03 -0.4,-0.05 -0.4,-0.03 c -0.6,-0.05 -1,-0.05 -1,-1 0,-0.3 0.2,-0.55 0.6,-0.55 1.4,0 2.9,0.16 4.3,0.16 1.6,0 3.4,-0.16 5,-0.16 0.3,0 0.9,0 0.9,0.95 0,0.55 -0.4,0.6 -0.8,0.6 -1.1,0.09 -2.3,0.5 -2.3,1.73 0,0.61 0.3,1.16 0.7,1.85 l 3.8,6.39 h 12.5 l -0.2,1.53 h -11.4 l 9.8,16.45 1.6,-16.45 0.2,-1.53 c 0.1,-1.05 0.8,-7.83 0.8,-8.33 0,-1.5 -2.6,-1.64 -3.6,-1.64 -0.7,0 -1.2,0 -1.2,-1 0,-0.55 0.6,-0.55 0.7,-0.55 2,0 4.2,0.16 6.2,0.16 1.3,0 4.4,-0.16 5.6,-0.16 0.3,0 0.9,0 0.9,1 0,0.55 -0.5,0.55 -1.1,0.55 -3.1,0 -3.1,0.34 -3.3,1.8 l -3,31.12 c -0.1,1 -0.1,1.2 -0.9,1.2 -0.8,0 -1,-0.34 -1.3,-0.84 z"
           inkscape:connector-curvature="0"
           style="fill:#000000;stroke-width:0" /><path
           id="path3693"
           d="m 1292.6,358.89 0,0.38 0,0.38 0,0.39 0,0.41 0,0.84 -0.1,0.88 -0.1,0.92 -0.1,0.95 -0.1,0.98 -0.2,1 -0.2,1.02 -0.2,1.04 -0.3,1.05 -0.3,1.06 -0.3,1.06 -0.4,1.07 -0.2,0.53 -0.3,0.53 -0.2,0.53 -0.3,0.53 c -2.9,6.13 -7.2,9.36 -7.7,9.36 -0.3,0 -0.5,-0.19 -0.5,-0.48 0,-0.16 0,-0.25 0.9,-1.16 4.9,-4.92 7.8,-12.84 7.8,-23.27 0,-8.51 -1.9,-17.28 -8.1,-23.56 -0.6,-0.59 -0.6,-0.7 -0.6,-0.84 0,-0.3 0.2,-0.5 0.5,-0.5 0.5,0 5,3.39 7.9,9.72 2.5,5.47 3.1,11 3.1,15.18 z"
           inkscape:connector-curvature="0"
           style="fill:#000000;stroke-width:0" /></g>    </g>
    <g
       id="g3863"
       transform="matrix(0.25,0,0,0.25,129.27757,422.93531)">
      <g
         word-spacing="normal"
         letter-spacing="normal"
         font-size-adjust="none"
         font-stretch="normal"
         font-weight="normal"
         font-variant="normal"
         font-style="normal"
         stroke-miterlimit="10.433"
         xml:space="preserve"
         transform="matrix(1.0629921,0,0,-1.0629921,-186.02362,789.27165)"
         id="g3865"
         style="font-style:normal;font-variant:normal;font-weight:normal;font-stretch:normal;letter-spacing:normal;word-spacing:normal;text-anchor:start;fill:none;stroke:#000000;stroke-width:4;stroke-linecap:butt;stroke-linejoin:miter;stroke-miterlimit:10.43299961;stroke-opacity:1;stroke-dasharray:none;stroke-dashoffset:0"><path
           id="path3867"
           d="m 1095.2,362.19 0.2,1.28 3.4,13.57 c 0.4,1.73 0.6,1.89 2.7,1.89 h 4.8 c 4.1,0 6.8,-1.35 6.8,-4.79 0,-1.95 -1,-6.23 -3,-8.03 -2.5,-2.23 -5.5,-2.64 -7.7,-2.64 h -7 l -0.2,-1.28 h 8.5 c 7.1,0 14,5.17 14,10.75 0,3.85 -3.3,7.53 -9.8,7.53 h -16.2 c -0.9,0 -1.5,0 -1.5,-0.95 0,-0.59 0.5,-0.59 1.5,-0.59 0.6,0 1.5,-0.05 2.1,-0.1 0.8,-0.11 1.1,-0.25 1.1,-0.79 0,-0.21 0,-0.36 -0.2,-0.96 l -6.7,-26.75 c -0.5,-1.95 -0.6,-2.34 -4.5,-2.34 -0.8,0 -1.4,0 -1.4,-0.95 0,-0.6 0.6,-0.6 0.8,-0.6 1.4,0 4.9,0.16 6.3,0.16 1,0 2.1,-0.06 3.2,-0.06 1.1,0 2.2,-0.1 3.2,-0.1 0.4,0 1,0 1,1 0,0.55 -0.4,0.55 -1.4,0.55 -1.8,0 -3.2,0 -3.2,0.89 0,0.3 0.1,0.55 0.1,0.84 z"
           inkscape:connector-curvature="0"
           style="fill:#000000;stroke-width:0" /><path
           id="path3869"
           d="m 1135.6,334.49 0,0.02 0,0.03 0,0.01 0,0.02 0,0.01 0,0.02 0,0.02 0,0.01 0,0.02 0,0.02 -0.1,0.03 0,0.02 0,0.02 0,0.03 0,0.03 0,0.03 -0.1,0.04 0,0.03 0,0.02 0,0.02 -0.1,0.02 0,0.02 0,0.02 0,0.03 0,0.02 -0.1,0.02 0,0.03 0,0.03 0,0.02 -0.1,0.03 0,0.03 0,0.03 0,0.03 -0.1,0.03 0,0.03 0,0.03 -0.1,0.04 0,0.03 0,0.04 -0.1,0.04 0,0.03 0,0.04 c -6.3,6.28 -7.9,15.69 -7.9,23.31 0,8.68 1.9,17.35 8.1,23.57 0.6,0.61 0.6,0.7 0.6,0.86 0,0.34 -0.2,0.48 -0.5,0.48 -0.5,0 -5,-3.37 -7.9,-9.7 -2.5,-5.49 -3.1,-11.02 -3.1,-15.21 0,-3.89 0.5,-9.9 3.2,-15.54 3,-6.13 7.3,-9.36 7.8,-9.36 0.3,0 0.5,0.14 0.5,0.5 z"
           inkscape:connector-curvature="0"
           style="fill:#000000;stroke-width:0" /><path
           id="path3871"
           d="m 1147.4,352.18 -0.2,-0.31 -0.2,-0.29 -0.2,-0.28 -0.2,-0.26 -0.2,-0.25 -0.2,-0.23 -0.1,-0.22 -0.2,-0.21 -0.2,-0.2 -0.2,-0.18 -0.2,-0.17 -0.2,-0.16 -0.2,-0.15 -0.2,-0.14 -0.1,-0.13 -0.2,-0.12 -0.2,-0.11 -0.2,-0.1 -0.2,-0.09 -0.2,-0.09 -0.2,-0.07 -0.2,-0.07 -0.2,-0.06 -0.2,-0.06 -0.2,-0.05 -0.2,-0.04 -0.2,-0.04 -0.2,-0.03 -0.4,-0.05 -0.4,-0.03 c -0.6,-0.05 -1,-0.05 -1,-1 0,-0.3 0.2,-0.55 0.6,-0.55 1.4,0 2.9,0.16 4.3,0.16 1.7,0 3.4,-0.16 5,-0.16 0.3,0 0.9,0 0.9,0.95 0,0.55 -0.4,0.6 -0.8,0.6 -1.1,0.09 -2.3,0.5 -2.3,1.73 0,0.61 0.3,1.16 0.7,1.85 l 3.8,6.39 h 12.5 l -0.1,1.53 h -11.5 l 9.9,16.45 1.6,-16.45 0.1,-1.53 c 0.1,-1.05 0.8,-7.83 0.8,-8.33 0,-1.5 -2.6,-1.64 -3.6,-1.64 -0.7,0 -1.2,0 -1.2,-1 0,-0.55 0.6,-0.55 0.7,-0.55 2,0 4.2,0.16 6.2,0.16 1.3,0 4.4,-0.16 5.7,-0.16 0.3,0 0.9,0 0.9,1 0,0.55 -0.5,0.55 -1.2,0.55 -3.1,0 -3.1,0.34 -3.2,1.8 l -3.1,31.12 c -0.1,1 -0.1,1.2 -0.9,1.2 -0.8,0 -1,-0.34 -1.3,-0.84 z"
           inkscape:connector-curvature="0"
           style="fill:#000000;stroke-width:0" /><path
           id="path3873"
           d="m 1190.1,358.89 0,0.38 0,0.38 0,0.39 0,0.41 0,0.84 -0.1,0.88 -0.1,0.92 -0.1,0.95 -0.1,0.98 -0.2,1 -0.2,1.02 -0.2,1.04 -0.3,1.05 -0.3,1.06 -0.3,1.06 -0.4,1.07 -0.2,0.53 -0.3,0.53 -0.2,0.53 -0.2,0.53 c -3,6.13 -7.3,9.36 -7.8,9.36 -0.3,0 -0.5,-0.19 -0.5,-0.48 0,-0.16 0,-0.25 0.9,-1.16 4.9,-4.92 7.8,-12.84 7.8,-23.27 0,-8.51 -1.9,-17.28 -8.1,-23.56 -0.6,-0.59 -0.6,-0.7 -0.6,-0.84 0,-0.3 0.2,-0.5 0.5,-0.5 0.5,0 5,3.39 7.9,9.72 2.6,5.47 3.1,11 3.1,15.18 z"
           inkscape:connector-curvature="0"
           style="fill:#000000;stroke-width:0" /><path
           id="path3875"
           d="m 1215.7,358.89 0,0.14 0,0.13 -0.1,0.14 0,0.13 0,0.12 0,0.13 -0.1,0.12 0,0.12 -0.1,0.12 -0.1,0.11 0,0.11 -0.1,0.11 -0.1,0.1 0,0.1 -0.1,0.1 -0.1,0.09 -0.1,0.09 -0.1,0.08 -0.1,0.08 -0.1,0.07 -0.1,0.07 -0.1,0.07 -0.1,0.05 -0.1,0.06 -0.2,0.04 -0.1,0.05 -0.1,0.03 -0.1,0.03 -0.2,0.02 -0.1,0.02 -0.1,0.01 -0.2,0.01 c -1.4,0 -2.6,-1.19 -2.6,-2.65 0,-1.43 1.2,-2.64 2.6,-2.64 1.5,0 2.7,1.21 2.7,2.64 z"
           inkscape:connector-curvature="0"
           style="fill:#000000;stroke-width:0" /><path
           id="path3877"
           d="m 1246.2,362.19 0.2,1.28 3.4,13.57 c 0.4,1.73 0.5,1.89 2.6,1.89 h 4.8 c 4.2,0 6.8,-1.35 6.8,-4.79 0,-1.95 -1,-6.23 -2.9,-8.03 -2.5,-2.23 -5.5,-2.64 -7.7,-2.64 h -7 l -0.2,-1.28 h 8.4 c 7.1,0 14,5.17 14,10.75 0,3.85 -3.3,7.53 -9.8,7.53 h -16.1 c -1,0 -1.5,0 -1.5,-0.95 0,-0.59 0.4,-0.59 1.4,-0.59 0.7,0 1.6,-0.05 2.2,-0.1 0.8,-0.11 1.1,-0.25 1.1,-0.79 0,-0.21 -0.1,-0.36 -0.2,-0.96 l -6.7,-26.75 c -0.5,-1.95 -0.6,-2.34 -4.5,-2.34 -0.9,0 -1.4,0 -1.4,-0.95 0,-0.6 0.6,-0.6 0.7,-0.6 1.4,0 4.9,0.16 6.3,0.16 1.1,0 2.2,-0.06 3.2,-0.06 1.1,0 2.2,-0.1 3.3,-0.1 0.3,0 1,0 1,1 0,0.55 -0.5,0.55 -1.4,0.55 -1.9,0 -3.3,0 -3.3,0.89 0,0.3 0.1,0.55 0.2,0.84 z"
           inkscape:connector-curvature="0"
           style="fill:#000000;stroke-width:0" /><path
           id="path3879"
           d="m 1286.6,334.49 -0.1,0.02 0,0.03 0,0.01 0,0.02 0,0.01 0,0.02 0,0.02 0,0.01 0,0.02 0,0.02 0,0.03 0,0.02 0,0.02 -0.1,0.03 0,0.03 0,0.03 0,0.04 -0.1,0.03 0,0.02 0,0.02 0,0.02 0,0.02 0,0.02 -0.1,0.03 0,0.02 0,0.02 0,0.03 -0.1,0.03 0,0.02 0,0.03 0,0.03 -0.1,0.03 0,0.03 0,0.03 -0.1,0.03 0,0.03 0,0.04 -0.1,0.03 0,0.04 0,0.04 -0.1,0.03 0,0.04 c -6.2,6.28 -7.8,15.69 -7.8,23.31 0,8.68 1.9,17.35 8,23.57 0.7,0.61 0.7,0.7 0.7,0.86 0,0.34 -0.2,0.48 -0.5,0.48 -0.5,0 -5,-3.37 -8,-9.7 -2.5,-5.49 -3.1,-11.02 -3.1,-15.21 0,-3.89 0.6,-9.9 3.3,-15.54 3,-6.13 7.3,-9.36 7.8,-9.36 0.3,0 0.5,0.14 0.5,0.5 z"
           inkscape:connector-curvature="0"
           style="fill:#000000;stroke-width:0" /><path
           id="path3881"
           d="m 1297.3,350.33 0,-0.18 0,-0.17 -0.1,-0.16 0,-0.15 -0.1,-0.14 0,-0.14 -0.1,-0.13 0,-0.12 -0.1,-0.11 0,-0.11 -0.1,-0.1 -0.1,-0.09 0,-0.08 -0.1,-0.08 -0.1,-0.08 -0.1,-0.06 -0.1,-0.06 -0.2,-0.06 -0.1,-0.05 -0.2,-0.05 -0.1,-0.04 -0.1,-0.01 -0.1,-0.02 -0.1,-0.02 -0.1,-0.01 -0.1,-0.02 -0.1,-0.01 -0.1,-0.01 -0.1,-0.01 -0.1,-0.01 -0.1,-0.01 -0.2,-0.01 -0.1,-0.01 -0.1,-0.01 -0.2,0 -0.1,-0.01 -0.2,0 -0.1,0 -0.2,-0.01 -0.2,0 -0.1,0 -0.2,0 -0.2,0 c -0.8,0 -1.3,0 -1.3,-1 0,-0.55 0.4,-0.55 1.3,-0.55 h 17.8 c 7.9,0 13.7,5.88 13.7,10.77 0,3.58 -2.8,6.47 -7.7,7.01 5.2,0.96 10.5,4.64 10.5,9.38 0,3.69 -3.3,6.87 -9.3,6.87 l -0.7,-1.54 c 4.4,0 5.4,-2.94 5.4,-5.13 0,-4.39 -4.3,-9.12 -10.4,-9.12 h -7.2 l -0.3,-1.1 h 9.4 c 4.8,0 5.7,-3.69 5.7,-5.83 0,-4.93 -4.4,-9.76 -10.3,-9.76 h -6.8 c -0.7,0 -0.8,0 -1.1,0.05 -0.5,0.04 -0.6,0.09 -0.6,0.5 0,0.14 0,0.25 0.2,1.14 l 3.5,13.9 0.3,1.1 3.1,12.36 c 0.4,1.73 0.5,1.89 2.7,1.89 h 6.4 l 0.7,1.54 H 1301 c -0.9,0 -1.4,0 -1.4,-1 0,-0.54 0.4,-0.54 1.4,-0.54 0.1,0 1,0 1.9,-0.1 0.9,-0.11 1.3,-0.15 1.3,-0.79 0,-0.21 0,-0.36 -0.2,-0.96 z"
           inkscape:connector-curvature="0"
           style="fill:#000000;stroke-width:0" /><path
           id="path3883"
           d="m 1337.6,382.02 0,0.17 0,0.16 0,0.16 0,0.08 0,0.08 0,0.08 0,0.08 0,0.07 0,0.07 0,0.08 -0.1,0.06 0,0.07 0,0.06 0,0.07 -0.1,0.05 0,0.06 0,0.05 -0.1,0.05 0,0.05 -0.1,0.04 0,0.04 0,0.02 -0.1,0.01 0,0.02 0,0.01 0,0.02 -0.1,0.01 0,0.01 0,0.01 -0.1,0.01 0,0.01 -0.1,0.01 0,0 0,0.01 -0.1,0 0,0 -0.1,0 c -1,0 -1,-0.89 -1,-1.78 v -46.23 c 0,-0.91 0,-1.8 1,-1.8 1,0 1,0.89 1,1.8 z"
           inkscape:connector-curvature="0"
           style="fill:#000000;stroke-width:0" /><path
           id="path3885"
           d="m 1352.4,352.18 -0.2,-0.31 -0.2,-0.29 -0.1,-0.28 -0.2,-0.26 -0.2,-0.25 -0.2,-0.23 -0.2,-0.22 -0.2,-0.21 -0.2,-0.2 -0.1,-0.18 -0.2,-0.17 -0.2,-0.16 -0.2,-0.15 -0.2,-0.14 -0.2,-0.13 -0.2,-0.12 -0.2,-0.11 -0.2,-0.1 -0.1,-0.09 -0.2,-0.09 -0.2,-0.07 -0.2,-0.07 -0.2,-0.06 -0.2,-0.06 -0.2,-0.05 -0.2,-0.04 -0.2,-0.04 -0.2,-0.03 -0.4,-0.05 -0.4,-0.03 c -0.6,-0.05 -1.1,-0.05 -1.1,-1 0,-0.3 0.3,-0.55 0.7,-0.55 1.3,0 2.9,0.16 4.3,0.16 1.6,0 3.4,-0.16 5,-0.16 0.2,0 0.9,0 0.9,0.95 0,0.55 -0.4,0.6 -0.8,0.6 -1.1,0.09 -2.3,0.5 -2.3,1.73 0,0.61 0.3,1.16 0.7,1.85 l 3.7,6.39 h 12.5 l -0.1,1.53 h -11.4 l 9.8,16.45 1.6,-16.45 0.1,-1.53 c 0.2,-1.05 0.9,-7.83 0.9,-8.33 0,-1.5 -2.6,-1.64 -3.6,-1.64 -0.7,0 -1.2,0 -1.2,-1 0,-0.55 0.6,-0.55 0.7,-0.55 2,0 4.2,0.16 6.2,0.16 1.2,0 4.4,-0.16 5.6,-0.16 0.3,0 0.9,0 0.9,1 0,0.55 -0.5,0.55 -1.1,0.55 -3.1,0 -3.1,0.34 -3.3,1.8 l -3,31.12 c -0.1,1 -0.1,1.2 -1,1.2 -0.8,0 -0.9,-0.34 -1.2,-0.84 z"
           inkscape:connector-curvature="0"
           style="fill:#000000;stroke-width:0" /><path
           id="path3887"
           d="m 1395.2,358.89 0,0.38 0,0.38 0,0.39 0,0.41 -0.1,0.84 0,0.88 -0.1,0.92 -0.1,0.95 -0.1,0.98 -0.2,1 -0.2,1.02 -0.2,1.04 -0.3,1.05 -0.3,1.06 -0.4,1.06 -0.4,1.07 -0.2,0.53 -0.2,0.53 -0.2,0.53 -0.3,0.53 c -3,6.13 -7.2,9.36 -7.7,9.36 -0.3,0 -0.5,-0.19 -0.5,-0.48 0,-0.16 0,-0.25 0.9,-1.16 4.9,-4.92 7.7,-12.84 7.7,-23.27 0,-8.51 -1.8,-17.28 -8,-23.56 -0.6,-0.59 -0.6,-0.7 -0.6,-0.84 0,-0.3 0.2,-0.5 0.5,-0.5 0.5,0 4.9,3.39 7.9,9.72 2.5,5.47 3.1,11 3.1,15.18 z"
           inkscape:connector-curvature="0"
           style="fill:#000000;stroke-width:0" /></g>    </g>
    <g
       id="g4629"
       transform="matrix(0.25,0,0,0.25,129.30414,479.62822)">
      <g
         word-spacing="normal"
         letter-spacing="normal"
         font-size-adjust="none"
         font-stretch="normal"
         font-weight="normal"
         font-variant="normal"
         font-style="normal"
         stroke-miterlimit="10.433"
         xml:space="preserve"
         transform="matrix(1.0629921,0,0,-1.0629921,-186.02362,789.27165)"
         id="g4631"
         style="font-style:normal;font-variant:normal;font-weight:normal;font-stretch:normal;letter-spacing:normal;word-spacing:normal;text-anchor:start;fill:none;stroke:#000000;stroke-width:4;stroke-linecap:butt;stroke-linejoin:miter;stroke-miterlimit:10.43299961;stroke-opacity:1;stroke-dasharray:none;stroke-dashoffset:0"><path
           id="path4633"
           d="m 1095.2,362.19 0.2,1.28 3.4,13.57 c 0.4,1.73 0.6,1.89 2.7,1.89 h 4.8 c 4.1,0 6.8,-1.35 6.8,-4.79 0,-1.95 -1,-6.23 -3,-8.03 -2.5,-2.23 -5.5,-2.64 -7.7,-2.64 h -7 l -0.2,-1.28 h 8.5 c 7.1,0 14,5.17 14,10.75 0,3.85 -3.3,7.53 -9.8,7.53 h -16.2 c -0.9,0 -1.5,0 -1.5,-0.95 0,-0.59 0.5,-0.59 1.5,-0.59 0.6,0 1.5,-0.05 2.1,-0.1 0.8,-0.11 1.1,-0.25 1.1,-0.79 0,-0.21 0,-0.36 -0.2,-0.96 l -6.7,-26.75 c -0.5,-1.95 -0.6,-2.34 -4.5,-2.34 -0.8,0 -1.4,0 -1.4,-0.95 0,-0.6 0.6,-0.6 0.8,-0.6 1.4,0 4.9,0.16 6.3,0.16 1,0 2.1,-0.06 3.2,-0.06 1.1,0 2.2,-0.1 3.2,-0.1 0.4,0 1,0 1,1 0,0.55 -0.4,0.55 -1.4,0.55 -1.8,0 -3.2,0 -3.2,0.89 0,0.3 0.1,0.55 0.1,0.84 z"
           inkscape:connector-curvature="0"
           style="fill:#000000;stroke-width:0" /><path
           id="path4635"
           d="m 1135.6,334.49 0,0.02 0,0.03 0,0.01 0,0.02 0,0.01 0,0.02 0,0.02 0,0.01 0,0.02 0,0.02 -0.1,0.03 0,0.02 0,0.02 0,0.03 0,0.03 0,0.03 -0.1,0.04 0,0.03 0,0.02 0,0.02 -0.1,0.02 0,0.02 0,0.02 0,0.03 0,0.02 -0.1,0.02 0,0.03 0,0.03 0,0.02 -0.1,0.03 0,0.03 0,0.03 0,0.03 -0.1,0.03 0,0.03 0,0.03 -0.1,0.04 0,0.03 0,0.04 -0.1,0.04 0,0.03 0,0.04 c -6.3,6.28 -7.9,15.69 -7.9,23.31 0,8.68 1.9,17.35 8.1,23.57 0.6,0.61 0.6,0.7 0.6,0.86 0,0.34 -0.2,0.48 -0.5,0.48 -0.5,0 -5,-3.37 -7.9,-9.7 -2.5,-5.49 -3.1,-11.02 -3.1,-15.21 0,-3.89 0.5,-9.9 3.2,-15.54 3,-6.13 7.3,-9.36 7.8,-9.36 0.3,0 0.5,0.14 0.5,0.5 z"
           inkscape:connector-curvature="0"
           style="fill:#000000;stroke-width:0" /><path
           id="path4637"
           d="m 1147.4,352.18 -0.2,-0.31 -0.2,-0.29 -0.2,-0.28 -0.2,-0.26 -0.2,-0.25 -0.2,-0.23 -0.1,-0.22 -0.2,-0.21 -0.2,-0.2 -0.2,-0.18 -0.2,-0.17 -0.2,-0.16 -0.2,-0.15 -0.2,-0.14 -0.1,-0.13 -0.2,-0.12 -0.2,-0.11 -0.2,-0.1 -0.2,-0.09 -0.2,-0.09 -0.2,-0.07 -0.2,-0.07 -0.2,-0.06 -0.2,-0.06 -0.2,-0.05 -0.2,-0.04 -0.2,-0.04 -0.2,-0.03 -0.4,-0.05 -0.4,-0.03 c -0.6,-0.05 -1,-0.05 -1,-1 0,-0.3 0.2,-0.55 0.6,-0.55 1.4,0 2.9,0.16 4.3,0.16 1.7,0 3.4,-0.16 5,-0.16 0.3,0 0.9,0 0.9,0.95 0,0.55 -0.4,0.6 -0.8,0.6 -1.1,0.09 -2.3,0.5 -2.3,1.73 0,0.61 0.3,1.16 0.7,1.85 l 3.8,6.39 h 12.5 l -0.1,1.53 h -11.5 l 9.9,16.45 1.6,-16.45 0.1,-1.53 c 0.1,-1.05 0.8,-7.83 0.8,-8.33 0,-1.5 -2.6,-1.64 -3.6,-1.64 -0.7,0 -1.2,0 -1.2,-1 0,-0.55 0.6,-0.55 0.7,-0.55 2,0 4.2,0.16 6.2,0.16 1.3,0 4.4,-0.16 5.7,-0.16 0.3,0 0.9,0 0.9,1 0,0.55 -0.5,0.55 -1.2,0.55 -3.1,0 -3.1,0.34 -3.2,1.8 l -3.1,31.12 c -0.1,1 -0.1,1.2 -0.9,1.2 -0.8,0 -1,-0.34 -1.3,-0.84 z"
           inkscape:connector-curvature="0"
           style="fill:#000000;stroke-width:0" /><path
           id="path4639"
           d="m 1190.1,358.89 0,0.38 0,0.38 0,0.39 0,0.41 0,0.84 -0.1,0.88 -0.1,0.92 -0.1,0.95 -0.1,0.98 -0.2,1 -0.2,1.02 -0.2,1.04 -0.3,1.05 -0.3,1.06 -0.3,1.06 -0.4,1.07 -0.2,0.53 -0.3,0.53 -0.2,0.53 -0.2,0.53 c -3,6.13 -7.3,9.36 -7.8,9.36 -0.3,0 -0.5,-0.19 -0.5,-0.48 0,-0.16 0,-0.25 0.9,-1.16 4.9,-4.92 7.8,-12.84 7.8,-23.27 0,-8.51 -1.9,-17.28 -8.1,-23.56 -0.6,-0.59 -0.6,-0.7 -0.6,-0.84 0,-0.3 0.2,-0.5 0.5,-0.5 0.5,0 5,3.39 7.9,9.72 2.6,5.47 3.1,11 3.1,15.18 z"
           inkscape:connector-curvature="0"
           style="fill:#000000;stroke-width:0" /><path
           id="path4641"
           d="m 1215.7,358.89 0,0.14 0,0.13 -0.1,0.14 0,0.13 0,0.12 0,0.13 -0.1,0.12 0,0.12 -0.1,0.12 -0.1,0.11 0,0.11 -0.1,0.11 -0.1,0.1 0,0.1 -0.1,0.1 -0.1,0.09 -0.1,0.09 -0.1,0.08 -0.1,0.08 -0.1,0.07 -0.1,0.07 -0.1,0.07 -0.1,0.05 -0.1,0.06 -0.2,0.04 -0.1,0.05 -0.1,0.03 -0.1,0.03 -0.2,0.02 -0.1,0.02 -0.1,0.01 -0.2,0.01 c -1.4,0 -2.6,-1.19 -2.6,-2.65 0,-1.43 1.2,-2.64 2.6,-2.64 1.5,0 2.7,1.21 2.7,2.64 z"
           inkscape:connector-curvature="0"
           style="fill:#000000;stroke-width:0" /><path
           id="path4643"
           d="m 1246.2,362.19 0.2,1.28 3.4,13.57 c 0.4,1.73 0.5,1.89 2.6,1.89 h 4.8 c 4.2,0 6.8,-1.35 6.8,-4.79 0,-1.95 -1,-6.23 -2.9,-8.03 -2.5,-2.23 -5.5,-2.64 -7.7,-2.64 h -7 l -0.2,-1.28 h 8.4 c 7.1,0 14,5.17 14,10.75 0,3.85 -3.3,7.53 -9.8,7.53 h -16.1 c -1,0 -1.5,0 -1.5,-0.95 0,-0.59 0.4,-0.59 1.4,-0.59 0.7,0 1.6,-0.05 2.2,-0.1 0.8,-0.11 1.1,-0.25 1.1,-0.79 0,-0.21 -0.1,-0.36 -0.2,-0.96 l -6.7,-26.75 c -0.5,-1.95 -0.6,-2.34 -4.5,-2.34 -0.9,0 -1.4,0 -1.4,-0.95 0,-0.6 0.6,-0.6 0.7,-0.6 1.4,0 4.9,0.16 6.3,0.16 1.1,0 2.2,-0.06 3.2,-0.06 1.1,0 2.2,-0.1 3.3,-0.1 0.3,0 1,0 1,1 0,0.55 -0.5,0.55 -1.4,0.55 -1.9,0 -3.3,0 -3.3,0.89 0,0.3 0.1,0.55 0.2,0.84 z"
           inkscape:connector-curvature="0"
           style="fill:#000000;stroke-width:0" /><path
           id="path4645"
           d="m 1286.6,334.49 -0.1,0.02 0,0.03 0,0.01 0,0.02 0,0.01 0,0.02 0,0.02 0,0.01 0,0.02 0,0.02 0,0.03 0,0.02 0,0.02 -0.1,0.03 0,0.03 0,0.03 0,0.04 -0.1,0.03 0,0.02 0,0.02 0,0.02 0,0.02 0,0.02 -0.1,0.03 0,0.02 0,0.02 0,0.03 -0.1,0.03 0,0.02 0,0.03 0,0.03 -0.1,0.03 0,0.03 0,0.03 -0.1,0.03 0,0.03 0,0.04 -0.1,0.03 0,0.04 0,0.04 -0.1,0.03 0,0.04 c -6.2,6.28 -7.8,15.69 -7.8,23.31 0,8.68 1.9,17.35 8,23.57 0.7,0.61 0.7,0.7 0.7,0.86 0,0.34 -0.2,0.48 -0.5,0.48 -0.5,0 -5,-3.37 -8,-9.7 -2.5,-5.49 -3.1,-11.02 -3.1,-15.21 0,-3.89 0.6,-9.9 3.3,-15.54 3,-6.13 7.3,-9.36 7.8,-9.36 0.3,0 0.5,0.14 0.5,0.5 z"
           inkscape:connector-curvature="0"
           style="fill:#000000;stroke-width:0" /><polygon
           id="polygon4647"
           points="1304.6,386.88 1322.6,386.88 1322.6,388.43 1304.6,388.43 "
           style="fill:#000000;stroke-width:0" /><path
           id="path4649"
           d="m 1297.4,350.33 -0.1,-0.18 0,-0.17 -0.1,-0.16 0,-0.15 -0.1,-0.14 0,-0.14 0,-0.13 -0.1,-0.12 -0.1,-0.11 0,-0.11 -0.1,-0.1 0,-0.09 -0.1,-0.08 -0.1,-0.08 -0.1,-0.08 -0.1,-0.06 -0.1,-0.06 -0.1,-0.06 -0.2,-0.05 -0.1,-0.05 -0.2,-0.04 -0.1,-0.01 -0.1,-0.02 -0.1,-0.02 -0.1,-0.01 -0.1,-0.02 -0.1,-0.01 -0.1,-0.01 -0.1,-0.01 -0.1,-0.01 -0.1,-0.01 -0.2,-0.01 -0.1,-0.01 -0.1,-0.01 -0.2,0 -0.1,-0.01 -0.2,0 -0.1,0 -0.2,-0.01 -0.1,0 -0.2,0 -0.2,0 -0.2,0 c -0.8,0 -1.3,0 -1.3,-1 0,-0.55 0.4,-0.55 1.3,-0.55 h 17.8 c 7.9,0 13.8,5.88 13.8,10.77 0,3.58 -2.9,6.47 -7.7,7.01 5.1,0.96 10.4,4.64 10.4,9.38 0,3.69 -3.3,6.87 -9.3,6.87 l -0.7,-1.54 c 4.4,0 5.4,-2.94 5.4,-5.13 0,-4.39 -4.3,-9.12 -10.3,-9.12 h -7.3 l -0.3,-1.1 h 9.4 c 4.8,0 5.7,-3.69 5.7,-5.83 0,-4.93 -4.4,-9.76 -10.3,-9.76 h -6.7 c -0.7,0 -0.9,0 -1.1,0.05 -0.5,0.04 -0.7,0.09 -0.7,0.5 0,0.14 0,0.25 0.3,1.14 l 3.4,13.9 0.3,1.1 3.1,12.36 c 0.4,1.73 0.5,1.89 2.7,1.89 h 6.4 l 0.7,1.54 h -16.7 c -1,0 -1.5,0 -1.5,-1 0,-0.54 0.5,-0.54 1.4,-0.54 0.1,0 1.1,0 1.9,-0.1 0.9,-0.11 1.3,-0.15 1.3,-0.79 0,-0.21 0,-0.36 -0.2,-0.96 z"
           inkscape:connector-curvature="0"
           style="fill:#000000;stroke-width:0" /><path
           id="path4651"
           d="m 1337.5,382.02 0,0.17 0,0.16 0,0.16 0,0.08 0,0.08 0,0.08 0,0.08 0,0.07 0,0.07 0,0.08 -0.1,0.06 0,0.07 0,0.06 0,0.07 -0.1,0.05 0,0.06 0,0.05 -0.1,0.05 0,0.05 -0.1,0.04 0,0.04 0,0.02 -0.1,0.01 0,0.02 0,0.01 0,0.02 -0.1,0.01 0,0.01 0,0.01 -0.1,0.01 0,0.01 -0.1,0.01 0,0 0,0.01 -0.1,0 0,0 -0.1,0 c -1,0 -1,-0.89 -1,-1.78 v -46.23 c 0,-0.91 0,-1.8 1,-1.8 1,0 1,0.89 1,1.8 z"
           inkscape:connector-curvature="0"
           style="fill:#000000;stroke-width:0" /><path
           id="path4653"
           d="m 1352.3,352.18 -0.2,-0.31 -0.2,-0.29 -0.1,-0.28 -0.2,-0.26 -0.2,-0.25 -0.2,-0.23 -0.2,-0.22 -0.2,-0.21 -0.2,-0.2 -0.1,-0.18 -0.2,-0.17 -0.2,-0.16 -0.2,-0.15 -0.2,-0.14 -0.2,-0.13 -0.2,-0.12 -0.2,-0.11 -0.2,-0.1 -0.1,-0.09 -0.2,-0.09 -0.2,-0.07 -0.2,-0.07 -0.2,-0.06 -0.2,-0.06 -0.2,-0.05 -0.2,-0.04 -0.2,-0.04 -0.2,-0.03 -0.4,-0.05 -0.4,-0.03 c -0.6,-0.05 -1.1,-0.05 -1.1,-1 0,-0.3 0.3,-0.55 0.7,-0.55 1.3,0 2.9,0.16 4.3,0.16 1.6,0 3.4,-0.16 5,-0.16 0.2,0 0.9,0 0.9,0.95 0,0.55 -0.4,0.6 -0.8,0.6 -1.1,0.09 -2.3,0.5 -2.3,1.73 0,0.61 0.3,1.16 0.7,1.85 l 3.7,6.39 h 12.5 l -0.1,1.53 h -11.4 l 9.8,16.45 1.6,-16.45 0.1,-1.53 c 0.2,-1.05 0.8,-7.83 0.8,-8.33 0,-1.5 -2.5,-1.64 -3.5,-1.64 -0.7,0 -1.2,0 -1.2,-1 0,-0.55 0.6,-0.55 0.7,-0.55 2,0 4.2,0.16 6.2,0.16 1.2,0 4.4,-0.16 5.6,-0.16 0.3,0 0.9,0 0.9,1 0,0.55 -0.5,0.55 -1.1,0.55 -3.1,0 -3.1,0.34 -3.3,1.8 l -3,31.12 c -0.1,1 -0.1,1.2 -1,1.2 -0.8,0 -0.9,-0.34 -1.3,-0.84 z"
           inkscape:connector-curvature="0"
           style="fill:#000000;stroke-width:0" /><path
           id="path4655"
           d="m 1395.1,358.89 0,0.38 0,0.38 0,0.39 0,0.41 -0.1,0.84 0,0.88 -0.1,0.92 -0.1,0.95 -0.2,0.98 -0.1,1 -0.2,1.02 -0.2,1.04 -0.3,1.05 -0.3,1.06 -0.4,1.06 -0.4,1.07 -0.2,0.53 -0.2,0.53 -0.2,0.53 -0.3,0.53 c -3,6.13 -7.2,9.36 -7.7,9.36 -0.3,0 -0.5,-0.19 -0.5,-0.48 0,-0.16 0,-0.25 0.9,-1.16 4.9,-4.92 7.7,-12.84 7.7,-23.27 0,-8.51 -1.8,-17.28 -8,-23.56 -0.6,-0.59 -0.6,-0.7 -0.6,-0.84 0,-0.3 0.2,-0.5 0.5,-0.5 0.5,0 4.9,3.39 7.9,9.72 2.5,5.47 3.1,11 3.1,15.18 z"
           inkscape:connector-curvature="0"
           style="fill:#000000;stroke-width:0" /></g>    </g>
    <g
       transform="matrix(0.25,0,0,0.25,224.94686,422.93531)"
       id="g4891">
      <g
         style="font-style:normal;font-variant:normal;font-weight:normal;font-stretch:normal;letter-spacing:normal;word-spacing:normal;text-anchor:start;fill:none;stroke:#000000;stroke-width:4;stroke-linecap:butt;stroke-linejoin:miter;stroke-miterlimit:10.43299961;stroke-opacity:1;stroke-dasharray:none;stroke-dashoffset:0"
         id="g4893"
         transform="matrix(1.0629921,0,0,-1.0629921,-186.02362,789.27165)"
         xml:space="preserve"
         stroke-miterlimit="10.433"
         font-style="normal"
         font-variant="normal"
         font-weight="normal"
         font-stretch="normal"
         font-size-adjust="none"
         letter-spacing="normal"
         word-spacing="normal"><path
           style="fill:#000000;stroke-width:0"
           inkscape:connector-curvature="0"
           d="m 1095.2,362.19 0.2,1.28 3.4,13.57 c 0.4,1.73 0.6,1.89 2.7,1.89 h 4.8 c 4.1,0 6.8,-1.35 6.8,-4.79 0,-1.95 -1,-6.23 -3,-8.03 -2.5,-2.23 -5.5,-2.64 -7.7,-2.64 h -7 l -0.2,-1.28 h 8.5 c 7.1,0 14,5.17 14,10.75 0,3.85 -3.3,7.53 -9.8,7.53 h -16.2 c -0.9,0 -1.5,0 -1.5,-0.95 0,-0.59 0.5,-0.59 1.5,-0.59 0.6,0 1.5,-0.05 2.1,-0.1 0.8,-0.11 1.1,-0.25 1.1,-0.79 0,-0.21 0,-0.36 -0.2,-0.96 l -6.7,-26.75 c -0.5,-1.95 -0.6,-2.34 -4.5,-2.34 -0.8,0 -1.4,0 -1.4,-0.95 0,-0.6 0.6,-0.6 0.8,-0.6 1.4,0 4.9,0.16 6.3,0.16 1,0 2.1,-0.06 3.2,-0.06 1.1,0 2.2,-0.1 3.2,-0.1 0.4,0 1,0 1,1 0,0.55 -0.4,0.55 -1.4,0.55 -1.8,0 -3.2,0 -3.2,0.89 0,0.3 0.1,0.55 0.1,0.84 z"
           id="path4895" /><path
           style="fill:#000000;stroke-width:0"
           inkscape:connector-curvature="0"
           d="m 1135.6,334.49 0,0.02 0,0.03 0,0.01 0,0.02 0,0.01 0,0.02 0,0.02 0,0.01 0,0.02 0,0.02 -0.1,0.03 0,0.02 0,0.02 0,0.03 0,0.03 0,0.03 -0.1,0.04 0,0.03 0,0.02 0,0.02 -0.1,0.02 0,0.02 0,0.02 0,0.03 0,0.02 -0.1,0.02 0,0.03 0,0.03 0,0.02 -0.1,0.03 0,0.03 0,0.03 0,0.03 -0.1,0.03 0,0.03 0,0.03 -0.1,0.04 0,0.03 0,0.04 -0.1,0.04 0,0.03 0,0.04 c -6.3,6.28 -7.9,15.69 -7.9,23.31 0,8.68 1.9,17.35 8.1,23.57 0.6,0.61 0.6,0.7 0.6,0.86 0,0.34 -0.2,0.48 -0.5,0.48 -0.5,0 -5,-3.37 -7.9,-9.7 -2.5,-5.49 -3.1,-11.02 -3.1,-15.21 0,-3.89 0.5,-9.9 3.2,-15.54 3,-6.13 7.3,-9.36 7.8,-9.36 0.3,0 0.5,0.14 0.5,0.5 z"
           id="path4897" /><polygon
           style="fill:#000000;stroke-width:0"
           points="1155,386.88 1172.9,386.88 1172.9,388.43 1155,388.43 "
           id="polygon4899" /><path
           style="fill:#000000;stroke-width:0"
           inkscape:connector-curvature="0"
           d="m 1147.4,352.18 -0.2,-0.31 -0.2,-0.29 -0.2,-0.28 -0.2,-0.26 -0.2,-0.25 -0.2,-0.23 -0.1,-0.22 -0.2,-0.21 -0.2,-0.2 -0.2,-0.18 -0.2,-0.17 -0.2,-0.16 -0.2,-0.15 -0.2,-0.14 -0.1,-0.13 -0.2,-0.12 -0.2,-0.11 -0.2,-0.1 -0.2,-0.09 -0.2,-0.09 -0.2,-0.07 -0.2,-0.07 -0.2,-0.06 -0.2,-0.06 -0.2,-0.05 -0.2,-0.04 -0.2,-0.04 -0.2,-0.03 -0.4,-0.05 -0.4,-0.03 c -0.6,-0.05 -1,-0.05 -1,-1 0,-0.3 0.2,-0.55 0.6,-0.55 1.4,0 2.9,0.16 4.3,0.16 1.7,0 3.4,-0.16 5,-0.16 0.3,0 1,0 1,0.95 0,0.55 -0.5,0.6 -0.9,0.6 -1.1,0.09 -2.3,0.5 -2.3,1.73 0,0.61 0.3,1.16 0.7,1.85 l 3.8,6.39 h 12.5 l -0.1,1.53 h -11.5 l 9.9,16.45 1.6,-16.45 0.1,-1.53 c 0.1,-1.05 0.8,-7.83 0.8,-8.33 0,-1.5 -2.6,-1.64 -3.6,-1.64 -0.7,0 -1.2,0 -1.2,-1 0,-0.55 0.6,-0.55 0.7,-0.55 2,0 4.2,0.16 6.2,0.16 1.3,0 4.4,-0.16 5.7,-0.16 0.3,0 0.9,0 0.9,1 0,0.55 -0.5,0.55 -1.2,0.55 -3.1,0 -3.1,0.34 -3.2,1.8 l -3.1,31.12 c -0.1,1 -0.1,1.2 -0.9,1.2 -0.8,0 -1,-0.34 -1.3,-0.84 z"
           id="path4901" /><path
           style="fill:#000000;stroke-width:0"
           inkscape:connector-curvature="0"
           d="m 1190,358.89 0,0.38 0,0.38 0,0.39 0,0.41 0,0.84 -0.1,0.88 -0.1,0.92 -0.1,0.95 -0.1,0.98 -0.2,1 -0.2,1.02 -0.2,1.04 -0.3,1.05 -0.3,1.06 -0.3,1.06 -0.4,1.07 -0.2,0.53 -0.3,0.53 -0.2,0.53 -0.2,0.53 c -3,6.13 -7.3,9.36 -7.8,9.36 -0.3,0 -0.5,-0.19 -0.5,-0.48 0,-0.16 0,-0.25 0.9,-1.16 4.9,-4.92 7.8,-12.84 7.8,-23.27 0,-8.51 -1.9,-17.28 -8.1,-23.56 -0.6,-0.59 -0.6,-0.7 -0.6,-0.84 0,-0.3 0.2,-0.5 0.5,-0.5 0.5,0 4.9,3.39 7.9,9.72 2.5,5.47 3.1,11 3.1,15.18 z"
           id="path4903" /><path
           style="fill:#000000;stroke-width:0"
           inkscape:connector-curvature="0"
           d="m 1215.7,358.89 0,0.14 0,0.13 -0.1,0.14 0,0.13 0,0.12 0,0.13 -0.1,0.12 0,0.12 -0.1,0.12 0,0.11 -0.1,0.11 -0.1,0.11 0,0.1 -0.1,0.1 -0.1,0.1 -0.1,0.09 -0.1,0.09 -0.1,0.08 -0.1,0.08 -0.1,0.07 -0.1,0.07 -0.1,0.07 -0.1,0.05 -0.1,0.06 -0.2,0.04 -0.1,0.05 -0.1,0.03 -0.1,0.03 -0.2,0.02 -0.1,0.02 -0.1,0.01 -0.2,0.01 c -1.4,0 -2.6,-1.19 -2.6,-2.65 0,-1.43 1.2,-2.64 2.6,-2.64 1.5,0 2.7,1.21 2.7,2.64 z"
           id="path4905" /><path
           style="fill:#000000;stroke-width:0"
           inkscape:connector-curvature="0"
           d="m 1246.2,362.19 0.2,1.28 3.4,13.57 c 0.4,1.73 0.5,1.89 2.6,1.89 h 4.8 c 4.2,0 6.8,-1.35 6.8,-4.79 0,-1.95 -1,-6.23 -2.9,-8.03 -2.5,-2.23 -5.5,-2.64 -7.7,-2.64 h -7 l -0.2,-1.28 h 8.4 c 7.1,0 14,5.17 14,10.75 0,3.85 -3.3,7.53 -9.8,7.53 h -16.1 c -1,0 -1.5,0 -1.5,-0.95 0,-0.59 0.4,-0.59 1.4,-0.59 0.7,0 1.6,-0.05 2.2,-0.1 0.8,-0.11 1.1,-0.25 1.1,-0.79 0,-0.21 -0.1,-0.36 -0.2,-0.96 l -6.7,-26.75 c -0.5,-1.95 -0.6,-2.34 -4.5,-2.34 -0.9,0 -1.4,0 -1.4,-0.95 0,-0.6 0.6,-0.6 0.7,-0.6 1.4,0 4.9,0.16 6.3,0.16 1.1,0 2.2,-0.06 3.2,-0.06 1.1,0 2.2,-0.1 3.3,-0.1 0.3,0 1,0 1,1 0,0.55 -0.5,0.55 -1.4,0.55 -1.9,0 -3.3,0 -3.3,0.89 0,0.3 0.1,0.55 0.2,0.84 z"
           id="path4907" /><path
           style="fill:#000000;stroke-width:0"
           inkscape:connector-curvature="0"
           d="m 1286.6,334.49 -0.1,0.02 0,0.03 0,0.01 0,0.02 0,0.01 0,0.02 0,0.02 0,0.01 0,0.02 0,0.02 0,0.03 0,0.02 0,0.02 -0.1,0.03 0,0.03 0,0.03 0,0.04 -0.1,0.03 0,0.02 0,0.02 0,0.02 0,0.02 0,0.02 -0.1,0.03 0,0.02 0,0.02 0,0.03 -0.1,0.03 0,0.02 0,0.03 0,0.03 -0.1,0.03 0,0.03 0,0.03 0,0.03 -0.1,0.03 0,0.04 0,0.03 -0.1,0.04 0,0.04 -0.1,0.03 0,0.04 c -6.2,6.28 -7.8,15.69 -7.8,23.31 0,8.68 1.9,17.35 8,23.57 0.7,0.61 0.7,0.7 0.7,0.86 0,0.34 -0.2,0.48 -0.5,0.48 -0.5,0 -5,-3.37 -7.9,-9.7 -2.6,-5.49 -3.2,-11.02 -3.2,-15.21 0,-3.89 0.6,-9.9 3.3,-15.54 3,-6.13 7.3,-9.36 7.8,-9.36 0.3,0 0.5,0.14 0.5,0.5 z"
           id="path4909" /><path
           style="fill:#000000;stroke-width:0"
           inkscape:connector-curvature="0"
           d="m 1297.4,350.33 -0.1,-0.18 0,-0.17 -0.1,-0.16 0,-0.15 -0.1,-0.14 0,-0.14 -0.1,-0.13 0,-0.12 -0.1,-0.11 0,-0.11 -0.1,-0.1 -0.1,-0.09 0,-0.08 -0.1,-0.08 -0.1,-0.08 -0.1,-0.06 -0.1,-0.06 -0.2,-0.06 -0.1,-0.05 -0.1,-0.05 -0.2,-0.04 -0.1,-0.01 -0.1,-0.02 -0.1,-0.02 -0.1,-0.01 -0.1,-0.02 -0.1,-0.01 -0.1,-0.01 -0.1,-0.01 -0.1,-0.01 -0.1,-0.01 -0.2,-0.01 -0.1,-0.01 -0.1,-0.01 -0.2,0 -0.1,-0.01 -0.2,0 -0.1,0 -0.2,-0.01 -0.2,0 -0.1,0 -0.2,0 -0.2,0 c -0.8,0 -1.3,0 -1.3,-1 0,-0.55 0.4,-0.55 1.3,-0.55 h 17.8 c 7.9,0 13.8,5.88 13.8,10.77 0,3.58 -2.9,6.47 -7.8,7.01 5.2,0.96 10.5,4.64 10.5,9.38 0,3.69 -3.3,6.87 -9.3,6.87 l -0.7,-1.54 c 4.4,0 5.4,-2.94 5.4,-5.13 0,-4.39 -4.3,-9.12 -10.3,-9.12 h -7.3 l -0.3,-1.1 h 9.4 c 4.8,0 5.7,-3.69 5.7,-5.83 0,-4.93 -4.4,-9.76 -10.3,-9.76 h -6.8 c -0.7,0 -0.8,0 -1.1,0.05 -0.5,0.04 -0.6,0.09 -0.6,0.5 0,0.14 0,0.25 0.3,1.14 l 3.4,13.9 0.3,1.1 3.1,12.36 c 0.4,1.73 0.5,1.89 2.7,1.89 h 6.4 l 0.7,1.54 H 1301 c -0.9,0 -1.4,0 -1.4,-1 0,-0.54 0.4,-0.54 1.4,-0.54 0.1,0 1,0 1.9,-0.1 0.9,-0.11 1.3,-0.15 1.3,-0.79 0,-0.21 0,-0.36 -0.2,-0.96 z"
           id="path4911" /><path
           style="fill:#000000;stroke-width:0"
           inkscape:connector-curvature="0"
           d="m 1337.6,382.02 0,0.17 0,0.16 0,0.16 0,0.08 0,0.08 0,0.08 0,0.08 0,0.07 0,0.07 0,0.08 -0.1,0.06 0,0.07 0,0.06 0,0.07 -0.1,0.05 0,0.06 0,0.05 -0.1,0.05 0,0.05 -0.1,0.04 0,0.04 0,0.02 -0.1,0.01 0,0.02 0,0.01 0,0.02 -0.1,0.01 0,0.01 0,0.01 -0.1,0.01 0,0.01 -0.1,0.01 0,0 0,0.01 -0.1,0 0,0 -0.1,0 c -1,0 -1,-0.89 -1,-1.78 v -46.23 c 0,-0.91 0,-1.8 1,-1.8 1,0 1,0.89 1,1.8 z"
           id="path4913" /><polygon
           style="fill:#000000;stroke-width:0"
           points="1360,386.88 1378,386.88 1378,388.43 1360,388.43 "
           id="polygon4915" /><path
           style="fill:#000000;stroke-width:0"
           inkscape:connector-curvature="0"
           d="m 1352.4,352.18 -0.1,-0.31 -0.2,-0.29 -0.2,-0.28 -0.2,-0.26 -0.2,-0.25 -0.2,-0.23 -0.2,-0.22 -0.2,-0.21 -0.1,-0.2 -0.2,-0.18 -0.2,-0.17 -0.2,-0.16 -0.2,-0.15 -0.2,-0.14 -0.2,-0.13 -0.2,-0.12 -0.1,-0.11 -0.2,-0.1 -0.2,-0.09 -0.2,-0.09 -0.2,-0.07 -0.2,-0.07 -0.2,-0.06 -0.2,-0.06 -0.2,-0.05 -0.2,-0.04 -0.2,-0.04 -0.2,-0.03 -0.4,-0.05 -0.4,-0.03 c -0.6,-0.05 -1,-0.05 -1,-1 0,-0.3 0.2,-0.55 0.6,-0.55 1.3,0 2.9,0.16 4.3,0.16 1.6,0 3.4,-0.16 5,-0.16 0.3,0 0.9,0 0.9,0.95 0,0.55 -0.4,0.6 -0.8,0.6 -1.1,0.09 -2.3,0.5 -2.3,1.73 0,0.61 0.3,1.16 0.7,1.85 l 3.8,6.39 h 12.5 l -0.2,1.53 h -11.4 l 9.8,16.45 1.6,-16.45 0.2,-1.53 c 0.1,-1.05 0.8,-7.83 0.8,-8.33 0,-1.5 -2.6,-1.64 -3.6,-1.64 -0.7,0 -1.2,0 -1.2,-1 0,-0.55 0.6,-0.55 0.7,-0.55 2,0 4.2,0.16 6.2,0.16 1.3,0 4.4,-0.16 5.7,-0.16 0.2,0 0.8,0 0.8,1 0,0.55 -0.5,0.55 -1.1,0.55 -3.1,0 -3.1,0.34 -3.2,1.8 l -3.1,31.12 c -0.1,1 -0.1,1.2 -0.9,1.2 -0.8,0 -1,-0.34 -1.3,-0.84 z"
           id="path4917" /><path
           style="fill:#000000;stroke-width:0"
           inkscape:connector-curvature="0"
           d="m 1395.2,358.89 0,0.38 0,0.38 0,0.39 0,0.41 0,0.84 -0.1,0.88 -0.1,0.92 -0.1,0.95 -0.1,0.98 -0.2,1 -0.2,1.02 -0.2,1.04 -0.3,1.05 -0.3,1.06 -0.3,1.06 -0.4,1.07 -0.2,0.53 -0.3,0.53 -0.2,0.53 -0.3,0.53 c -2.9,6.13 -7.2,9.36 -7.7,9.36 -0.3,0 -0.5,-0.19 -0.5,-0.48 0,-0.16 0,-0.25 0.9,-1.16 4.9,-4.92 7.7,-12.84 7.7,-23.27 0,-8.51 -1.8,-17.28 -8,-23.56 -0.6,-0.59 -0.6,-0.7 -0.6,-0.84 0,-0.3 0.2,-0.5 0.5,-0.5 0.5,0 5,3.39 7.9,9.72 2.5,5.47 3.1,11 3.1,15.18 z"
           id="path4919" /></g>    </g>
    <g
       id="g5171"
       transform="matrix(0.25,0,0,0.25,224.94686,479.62822)">
      <g
         word-spacing="normal"
         letter-spacing="normal"
         font-size-adjust="none"
         font-stretch="normal"
         font-weight="normal"
         font-variant="normal"
         font-style="normal"
         stroke-miterlimit="10.433"
         xml:space="preserve"
         transform="matrix(1.0629921,0,0,-1.0629921,-186.02362,789.27165)"
         id="g5173"
         style="font-style:normal;font-variant:normal;font-weight:normal;font-stretch:normal;letter-spacing:normal;word-spacing:normal;text-anchor:start;fill:none;stroke:#000000;stroke-width:4;stroke-linecap:butt;stroke-linejoin:miter;stroke-miterlimit:10.43299961;stroke-opacity:1;stroke-dasharray:none;stroke-dashoffset:0"><path
           id="path5175"
           d="m 1095.2,362.19 0.2,1.28 3.4,13.57 c 0.4,1.73 0.6,1.89 2.7,1.89 h 4.8 c 4.1,0 6.8,-1.35 6.8,-4.79 0,-1.95 -1,-6.23 -3,-8.03 -2.5,-2.23 -5.5,-2.64 -7.7,-2.64 h -7 l -0.2,-1.28 h 8.5 c 7.1,0 14,5.17 14,10.75 0,3.85 -3.3,7.53 -9.8,7.53 h -16.2 c -0.9,0 -1.5,0 -1.5,-0.95 0,-0.59 0.5,-0.59 1.5,-0.59 0.6,0 1.5,-0.05 2.1,-0.1 0.8,-0.11 1.1,-0.25 1.1,-0.79 0,-0.21 0,-0.36 -0.2,-0.96 l -6.7,-26.75 c -0.5,-1.95 -0.6,-2.34 -4.5,-2.34 -0.8,0 -1.4,0 -1.4,-0.95 0,-0.6 0.6,-0.6 0.8,-0.6 1.4,0 4.9,0.16 6.3,0.16 1,0 2.1,-0.06 3.2,-0.06 1.1,0 2.2,-0.1 3.2,-0.1 0.4,0 1,0 1,1 0,0.55 -0.4,0.55 -1.4,0.55 -1.8,0 -3.2,0 -3.2,0.89 0,0.3 0.1,0.55 0.1,0.84 z"
           inkscape:connector-curvature="0"
           style="fill:#000000;stroke-width:0" /><path
           id="path5177"
           d="m 1135.6,334.49 0,0.02 0,0.03 0,0.01 0,0.02 0,0.01 0,0.02 0,0.02 0,0.01 0,0.02 0,0.02 -0.1,0.03 0,0.02 0,0.02 0,0.03 0,0.03 0,0.03 -0.1,0.04 0,0.03 0,0.02 0,0.02 -0.1,0.02 0,0.02 0,0.02 0,0.03 0,0.02 -0.1,0.02 0,0.03 0,0.03 0,0.02 -0.1,0.03 0,0.03 0,0.03 0,0.03 -0.1,0.03 0,0.03 0,0.03 -0.1,0.04 0,0.03 0,0.04 -0.1,0.04 0,0.03 0,0.04 c -6.3,6.28 -7.9,15.69 -7.9,23.31 0,8.68 1.9,17.35 8.1,23.57 0.6,0.61 0.6,0.7 0.6,0.86 0,0.34 -0.2,0.48 -0.5,0.48 -0.5,0 -5,-3.37 -7.9,-9.7 -2.5,-5.49 -3.1,-11.02 -3.1,-15.21 0,-3.89 0.5,-9.9 3.2,-15.54 3,-6.13 7.3,-9.36 7.8,-9.36 0.3,0 0.5,0.14 0.5,0.5 z"
           inkscape:connector-curvature="0"
           style="fill:#000000;stroke-width:0" /><polygon
           id="polygon5179"
           points="1155,386.88 1172.9,386.88 1172.9,388.43 1155,388.43 "
           style="fill:#000000;stroke-width:0" /><path
           id="path5181"
           d="m 1147.4,352.18 -0.2,-0.31 -0.2,-0.29 -0.2,-0.28 -0.2,-0.26 -0.2,-0.25 -0.2,-0.23 -0.1,-0.22 -0.2,-0.21 -0.2,-0.2 -0.2,-0.18 -0.2,-0.17 -0.2,-0.16 -0.2,-0.15 -0.2,-0.14 -0.1,-0.13 -0.2,-0.12 -0.2,-0.11 -0.2,-0.1 -0.2,-0.09 -0.2,-0.09 -0.2,-0.07 -0.2,-0.07 -0.2,-0.06 -0.2,-0.06 -0.2,-0.05 -0.2,-0.04 -0.2,-0.04 -0.2,-0.03 -0.4,-0.05 -0.4,-0.03 c -0.6,-0.05 -1,-0.05 -1,-1 0,-0.3 0.2,-0.55 0.6,-0.55 1.4,0 2.9,0.16 4.3,0.16 1.7,0 3.4,-0.16 5,-0.16 0.3,0 1,0 1,0.95 0,0.55 -0.5,0.6 -0.9,0.6 -1.1,0.09 -2.3,0.5 -2.3,1.73 0,0.61 0.3,1.16 0.7,1.85 l 3.8,6.39 h 12.5 l -0.1,1.53 h -11.5 l 9.9,16.45 1.6,-16.45 0.1,-1.53 c 0.1,-1.05 0.8,-7.83 0.8,-8.33 0,-1.5 -2.6,-1.64 -3.6,-1.64 -0.7,0 -1.2,0 -1.2,-1 0,-0.55 0.6,-0.55 0.7,-0.55 2,0 4.2,0.16 6.2,0.16 1.3,0 4.4,-0.16 5.7,-0.16 0.3,0 0.9,0 0.9,1 0,0.55 -0.5,0.55 -1.2,0.55 -3.1,0 -3.1,0.34 -3.2,1.8 l -3.1,31.12 c -0.1,1 -0.1,1.2 -0.9,1.2 -0.8,0 -1,-0.34 -1.3,-0.84 z"
           inkscape:connector-curvature="0"
           style="fill:#000000;stroke-width:0" /><path
           id="path5183"
           d="m 1190,358.89 0,0.38 0,0.38 0,0.39 0,0.41 0,0.84 -0.1,0.88 -0.1,0.92 -0.1,0.95 -0.1,0.98 -0.2,1 -0.2,1.02 -0.2,1.04 -0.3,1.05 -0.3,1.06 -0.3,1.06 -0.4,1.07 -0.2,0.53 -0.3,0.53 -0.2,0.53 -0.2,0.53 c -3,6.13 -7.3,9.36 -7.8,9.36 -0.3,0 -0.5,-0.19 -0.5,-0.48 0,-0.16 0,-0.25 0.9,-1.16 4.9,-4.92 7.8,-12.84 7.8,-23.27 0,-8.51 -1.9,-17.28 -8.1,-23.56 -0.6,-0.59 -0.6,-0.7 -0.6,-0.84 0,-0.3 0.2,-0.5 0.5,-0.5 0.5,0 4.9,3.39 7.9,9.72 2.5,5.47 3.1,11 3.1,15.18 z"
           inkscape:connector-curvature="0"
           style="fill:#000000;stroke-width:0" /><path
           id="path5185"
           d="m 1215.7,358.89 0,0.14 0,0.13 -0.1,0.14 0,0.13 0,0.12 0,0.13 -0.1,0.12 0,0.12 -0.1,0.12 0,0.11 -0.1,0.11 -0.1,0.11 0,0.1 -0.1,0.1 -0.1,0.1 -0.1,0.09 -0.1,0.09 -0.1,0.08 -0.1,0.08 -0.1,0.07 -0.1,0.07 -0.1,0.07 -0.1,0.05 -0.1,0.06 -0.2,0.04 -0.1,0.05 -0.1,0.03 -0.1,0.03 -0.2,0.02 -0.1,0.02 -0.1,0.01 -0.2,0.01 c -1.4,0 -2.6,-1.19 -2.6,-2.65 0,-1.43 1.2,-2.64 2.6,-2.64 1.5,0 2.7,1.21 2.7,2.64 z"
           inkscape:connector-curvature="0"
           style="fill:#000000;stroke-width:0" /><path
           id="path5187"
           d="m 1246.2,362.19 0.2,1.28 3.4,13.57 c 0.4,1.73 0.5,1.89 2.6,1.89 h 4.8 c 4.2,0 6.8,-1.35 6.8,-4.79 0,-1.95 -1,-6.23 -2.9,-8.03 -2.5,-2.23 -5.5,-2.64 -7.7,-2.64 h -7 l -0.2,-1.28 h 8.4 c 7.1,0 14,5.17 14,10.75 0,3.85 -3.3,7.53 -9.8,7.53 h -16.1 c -1,0 -1.5,0 -1.5,-0.95 0,-0.59 0.4,-0.59 1.4,-0.59 0.7,0 1.6,-0.05 2.2,-0.1 0.8,-0.11 1.1,-0.25 1.1,-0.79 0,-0.21 -0.1,-0.36 -0.2,-0.96 l -6.7,-26.75 c -0.5,-1.95 -0.6,-2.34 -4.5,-2.34 -0.9,0 -1.4,0 -1.4,-0.95 0,-0.6 0.6,-0.6 0.7,-0.6 1.4,0 4.9,0.16 6.3,0.16 1.1,0 2.2,-0.06 3.2,-0.06 1.1,0 2.2,-0.1 3.3,-0.1 0.3,0 1,0 1,1 0,0.55 -0.5,0.55 -1.4,0.55 -1.9,0 -3.3,0 -3.3,0.89 0,0.3 0.1,0.55 0.2,0.84 z"
           inkscape:connector-curvature="0"
           style="fill:#000000;stroke-width:0" /><path
           id="path5189"
           d="m 1286.6,334.49 -0.1,0.02 0,0.03 0,0.01 0,0.02 0,0.01 0,0.02 0,0.02 0,0.01 0,0.02 0,0.02 0,0.03 0,0.02 0,0.02 -0.1,0.03 0,0.03 0,0.03 0,0.04 -0.1,0.03 0,0.02 0,0.02 0,0.02 0,0.02 0,0.02 -0.1,0.03 0,0.02 0,0.02 0,0.03 -0.1,0.03 0,0.02 0,0.03 0,0.03 -0.1,0.03 0,0.03 0,0.03 0,0.03 -0.1,0.03 0,0.04 0,0.03 -0.1,0.04 0,0.04 -0.1,0.03 0,0.04 c -6.2,6.28 -7.8,15.69 -7.8,23.31 0,8.68 1.9,17.35 8,23.57 0.7,0.61 0.7,0.7 0.7,0.86 0,0.34 -0.2,0.48 -0.5,0.48 -0.5,0 -5,-3.37 -7.9,-9.7 -2.6,-5.49 -3.2,-11.02 -3.2,-15.21 0,-3.89 0.6,-9.9 3.3,-15.54 3,-6.13 7.3,-9.36 7.8,-9.36 0.3,0 0.5,0.14 0.5,0.5 z"
           inkscape:connector-curvature="0"
           style="fill:#000000;stroke-width:0" /><polygon
           id="polygon5191"
           points="1304.6,386.88 1322.6,386.88 1322.6,388.43 1304.6,388.43 "
           style="fill:#000000;stroke-width:0" /><path
           id="path5193"
           d="m 1297.4,350.33 -0.1,-0.18 0,-0.17 -0.1,-0.16 0,-0.15 -0.1,-0.14 0,-0.14 0,-0.13 -0.1,-0.12 -0.1,-0.11 0,-0.11 -0.1,-0.1 0,-0.09 -0.1,-0.08 -0.1,-0.08 -0.1,-0.08 -0.1,-0.06 -0.1,-0.06 -0.1,-0.06 -0.2,-0.05 -0.1,-0.05 -0.2,-0.04 -0.1,-0.01 -0.1,-0.02 -0.1,-0.02 -0.1,-0.01 -0.1,-0.02 -0.1,-0.01 -0.1,-0.01 -0.1,-0.01 -0.1,-0.01 -0.1,-0.01 -0.2,-0.01 -0.1,-0.01 -0.1,-0.01 -0.2,0 -0.1,-0.01 -0.2,0 -0.1,0 -0.2,-0.01 -0.1,0 -0.2,0 -0.2,0 -0.2,0 c -0.8,0 -1.3,0 -1.3,-1 0,-0.55 0.4,-0.55 1.3,-0.55 h 17.8 c 7.9,0 13.8,5.88 13.8,10.77 0,3.58 -2.9,6.47 -7.7,7.01 5.1,0.96 10.4,4.64 10.4,9.38 0,3.69 -3.3,6.87 -9.3,6.87 l -0.7,-1.54 c 4.4,0 5.4,-2.94 5.4,-5.13 0,-4.39 -4.3,-9.12 -10.3,-9.12 h -7.3 l -0.3,-1.1 h 9.4 c 4.8,0 5.7,-3.69 5.7,-5.83 0,-4.93 -4.4,-9.76 -10.3,-9.76 h -6.7 c -0.7,0 -0.9,0 -1.1,0.05 -0.5,0.04 -0.7,0.09 -0.7,0.5 0,0.14 0,0.25 0.3,1.14 l 3.4,13.9 0.3,1.1 3.1,12.36 c 0.4,1.73 0.5,1.89 2.7,1.89 h 6.4 l 0.7,1.54 h -16.7 c -1,0 -1.5,0 -1.5,-1 0,-0.54 0.5,-0.54 1.4,-0.54 0.1,0 1.1,0 1.9,-0.1 0.9,-0.11 1.3,-0.15 1.3,-0.79 0,-0.21 0,-0.36 -0.2,-0.96 z"
           inkscape:connector-curvature="0"
           style="fill:#000000;stroke-width:0" /><path
           id="path5195"
           d="m 1337.5,382.02 0,0.17 0,0.16 0,0.16 0,0.08 0,0.08 0,0.08 0,0.08 0,0.07 0,0.07 0,0.08 -0.1,0.06 0,0.07 0,0.06 0,0.07 -0.1,0.05 0,0.06 0,0.05 -0.1,0.05 0,0.05 -0.1,0.04 0,0.04 0,0.02 -0.1,0.01 0,0.02 0,0.01 0,0.02 -0.1,0.01 0,0.01 0,0.01 -0.1,0.01 0,0.01 -0.1,0.01 0,0 0,0.01 -0.1,0 0,0 -0.1,0 c -1,0 -1,-0.89 -1,-1.78 v -46.23 c 0,-0.91 0,-1.8 1,-1.8 1,0 1,0.89 1,1.8 z"
           inkscape:connector-curvature="0"
           style="fill:#000000;stroke-width:0" /><polygon
           id="polygon5197"
           points="1360,386.88 1378,386.88 1378,388.43 1360,388.43 "
           style="fill:#000000;stroke-width:0" /><path
           id="path5199"
           d="m 1352.3,352.18 -0.2,-0.31 -0.2,-0.29 -0.1,-0.28 -0.2,-0.26 -0.2,-0.25 -0.2,-0.23 -0.2,-0.22 -0.2,-0.21 -0.2,-0.2 -0.1,-0.18 -0.2,-0.17 -0.2,-0.16 -0.2,-0.15 -0.2,-0.14 -0.2,-0.13 -0.2,-0.12 -0.2,-0.11 -0.2,-0.1 -0.1,-0.09 -0.2,-0.09 -0.2,-0.07 -0.2,-0.07 -0.2,-0.06 -0.2,-0.06 -0.2,-0.05 -0.2,-0.04 -0.2,-0.04 -0.2,-0.03 -0.4,-0.05 -0.4,-0.03 c -0.6,-0.05 -1,-0.05 -1,-1 0,-0.3 0.2,-0.55 0.6,-0.55 1.3,0 2.9,0.16 4.3,0.16 1.6,0 3.4,-0.16 5,-0.16 0.2,0 0.9,0 0.9,0.95 0,0.55 -0.4,0.6 -0.8,0.6 -1.1,0.09 -2.3,0.5 -2.3,1.73 0,0.61 0.3,1.16 0.7,1.85 l 3.7,6.39 h 12.5 l -0.1,1.53 h -11.4 l 9.8,16.45 1.6,-16.45 0.1,-1.53 c 0.2,-1.05 0.9,-7.83 0.9,-8.33 0,-1.5 -2.6,-1.64 -3.6,-1.64 -0.7,0 -1.2,0 -1.2,-1 0,-0.55 0.6,-0.55 0.7,-0.55 2,0 4.2,0.16 6.2,0.16 1.2,0 4.4,-0.16 5.6,-0.16 0.3,0 0.9,0 0.9,1 0,0.55 -0.5,0.55 -1.1,0.55 -3.1,0 -3.1,0.34 -3.3,1.8 l -3,31.12 c -0.1,1 -0.1,1.2 -1,1.2 -0.7,0 -0.9,-0.34 -1.2,-0.84 z"
           inkscape:connector-curvature="0"
           style="fill:#000000;stroke-width:0" /><path
           id="path5201"
           d="m 1395.2,358.89 0,0.38 0,0.38 0,0.39 0,0.41 0,0.84 -0.1,0.88 -0.1,0.92 -0.1,0.95 -0.1,0.98 -0.2,1 -0.2,1.02 -0.2,1.04 -0.3,1.05 -0.3,1.06 -0.3,1.06 -0.4,1.07 -0.2,0.53 -0.3,0.53 -0.2,0.53 -0.3,0.53 c -2.9,6.13 -7.2,9.36 -7.7,9.36 -0.3,0 -0.5,-0.19 -0.5,-0.48 0,-0.16 0,-0.25 0.9,-1.16 4.9,-4.92 7.7,-12.84 7.7,-23.27 0,-8.51 -1.8,-17.28 -8,-23.56 -0.6,-0.59 -0.6,-0.7 -0.6,-0.84 0,-0.3 0.2,-0.5 0.5,-0.5 0.5,0 5,3.39 7.9,9.72 2.5,5.47 3.1,11 3.1,15.18 z"
           inkscape:connector-curvature="0"
           style="fill:#000000;stroke-width:0" /></g>    </g>
    <rect
       style="fill:none;stroke:#000000;stroke-width:1;stroke-linecap:round;stroke-linejoin:bevel;stroke-miterlimit:4;stroke-opacity:1;stroke-dasharray:none;stroke-dashoffset:0"
       id="rect5343"
       width="95.669289"
       height="56.692924"
       x="269.29135"
       y="496.06296" />
    <g
       id="g5555"
       transform="matrix(0.25,0,0,0.25,134.24705,327.03128)">
      <g
         id="g5557"
         transform="matrix(1.0629921,0,0,-1.0629921,-186.02362,789.27165)"
         xml:space="preserve"
         stroke-miterlimit="10.433"
         font-style="normal"
         font-variant="normal"
         font-weight="normal"
         font-stretch="normal"
         font-size-adjust="none"
         letter-spacing="normal"
         word-spacing="normal"
         style="font-style:normal;font-variant:normal;font-weight:normal;font-stretch:normal;letter-spacing:normal;word-spacing:normal;text-anchor:start;fill:none;stroke:#000000;stroke-width:4;stroke-linecap:butt;stroke-linejoin:miter;stroke-miterlimit:10.43299961;stroke-opacity:1;stroke-dasharray:none;stroke-dashoffset:0"><path
           d="m 1230.4,352.18 -0.2,-0.31 -0.2,-0.29 -0.2,-0.28 -0.1,-0.26 -0.2,-0.25 -0.2,-0.23 -0.2,-0.22 -0.2,-0.21 -0.2,-0.2 -0.2,-0.18 -0.2,-0.17 -0.1,-0.16 -0.2,-0.15 -0.2,-0.14 -0.2,-0.13 -0.2,-0.12 -0.2,-0.11 -0.2,-0.1 -0.2,-0.09 -0.2,-0.09 -0.1,-0.07 -0.2,-0.07 -0.2,-0.06 -0.2,-0.06 -0.2,-0.05 -0.2,-0.04 -0.2,-0.04 -0.2,-0.03 -0.4,-0.05 -0.4,-0.03 c -0.6,-0.05 -1.1,-0.05 -1.1,-1 0,-0.3 0.3,-0.55 0.7,-0.55 1.3,0 2.9,0.16 4.3,0.16 1.6,0 3.3,-0.16 4.9,-0.16 0.3,0 1,0 1,0.95 0,0.55 -0.5,0.6 -0.8,0.6 -1.2,0.09 -2.4,0.5 -2.4,1.73 0,0.61 0.3,1.16 0.7,1.85 l 3.8,6.39 h 12.5 l -0.1,1.53 h -11.4 l 9.8,16.45 1.6,-16.45 0.1,-1.53 c 0.1,-1.05 0.8,-7.83 0.8,-8.33 0,-1.5 -2.6,-1.64 -3.5,-1.64 -0.8,0 -1.3,0 -1.3,-1 0,-0.55 0.6,-0.55 0.8,-0.55 2,0 4.1,0.16 6.2,0.16 1.2,0 4.4,-0.16 5.6,-0.16 0.3,0 0.9,0 0.9,1 0,0.55 -0.5,0.55 -1.1,0.55 -3.1,0 -3.1,0.34 -3.3,1.8 l -3,31.12 c -0.1,1 -0.1,1.2 -1,1.2 -0.8,0 -1,-0.34 -1.3,-0.84 z"
           id="path5559"
           inkscape:connector-curvature="0"
           style="fill:#000000;stroke-width:0" /></g>    </g>
    <g
       id="g5865"
       transform="matrix(0.25,0,0,0.25,229.67717,327.29702)">
      <g
         word-spacing="normal"
         letter-spacing="normal"
         font-size-adjust="none"
         font-stretch="normal"
         font-weight="normal"
         font-variant="normal"
         font-style="normal"
         stroke-miterlimit="10.433"
         xml:space="preserve"
         transform="matrix(1.0629921,0,0,-1.0629921,-186.02362,789.27165)"
         id="g5867"
         style="font-style:normal;font-variant:normal;font-weight:normal;font-stretch:normal;letter-spacing:normal;word-spacing:normal;text-anchor:start;fill:none;stroke:#000000;stroke-width:4;stroke-linecap:butt;stroke-linejoin:miter;stroke-miterlimit:10.43299961;stroke-opacity:1;stroke-dasharray:none;stroke-dashoffset:0"><polygon
           id="polygon5869"
           points="1238,386.88 1256,386.88 1256,388.43 1238,388.43 "
           style="fill:#000000;stroke-width:0" /><path
           id="path5871"
           d="m 1230.4,352.18 -0.2,-0.31 -0.2,-0.29 -0.2,-0.28 -0.1,-0.26 -0.2,-0.25 -0.2,-0.23 -0.2,-0.22 -0.2,-0.21 -0.2,-0.2 -0.2,-0.18 -0.2,-0.17 -0.1,-0.16 -0.2,-0.15 -0.2,-0.14 -0.2,-0.13 -0.2,-0.12 -0.2,-0.11 -0.2,-0.1 -0.2,-0.09 -0.2,-0.09 -0.1,-0.07 -0.2,-0.07 -0.2,-0.06 -0.2,-0.06 -0.2,-0.05 -0.2,-0.04 -0.2,-0.04 -0.2,-0.03 -0.4,-0.05 -0.4,-0.03 c -0.6,-0.05 -1.1,-0.05 -1.1,-1 0,-0.3 0.3,-0.55 0.7,-0.55 1.3,0 2.9,0.16 4.3,0.16 1.6,0 3.3,-0.16 4.9,-0.16 0.3,0 1,0 1,0.95 0,0.55 -0.5,0.6 -0.8,0.6 -1.2,0.09 -2.4,0.5 -2.4,1.73 0,0.61 0.3,1.16 0.7,1.85 l 3.8,6.39 h 12.5 l -0.1,1.53 h -11.4 l 9.8,16.45 1.6,-16.45 0.1,-1.53 c 0.1,-1.05 0.8,-7.83 0.8,-8.33 0,-1.5 -2.6,-1.64 -3.5,-1.64 -0.8,0 -1.3,0 -1.3,-1 0,-0.55 0.6,-0.55 0.8,-0.55 2,0 4.1,0.16 6.2,0.16 1.2,0 4.4,-0.16 5.6,-0.16 0.3,0 0.9,0 0.9,1 0,0.55 -0.5,0.55 -1.1,0.55 -3.1,0 -3.1,0.34 -3.3,1.8 l -3,31.12 c -0.1,1 -0.1,1.2 -1,1.2 -0.8,0 -1,-0.34 -1.3,-0.84 z"
           inkscape:connector-curvature="0"
           style="fill:#000000;stroke-width:0" /></g>    </g>
    <g
       id="g6185"
       transform="matrix(0.25,0,0,0.25,-26.273614,478.85578)">
      <g
         id="g6187"
         transform="matrix(1.0629921,0,0,-1.0629921,-186.02362,789.27165)"
         xml:space="preserve"
         stroke-miterlimit="10.433"
         font-style="normal"
         font-variant="normal"
         font-weight="normal"
         font-stretch="normal"
         font-size-adjust="none"
         letter-spacing="normal"
         word-spacing="normal"
         style="font-style:normal;font-variant:normal;font-weight:normal;font-stretch:normal;letter-spacing:normal;word-spacing:normal;text-anchor:start;fill:none;stroke:#000000;stroke-width:4;stroke-linecap:butt;stroke-linejoin:miter;stroke-miterlimit:10.43299961;stroke-opacity:1;stroke-dasharray:none;stroke-dashoffset:0"><polygon
           points="1253.2,388.43 1235.2,388.43 1235.2,386.88 1253.2,386.88 "
           id="polygon6189"
           style="fill:#000000;stroke-width:0" /><path
           d="m 1227.9,350.33 -0.1,-0.18 0,-0.17 0,-0.16 -0.1,-0.15 0,-0.14 -0.1,-0.14 0,-0.13 -0.1,-0.12 0,-0.11 -0.1,-0.11 -0.1,-0.1 0,-0.09 -0.1,-0.08 -0.1,-0.08 -0.1,-0.08 -0.1,-0.06 -0.1,-0.06 -0.1,-0.06 -0.2,-0.05 -0.1,-0.05 -0.2,-0.04 -0.1,-0.01 0,-0.02 -0.1,-0.02 -0.1,-0.01 -0.1,-0.02 -0.1,-0.01 -0.1,-0.01 -0.2,-0.01 -0.1,-0.01 -0.1,-0.01 -0.1,-0.01 -0.2,-0.01 -0.1,-0.01 -0.1,0 -0.2,-0.01 -0.1,0 -0.2,0 -0.1,-0.01 -0.2,0 -0.2,0 -0.2,0 -0.1,0 c -0.9,0 -1.4,0 -1.4,-1 0,-0.55 0.5,-0.55 1.4,-0.55 h 17.7 c 7.9,0 13.8,5.88 13.8,10.77 0,3.58 -2.9,6.47 -7.7,7.01 5.2,0.96 10.4,4.64 10.4,9.38 0,3.69 -3.3,6.87 -9.3,6.87 l -0.7,-1.54 c 4.4,0 5.5,-2.94 5.5,-5.13 0,-4.39 -4.3,-9.12 -10.4,-9.12 h -7.3 l -0.3,-1.1 h 9.4 c 4.8,0 5.8,-3.69 5.8,-5.83 0,-4.93 -4.5,-9.76 -10.4,-9.76 h -6.7 c -0.7,0 -0.8,0 -1.1,0.05 -0.5,0.04 -0.7,0.09 -0.7,0.5 0,0.14 0,0.25 0.3,1.14 l 3.4,13.9 0.3,1.1 3.1,12.36 c 0.4,1.73 0.6,1.89 2.7,1.89 h 6.4 l 0.7,1.54 h -16.7 c -1,0 -1.5,0 -1.5,-1 0,-0.54 0.5,-0.54 1.4,-0.54 0.1,0 1.1,0 1.9,-0.1 0.9,-0.11 1.4,-0.15 1.4,-0.79 0,-0.21 -0.1,-0.36 -0.2,-0.96 z"
           id="path6191"
           inkscape:connector-curvature="0"
           style="fill:#000000;stroke-width:0" /></g>    </g>
    <g
       id="g6513"
       transform="matrix(0.25,0,0,0.25,-26.273614,420.16887)">
      <g
         word-spacing="normal"
         letter-spacing="normal"
         font-size-adjust="none"
         font-stretch="normal"
         font-weight="normal"
         font-variant="normal"
         font-style="normal"
         stroke-miterlimit="10.433"
         xml:space="preserve"
         transform="matrix(1.0629921,0,0,-1.0629921,-186.02362,789.27165)"
         id="g6515"
         style="font-style:normal;font-variant:normal;font-weight:normal;font-stretch:normal;letter-spacing:normal;word-spacing:normal;text-anchor:start;fill:none;stroke:#000000;stroke-width:4;stroke-linecap:butt;stroke-linejoin:miter;stroke-miterlimit:10.43299961;stroke-opacity:1;stroke-dasharray:none;stroke-dashoffset:0"><path
           id="path6517"
           d="m 1227.9,350.33 -0.1,-0.18 0,-0.17 0,-0.16 -0.1,-0.15 0,-0.14 -0.1,-0.14 0,-0.13 -0.1,-0.12 0,-0.11 -0.1,-0.11 -0.1,-0.1 0,-0.09 -0.1,-0.08 -0.1,-0.08 -0.1,-0.08 -0.1,-0.06 -0.1,-0.06 -0.1,-0.06 -0.2,-0.05 -0.1,-0.05 -0.2,-0.04 -0.1,-0.01 0,-0.02 -0.1,-0.02 -0.1,-0.01 -0.1,-0.02 -0.1,-0.01 -0.1,-0.01 -0.2,-0.01 -0.1,-0.01 -0.1,-0.01 -0.1,-0.01 -0.2,-0.01 -0.1,-0.01 -0.1,0 -0.2,-0.01 -0.1,0 -0.2,0 -0.1,-0.01 -0.2,0 -0.2,0 -0.2,0 -0.1,0 c -0.9,0 -1.4,0 -1.4,-1 0,-0.55 0.5,-0.55 1.4,-0.55 h 17.7 c 7.9,0 13.8,5.88 13.8,10.77 0,3.58 -2.9,6.47 -7.7,7.01 5.2,0.96 10.4,4.64 10.4,9.38 0,3.69 -3.3,6.87 -9.3,6.87 l -0.7,-1.54 c 4.4,0 5.5,-2.94 5.5,-5.13 0,-4.39 -4.3,-9.12 -10.4,-9.12 h -7.3 l -0.3,-1.1 h 9.4 c 4.8,0 5.8,-3.69 5.8,-5.83 0,-4.93 -4.5,-9.76 -10.4,-9.76 h -6.7 c -0.7,0 -0.8,0 -1.1,0.05 -0.5,0.04 -0.7,0.09 -0.7,0.5 0,0.14 0,0.25 0.3,1.14 l 3.4,13.9 0.3,1.1 3.1,12.36 c 0.4,1.73 0.6,1.89 2.7,1.89 h 6.4 l 0.7,1.54 h -16.7 c -1,0 -1.5,0 -1.5,-1 0,-0.54 0.5,-0.54 1.4,-0.54 0.1,0 1.1,0 1.9,-0.1 0.9,-0.11 1.4,-0.15 1.4,-0.79 0,-0.21 -0.1,-0.36 -0.2,-0.96 z"
           inkscape:connector-curvature="0"
           style="fill:#000000;stroke-width:0" /></g>    </g>
    <rect
       style="fill:none;stroke:#000000;stroke-width:1;stroke-linecap:round;stroke-linejoin:bevel;stroke-miterlimit:4;stroke-opacity:1;stroke-dasharray:none;stroke-dashoffset:0"
       id="rect5343-5"
       width="95.669289"
       height="56.692924"
       x="269.29135"
       y="552.75586" />
    <rect
       style="fill:none;stroke:#000000;stroke-width:1;stroke-linecap:round;stroke-linejoin:bevel;stroke-miterlimit:4;stroke-opacity:1;stroke-dasharray:none;stroke-dashoffset:0"
       id="rect5343-8"
       width="95.669289"
       height="56.692924"
       x="364.96063"
       y="552.75586" />
    <rect
       style="fill:none;stroke:#000000;stroke-width:1;stroke-linecap:round;stroke-linejoin:bevel;stroke-miterlimit:4;stroke-opacity:1;stroke-dasharray:none;stroke-dashoffset:0"
       id="rect5343-52"
       width="95.669289"
       height="56.692924"
       x="364.96063"
       y="496.06296" />
    <rect
       style="fill:none;stroke:#000000;stroke-width:1;stroke-linecap:round;stroke-linejoin:bevel;stroke-miterlimit:4;stroke-opacity:1;stroke-dasharray:none;stroke-dashoffset:0"
       id="rect5343-4"
       width="95.669289"
       height="56.692924"
       x="364.96063"
       y="439.37006" />
    <rect
       style="fill:none;stroke:#000000;stroke-width:1;stroke-linecap:round;stroke-linejoin:bevel;stroke-miterlimit:4;stroke-opacity:1;stroke-dasharray:none;stroke-dashoffset:0"
       id="rect5343-2"
       width="95.669289"
       height="56.692924"
       x="460.62991"
       y="439.37006" />
    <rect
       style="fill:none;stroke:#000000;stroke-width:1;stroke-linecap:round;stroke-linejoin:bevel;stroke-miterlimit:4;stroke-opacity:1;stroke-dasharray:none;stroke-dashoffset:0"
       id="rect5343-40"
       width="95.669289"
       height="56.692924"
       x="460.62991"
       y="496.06296" />
    <rect
       style="fill:none;stroke:#000000;stroke-width:1;stroke-linecap:round;stroke-linejoin:bevel;stroke-miterlimit:4;stroke-opacity:1;stroke-dasharray:none;stroke-dashoffset:0"
       id="rect5343-26"
       width="95.669289"
       height="56.692924"
       x="460.62991"
       y="552.75586" />
    <g
       id="g13408"
       transform="matrix(0.25,0,0,0.25,36.469496,421.97507)">
      <g
         id="g13410"
         transform="matrix(1.0629921,0,0,-1.0629921,-186.02362,789.27165)"
         xml:space="preserve"
         stroke-miterlimit="10.433"
         font-style="normal"
         font-variant="normal"
         font-weight="normal"
         font-stretch="normal"
         font-size-adjust="none"
         letter-spacing="normal"
         word-spacing="normal"
         style="font-style:normal;font-variant:normal;font-weight:normal;font-stretch:normal;letter-spacing:normal;word-spacing:normal;text-anchor:start;fill:none;stroke:#000000;stroke-width:4;stroke-linecap:butt;stroke-linejoin:miter;stroke-miterlimit:10.43299961;stroke-opacity:1;stroke-dasharray:none;stroke-dashoffset:0"><path
           d="m 1196.2,362.19 0.3,1.28 3.3,13.57 c 0.5,1.73 0.6,1.89 2.7,1.89 h 4.8 c 4.2,0 6.8,-1.35 6.8,-4.79 0,-1.95 -1,-6.23 -2.9,-8.03 -2.5,-2.23 -5.5,-2.64 -7.7,-2.64 h -7 l -0.3,-1.28 h 8.5 c 7.1,0 14,5.17 14,10.75 0,3.85 -3.3,7.53 -9.8,7.53 h -16.1 c -1,0 -1.5,0 -1.5,-0.95 0,-0.59 0.4,-0.59 1.4,-0.59 0.7,0 1.6,-0.05 2.2,-0.1 0.8,-0.11 1.1,-0.25 1.1,-0.79 0,-0.21 -0.1,-0.36 -0.2,-0.96 l -6.7,-26.75 c -0.5,-1.95 -0.6,-2.34 -4.5,-2.34 -0.9,0 -1.4,0 -1.4,-0.95 0,-0.6 0.6,-0.6 0.7,-0.6 1.4,0 4.9,0.16 6.3,0.16 1.1,0 2.2,-0.06 3.2,-0.06 1.1,0 2.2,-0.1 3.3,-0.1 0.3,0 0.9,0 0.9,1 0,0.55 -0.4,0.55 -1.4,0.55 -1.8,0 -3.2,0 -3.2,0.89 0,0.3 0.1,0.55 0.2,0.84 z"
           id="path13412"
           inkscape:connector-curvature="0"
           style="fill:#000000;stroke-width:0" /><path
           d="m 1236.6,334.49 0,0.02 0,0.03 0,0.01 0,0.02 0,0.01 0,0.02 0,0.02 0,0.01 0,0.02 0,0.02 0,0.03 0,0.02 0,0.02 -0.1,0.03 0,0.03 0,0.03 0,0.04 -0.1,0.03 0,0.02 0,0.02 0,0.02 0,0.02 -0.1,0.02 0,0.03 0,0.02 0,0.02 0,0.03 -0.1,0.03 0,0.02 0,0.03 0,0.03 -0.1,0.03 0,0.03 0,0.03 -0.1,0.03 0,0.03 0,0.04 -0.1,0.03 0,0.04 0,0.04 -0.1,0.03 0,0.04 c -6.2,6.28 -7.8,15.69 -7.8,23.31 0,8.68 1.9,17.35 8,23.57 0.6,0.61 0.6,0.7 0.6,0.86 0,0.34 -0.1,0.48 -0.4,0.48 -0.5,0 -5,-3.37 -8,-9.7 -2.5,-5.49 -3.1,-11.02 -3.1,-15.21 0,-3.89 0.5,-9.9 3.3,-15.54 3,-6.13 7.3,-9.36 7.8,-9.36 0.3,0 0.4,0.14 0.4,0.5 z"
           id="path13414"
           inkscape:connector-curvature="0"
           style="fill:#000000;stroke-width:0" /><path
           d="m 1247.4,350.33 0,-0.18 0,-0.17 -0.1,-0.16 0,-0.15 -0.1,-0.14 0,-0.14 -0.1,-0.13 0,-0.12 -0.1,-0.11 0,-0.11 -0.1,-0.1 -0.1,-0.09 0,-0.08 -0.1,-0.08 -0.1,-0.08 -0.1,-0.06 -0.1,-0.06 -0.2,-0.06 -0.1,-0.05 -0.2,-0.05 -0.1,-0.04 -0.1,-0.01 -0.1,-0.02 -0.1,-0.02 -0.1,-0.01 -0.1,-0.02 -0.1,-0.01 -0.1,-0.01 -0.1,-0.01 -0.1,-0.01 -0.2,-0.01 -0.1,-0.01 -0.1,-0.01 -0.1,-0.01 -0.2,0 -0.1,-0.01 -0.2,0 -0.1,0 -0.2,-0.01 -0.2,0 -0.1,0 -0.2,0 -0.2,0 c -0.8,0 -1.3,0 -1.3,-1 0,-0.55 0.4,-0.55 1.3,-0.55 h 17.8 c 7.9,0 13.7,5.88 13.7,10.77 0,3.58 -2.8,6.47 -7.7,7.01 5.2,0.96 10.5,4.64 10.5,9.38 0,3.69 -3.4,6.87 -9.3,6.87 l -0.7,-1.54 c 4.4,0 5.4,-2.94 5.4,-5.13 0,-4.39 -4.3,-9.12 -10.4,-9.12 h -7.2 l -0.3,-1.1 h 9.4 c 4.8,0 5.7,-3.69 5.7,-5.83 0,-4.93 -4.4,-9.76 -10.3,-9.76 h -6.8 c -0.7,0 -0.8,0 -1.1,0.05 -0.5,0.04 -0.6,0.09 -0.6,0.5 0,0.14 0,0.25 0.2,1.14 l 3.5,13.9 0.3,1.1 3.1,12.36 c 0.4,1.73 0.5,1.89 2.7,1.89 h 6.4 l 0.7,1.54 h -16.8 c -0.9,0 -1.4,0 -1.4,-1 0,-0.54 0.4,-0.54 1.4,-0.54 0.1,0 1,0 1.9,-0.1 0.9,-0.11 1.3,-0.15 1.3,-0.79 0,-0.21 0,-0.36 -0.2,-0.96 z"
           id="path13416"
           inkscape:connector-curvature="0"
           style="fill:#000000;stroke-width:0" /><path
           d="m 1294.2,358.89 0,0.38 0,0.38 0,0.39 0,0.41 -0.1,0.84 0,0.88 -0.1,0.92 -0.1,0.95 -0.2,0.98 -0.1,1 -0.2,1.02 -0.3,1.04 -0.2,1.05 -0.3,1.06 -0.4,1.06 -0.4,1.07 -0.2,0.53 -0.2,0.53 -0.2,0.53 -0.3,0.53 c -3,6.13 -7.3,9.36 -7.8,9.36 -0.3,0 -0.5,-0.19 -0.5,-0.48 0,-0.16 0,-0.25 1,-1.16 4.9,-4.92 7.7,-12.84 7.7,-23.27 0,-8.51 -1.8,-17.28 -8,-23.56 -0.7,-0.59 -0.7,-0.7 -0.7,-0.84 0,-0.3 0.2,-0.5 0.5,-0.5 0.5,0 5,3.39 8,9.72 2.5,5.47 3.1,11 3.1,15.18 z"
           id="path13418"
           inkscape:connector-curvature="0"
           style="fill:#000000;stroke-width:0" /></g>    </g>
    <g
       id="g13648"
       transform="matrix(0.25,0,0,0.25,36.522646,478.66799)">
      <g
         word-spacing="normal"
         letter-spacing="normal"
         font-size-adjust="none"
         font-stretch="normal"
         font-weight="normal"
         font-variant="normal"
         font-style="normal"
         stroke-miterlimit="10.433"
         xml:space="preserve"
         transform="matrix(1.0629921,0,0,-1.0629921,-186.02362,789.27165)"
         id="g13650"
         style="font-style:normal;font-variant:normal;font-weight:normal;font-stretch:normal;letter-spacing:normal;word-spacing:normal;text-anchor:start;fill:none;stroke:#000000;stroke-width:4;stroke-linecap:butt;stroke-linejoin:miter;stroke-miterlimit:10.43299961;stroke-opacity:1;stroke-dasharray:none;stroke-dashoffset:0"><path
           id="path13652"
           d="m 1196.2,362.19 0.3,1.28 3.3,13.57 c 0.5,1.73 0.6,1.89 2.7,1.89 h 4.8 c 4.2,0 6.8,-1.35 6.8,-4.79 0,-1.95 -1,-6.23 -2.9,-8.03 -2.5,-2.23 -5.5,-2.64 -7.7,-2.64 h -7 l -0.3,-1.28 h 8.5 c 7.1,0 14,5.17 14,10.75 0,3.85 -3.3,7.53 -9.8,7.53 h -16.1 c -1,0 -1.5,0 -1.5,-0.95 0,-0.59 0.4,-0.59 1.4,-0.59 0.7,0 1.6,-0.05 2.2,-0.1 0.8,-0.11 1.1,-0.25 1.1,-0.79 0,-0.21 -0.1,-0.36 -0.2,-0.96 l -6.7,-26.75 c -0.5,-1.95 -0.6,-2.34 -4.5,-2.34 -0.9,0 -1.4,0 -1.4,-0.95 0,-0.6 0.6,-0.6 0.7,-0.6 1.4,0 4.9,0.16 6.3,0.16 1.1,0 2.2,-0.06 3.2,-0.06 1.1,0 2.2,-0.1 3.3,-0.1 0.3,0 0.9,0 0.9,1 0,0.55 -0.4,0.55 -1.4,0.55 -1.8,0 -3.2,0 -3.2,0.89 0,0.3 0.1,0.55 0.2,0.84 z"
           inkscape:connector-curvature="0"
           style="fill:#000000;stroke-width:0" /><path
           id="path13654"
           d="m 1236.6,334.49 0,0.02 0,0.03 0,0.01 0,0.02 0,0.01 0,0.02 0,0.02 0,0.01 0,0.02 0,0.02 0,0.03 0,0.02 0,0.02 -0.1,0.03 0,0.03 0,0.03 0,0.04 -0.1,0.03 0,0.02 0,0.02 0,0.02 0,0.02 -0.1,0.02 0,0.03 0,0.02 0,0.02 0,0.03 -0.1,0.03 0,0.02 0,0.03 0,0.03 -0.1,0.03 0,0.03 0,0.03 -0.1,0.03 0,0.03 0,0.04 -0.1,0.03 0,0.04 0,0.04 -0.1,0.03 0,0.04 c -6.2,6.28 -7.8,15.69 -7.8,23.31 0,8.68 1.9,17.35 8,23.57 0.6,0.61 0.6,0.7 0.6,0.86 0,0.34 -0.1,0.48 -0.4,0.48 -0.5,0 -5,-3.37 -8,-9.7 -2.5,-5.49 -3.1,-11.02 -3.1,-15.21 0,-3.89 0.5,-9.9 3.3,-15.54 3,-6.13 7.3,-9.36 7.8,-9.36 0.3,0 0.4,0.14 0.4,0.5 z"
           inkscape:connector-curvature="0"
           style="fill:#000000;stroke-width:0" /><polygon
           id="polygon13656"
           points="1254.7,386.88 1272.7,386.88 1272.7,388.43 1254.7,388.43 "
           style="fill:#000000;stroke-width:0" /><path
           id="path13658"
           d="m 1247.4,350.33 0,-0.18 0,-0.17 -0.1,-0.16 0,-0.15 -0.1,-0.14 0,-0.14 -0.1,-0.13 0,-0.12 -0.1,-0.11 0,-0.11 -0.1,-0.1 -0.1,-0.09 0,-0.08 -0.1,-0.08 -0.1,-0.08 -0.1,-0.06 -0.1,-0.06 -0.2,-0.06 -0.1,-0.05 -0.1,-0.05 -0.2,-0.04 -0.1,-0.01 -0.1,-0.02 -0.1,-0.02 -0.1,-0.01 -0.1,-0.02 -0.1,-0.01 -0.1,-0.01 -0.1,-0.01 -0.1,-0.01 -0.1,-0.01 -0.2,-0.01 -0.1,-0.01 -0.1,-0.01 -0.2,0 -0.1,-0.01 -0.2,0 -0.1,0 -0.2,-0.01 -0.2,0 -0.1,0 -0.2,0 -0.2,0 c -0.8,0 -1.3,0 -1.3,-1 0,-0.55 0.4,-0.55 1.3,-0.55 h 17.8 c 7.9,0 13.7,5.88 13.7,10.77 0,3.58 -2.8,6.47 -7.7,7.01 5.2,0.96 10.5,4.64 10.5,9.38 0,3.69 -3.3,6.87 -9.3,6.87 l -0.7,-1.54 c 4.4,0 5.4,-2.94 5.4,-5.13 0,-4.39 -4.3,-9.12 -10.4,-9.12 h -7.2 l -0.3,-1.1 h 9.4 c 4.8,0 5.7,-3.69 5.7,-5.83 0,-4.93 -4.4,-9.76 -10.3,-9.76 h -6.8 c -0.7,0 -0.8,0 -1.1,0.05 -0.5,0.04 -0.6,0.09 -0.6,0.5 0,0.14 0,0.25 0.2,1.14 l 3.5,13.9 0.3,1.1 3.1,12.36 c 0.4,1.73 0.5,1.89 2.7,1.89 h 6.4 l 0.7,1.54 h -16.8 c -0.9,0 -1.4,0 -1.4,-1 0,-0.54 0.4,-0.54 1.4,-0.54 0.1,0 1,0 1.9,-0.1 0.9,-0.11 1.3,-0.15 1.3,-0.79 0,-0.21 0,-0.36 -0.2,-0.96 z"
           inkscape:connector-curvature="0"
           style="fill:#000000;stroke-width:0" /><path
           id="path13660"
           d="m 1294.1,358.89 0,0.38 0,0.38 0,0.39 -0.1,0.41 0,0.84 -0.1,0.88 0,0.92 -0.1,0.95 -0.2,0.98 -0.1,1 -0.2,1.02 -0.3,1.04 -0.2,1.05 -0.3,1.06 -0.4,1.06 -0.4,1.07 -0.2,0.53 -0.2,0.53 -0.3,0.53 -0.2,0.53 c -3,6.13 -7.3,9.36 -7.8,9.36 -0.3,0 -0.5,-0.19 -0.5,-0.48 0,-0.16 0,-0.25 1,-1.16 4.8,-4.92 7.7,-12.84 7.7,-23.27 0,-8.51 -1.9,-17.28 -8,-23.56 -0.7,-0.59 -0.7,-0.7 -0.7,-0.84 0,-0.3 0.2,-0.5 0.5,-0.5 0.5,0 5,3.39 7.9,9.72 2.6,5.47 3.2,11 3.2,15.18 z"
           inkscape:connector-curvature="0"
           style="fill:#000000;stroke-width:0" /></g>    </g>
  </g>
</svg>
