<?xml version="1.0" encoding="UTF-8" standalone="no"?>
<!-- Created with Inkscape (http://www.inkscape.org/) -->

<svg
   xmlns:dc="http://purl.org/dc/elements/1.1/"
   xmlns:cc="http://creativecommons.org/ns#"
   xmlns:rdf="http://www.w3.org/1999/02/22-rdf-syntax-ns#"
   xmlns:svg="http://www.w3.org/2000/svg"
   xmlns="http://www.w3.org/2000/svg"
   xmlns:sodipodi="http://sodipodi.sourceforge.net/DTD/sodipodi-0.dtd"
   xmlns:inkscape="http://www.inkscape.org/namespaces/inkscape"
   width="210mm"
   height="297mm"
   id="svg2"
   version="1.1"
   inkscape:version="0.48.4 r9939"
   sodipodi:docname="adc.svg">
  <sodipodi:namedview
     id="base"
     pagecolor="#ffffff"
     bordercolor="#666666"
     borderopacity="1.0"
     inkscape:pageopacity="0.0"
     inkscape:pageshadow="2"
     inkscape:zoom="2.0000001"
     inkscape:cx="415.83885"
     inkscape:cy="588.16859"
     inkscape:document-units="px"
     inkscape:current-layer="layer1"
     showgrid="true"
     inkscape:window-width="1918"
     inkscape:window-height="1059"
     inkscape:window-x="0"
     inkscape:window-y="19"
     inkscape:window-maximized="1"
     inkscape:snap-global="true"
     inkscape:snap-bbox="true"
     inkscape:object-paths="false"
     inkscape:object-nodes="false"
     inkscape:snap-smooth-nodes="false"
     inkscape:snap-midpoints="false"
     inkscape:snap-object-midpoints="false"
     inkscape:snap-intersection-paths="true"
     inkscape:snap-center="true">
    <inkscape:grid
       type="xygrid"
       id="grid2985"
       empspacing="5"
       visible="true"
       enabled="true"
       snapvisiblegridlinesonly="true"
       units="mm"
       spacingx="1mm"
       spacingy="1mm" />
    <inkscape:grid
       opacity="0.1254902"
       color="#ff0000"
       spacingy="0.5mm"
       spacingx="0.5mm"
       units="mm"
       snapvisiblegridlinesonly="true"
       enabled="true"
       visible="false"
       empspacing="5"
       id="grid9087"
       type="xygrid" />
  </sodipodi:namedview>
  <defs
     id="defs4">
    <marker
       inkscape:stockid="TriangleOutL"
       orient="auto"
       refY="0.0"
       refX="0.0"
       id="TriangleOutL"
       style="overflow:visible">
      <path
         id="path4628"
         d="M 5.77,0.0 L -2.88,5.0 L -2.88,-5.0 L 5.77,0.0 z "
         style="fill-rule:evenodd;stroke:#000000;stroke-width:1.0pt"
         transform="scale(0.8)" />
    </marker>
    <marker
       inkscape:stockid="TriangleOutM"
       orient="auto"
       refY="0.0"
       refX="0.0"
       id="TriangleOutM"
       style="overflow:visible">
      <path
         id="path4631"
         d="M 5.77,0.0 L -2.88,5.0 L -2.88,-5.0 L 5.77,0.0 z "
         style="fill-rule:evenodd;stroke:#000000;stroke-width:1.0pt"
         transform="scale(0.4)" />
    </marker>
    <marker
       style="overflow:visible;"
       id="Arrow1Send"
       refX="0.0"
       refY="0.0"
       orient="auto"
       inkscape:stockid="Arrow1Send">
      <path
         transform="scale(0.2) rotate(180) translate(6,0)"
         style="fill-rule:evenodd;stroke:#000000;stroke-width:1.0pt;"
         d="M 0.0,0.0 L 5.0,-5.0 L -12.5,0.0 L 5.0,5.0 L 0.0,0.0 z "
         id="path6070" />
    </marker>
    <marker
       style="overflow:visible;"
       id="Arrow2Mend"
       refX="0.0"
       refY="0.0"
       orient="auto"
       inkscape:stockid="Arrow2Mend">
      <path
         transform="scale(0.6) rotate(180) translate(0,0)"
         d="M 8.7185878,4.0337352 L -2.2072895,0.016013256 L 8.7185884,-4.0017078 C 6.9730900,-1.6296469 6.9831476,1.6157441 8.7185878,4.0337352 z "
         style="fill-rule:evenodd;stroke-width:0.62500000;stroke-linejoin:round;"
         id="path6082" />
    </marker>
    <marker
       style="overflow:visible"
       id="Arrow1Sstart"
       refX="0.0"
       refY="0.0"
       orient="auto"
       inkscape:stockid="Arrow1Sstart">
      <path
         transform="scale(0.2) translate(6,0)"
         style="fill-rule:evenodd;stroke:#000000;stroke-width:1.0pt"
         d="M 0.0,0.0 L 5.0,-5.0 L -12.5,0.0 L 5.0,5.0 L 0.0,0.0 z "
         id="path6067" />
    </marker>
    <marker
       style="overflow:visible"
       id="Arrow1Mstart"
       refX="0.0"
       refY="0.0"
       orient="auto"
       inkscape:stockid="Arrow1Mstart">
      <path
         transform="scale(0.4) translate(10,0)"
         style="fill-rule:evenodd;stroke:#000000;stroke-width:1.0pt"
         d="M 0.0,0.0 L 5.0,-5.0 L -12.5,0.0 L 5.0,5.0 L 0.0,0.0 z "
         id="path6061" />
    </marker>
    <marker
       inkscape:stockid="Arrow1Mend"
       orient="auto"
       refY="0.0"
       refX="0.0"
       id="Arrow1Mend"
       style="overflow:visible;">
      <path
         id="path3772"
         d="M 0.0,0.0 L 5.0,-5.0 L -12.5,0.0 L 5.0,5.0 L 0.0,0.0 z "
         style="fill-rule:evenodd;stroke:#000000;stroke-width:1.0pt;"
         transform="scale(0.4) rotate(180) translate(10,0)" />
    </marker>
    <marker
       inkscape:stockid="Arrow1Lend"
       orient="auto"
       refY="0.0"
       refX="0.0"
       id="Arrow1Lend"
       style="overflow:visible;">
      <path
         id="path3766"
         d="M 0.0,0.0 L 5.0,-5.0 L -12.5,0.0 L 5.0,5.0 L 0.0,0.0 z "
         style="fill-rule:evenodd;stroke:#000000;stroke-width:1.0pt;"
         transform="scale(0.8) rotate(180) translate(12.5,0)" />
    </marker>
    <marker
       inkscape:stockid="Arrow1Mend"
       orient="auto"
       refY="0"
       refX="0"
       id="Arrow1Mend-7"
       style="overflow:visible">
      <path
         id="path3772-4"
         d="M 0,0 5,-5 -12.5,0 5,5 0,0 z"
         style="fill-rule:evenodd;stroke:#000000;stroke-width:1pt"
         transform="matrix(-0.4,0,0,-0.4,-4,0)"
         inkscape:connector-curvature="0" />
    </marker>
    <marker
       inkscape:stockid="Arrow1Mend"
       orient="auto"
       refY="0"
       refX="0"
       id="Arrow1Mend-6"
       style="overflow:visible">
      <path
         id="path3772-0"
         d="M 0,0 5,-5 -12.5,0 5,5 0,0 z"
         style="fill-rule:evenodd;stroke:#000000;stroke-width:1pt"
         transform="matrix(-0.4,0,0,-0.4,-4,0)"
         inkscape:connector-curvature="0" />
    </marker>
    <marker
       inkscape:stockid="Arrow1Mend"
       orient="auto"
       refY="0"
       refX="0"
       id="Arrow1Mend-5"
       style="overflow:visible">
      <path
         id="path3772-6"
         d="M 0,0 5,-5 -12.5,0 5,5 0,0 z"
         style="fill-rule:evenodd;stroke:#000000;stroke-width:1pt"
         transform="matrix(-0.4,0,0,-0.4,-4,0)"
         inkscape:connector-curvature="0" />
    </marker>
    <marker
       inkscape:stockid="Arrow1Mend"
       orient="auto"
       refY="0"
       refX="0"
       id="marker3616"
       style="overflow:visible">
      <path
         id="path3618"
         d="M 0,0 5,-5 -12.5,0 5,5 0,0 z"
         style="fill-rule:evenodd;stroke:#000000;stroke-width:1pt"
         transform="matrix(-0.4,0,0,-0.4,-4,0)"
         inkscape:connector-curvature="0" />
    </marker>
  </defs>
  <metadata
     id="metadata7">
    <rdf:RDF>
      <cc:Work
         rdf:about="">
        <dc:format>image/svg+xml</dc:format>
        <dc:type
           rdf:resource="http://purl.org/dc/dcmitype/StillImage" />
        <dc:title />
      </cc:Work>
    </rdf:RDF>
  </metadata>
  <g
     inkscape:label="Ebene 1"
     inkscape:groupmode="layer"
     id="layer1">
    <text
       xml:space="preserve"
       style="font-size:10px;font-style:normal;font-weight:normal;line-height:100%;letter-spacing:0px;word-spacing:0px;fill:#000000;fill-opacity:1;stroke:none;font-family:Sans"
       x="320.71429"
       y="313.79074"
       id="text4581"
       sodipodi:linespacing="100%"><tspan
         sodipodi:role="line"
         id="tspan4583"
         x="320.71429"
         y="313.79074" /></text>
    <text
       xml:space="preserve"
       style="font-size:32px;font-style:normal;font-weight:normal;line-height:100%;letter-spacing:0px;word-spacing:0px;fill:#000000;fill-opacity:1;stroke:none;font-family:Sans"
       x="405.87927"
       y="530.5174"
       id="text3987"
       sodipodi:linespacing="100%"><tspan
         sodipodi:role="line"
         id="tspan3989"
         x="405.87927"
         y="530.5174" /></text>
    <path
       inkscape:connector-curvature="0"
       id="path3584"
       d="m 549.2126,361.4173 31.88976,0"
       style="fill:none;stroke:#000000;stroke-width:0.99999994px;stroke-linecap:butt;stroke-linejoin:miter;stroke-opacity:1" />
    <path
       inkscape:connector-curvature="0"
       id="path3584-0"
       d="m 549.2126,379.13384 31.88976,0"
       style="fill:none;stroke:#000000;stroke-width:0.99999994px;stroke-linecap:butt;stroke-linejoin:miter;stroke-opacity:1" />
    <path
       inkscape:connector-curvature="0"
       id="path3584-8"
       d="m 549.2126,396.85037 31.88976,0"
       style="fill:none;stroke:#000000;stroke-width:0.99999994px;stroke-linecap:butt;stroke-linejoin:miter;stroke-opacity:1" />
    <path
       inkscape:connector-curvature="0"
       id="path3584-1"
       d="m 549.2126,414.56691 31.88976,0"
       style="fill:none;stroke:#000000;stroke-width:0.99999994px;stroke-linecap:butt;stroke-linejoin:miter;stroke-opacity:1" />
    <path
       inkscape:connector-curvature="0"
       id="path3584-6"
       d="m 549.2126,432.28344 31.88976,0"
       style="fill:none;stroke:#000000;stroke-width:0.99999994px;stroke-linecap:butt;stroke-linejoin:miter;stroke-opacity:1" />
    <path
       inkscape:connector-curvature="0"
       id="path3584-2"
       d="m 549.2126,449.99998 31.88976,0"
       style="fill:none;stroke:#000000;stroke-width:0.99999994px;stroke-linecap:butt;stroke-linejoin:miter;stroke-opacity:1" />
    <path
       inkscape:connector-curvature="0"
       id="path3584-07"
       d="m 549.2126,467.71652 31.88976,0"
       style="fill:none;stroke:#000000;stroke-width:0.99999994px;stroke-linecap:butt;stroke-linejoin:miter;stroke-opacity:1" />
    <path
       inkscape:connector-curvature="0"
       id="path3584-3"
       d="m 549.2126,485.43305 31.88976,0"
       style="fill:none;stroke:#000000;stroke-width:0.99999994px;stroke-linecap:butt;stroke-linejoin:miter;stroke-opacity:1" />
    <path
       inkscape:connector-curvature="0"
       id="path3646"
       d="m 549.2126,343.70077 0,159.44881 -70.86614,0 0,-159.44881 70.86614,0"
       style="fill:none;stroke:#000000;stroke-width:1px;stroke-linecap:butt;stroke-linejoin:miter;stroke-opacity:1" />
    <path
       inkscape:connector-curvature="0"
       id="path3648"
       d="m 478.34648,485.43305 -35.43308,0 0,35.43307"
       style="fill:none;stroke:#000000;stroke-width:1px;stroke-linecap:butt;stroke-linejoin:miter;stroke-opacity:1" />
    <path
       inkscape:connector-curvature="0"
       id="path3650"
       d="m 432.28347,520.86612 21.25984,0"
       style="fill:none;stroke:#000000;stroke-width:1px;stroke-linecap:butt;stroke-linejoin:miter;stroke-opacity:1" />
    <path
       inkscape:connector-curvature="0"
       id="path3652"
       d="m 478.34646,449.99998 -31.88976,0"
       style="fill:none;stroke:#000000;stroke-width:1px;stroke-linecap:butt;stroke-linejoin:miter;stroke-opacity:1" />
    <path
       d="m 446.4567,449.99997 a 3.5433071,3.5433071 0 1 1 -7.08662,0 3.5433071,3.5433071 0 1 1 7.08662,0 z"
       sodipodi:ry="3.5433071"
       sodipodi:rx="3.5433071"
       sodipodi:cy="449.99997"
       sodipodi:cx="442.91339"
       id="path4946"
       style="stroke-width:1;stroke-linecap:round;stroke-linejoin:miter;stroke-miterlimit:4;stroke-dasharray:none;stroke-dashoffset:0;fill:none;stroke:#000000;stroke-opacity:1"
       sodipodi:type="arc" />
    <path
       d="m 446.4567,449.99997 a 3.5433071,3.5433071 0 1 1 -7.08662,0 3.5433071,3.5433071 0 1 1 7.08662,0 z"
       sodipodi:ry="3.5433071"
       sodipodi:rx="3.5433071"
       sodipodi:cy="449.99997"
       sodipodi:cx="442.91339"
       id="path4946-6"
       style="fill:none;stroke:#000000;stroke-width:1;stroke-linecap:round;stroke-linejoin:miter;stroke-miterlimit:4;stroke-opacity:1;stroke-dasharray:none;stroke-dashoffset:0"
       sodipodi:type="arc"
       transform="translate(141.73228,-88.582677)" />
    <path
       d="m 446.4567,449.99997 a 3.5433071,3.5433071 0 1 1 -7.08662,0 3.5433071,3.5433071 0 1 1 7.08662,0 z"
       sodipodi:ry="3.5433071"
       sodipodi:rx="3.5433071"
       sodipodi:cy="449.99997"
       sodipodi:cx="442.91339"
       id="path4946-63"
       style="fill:none;stroke:#000000;stroke-width:1;stroke-linecap:round;stroke-linejoin:miter;stroke-miterlimit:4;stroke-opacity:1;stroke-dasharray:none;stroke-dashoffset:0"
       sodipodi:type="arc"
       transform="translate(141.73228,-70.866142)" />
    <path
       d="m 446.4567,449.99997 a 3.5433071,3.5433071 0 1 1 -7.08662,0 3.5433071,3.5433071 0 1 1 7.08662,0 z"
       sodipodi:ry="3.5433071"
       sodipodi:rx="3.5433071"
       sodipodi:cy="449.99997"
       sodipodi:cx="442.91339"
       id="path4946-9"
       style="fill:none;stroke:#000000;stroke-width:1;stroke-linecap:round;stroke-linejoin:miter;stroke-miterlimit:4;stroke-opacity:1;stroke-dasharray:none;stroke-dashoffset:0"
       sodipodi:type="arc"
       transform="translate(141.73228,-53.149606)" />
    <path
       d="m 446.4567,449.99997 a 3.5433071,3.5433071 0 1 1 -7.08662,0 3.5433071,3.5433071 0 1 1 7.08662,0 z"
       sodipodi:ry="3.5433071"
       sodipodi:rx="3.5433071"
       sodipodi:cy="449.99997"
       sodipodi:cx="442.91339"
       id="path4946-69"
       style="fill:none;stroke:#000000;stroke-width:1;stroke-linecap:round;stroke-linejoin:miter;stroke-miterlimit:4;stroke-opacity:1;stroke-dasharray:none;stroke-dashoffset:0"
       sodipodi:type="arc"
       transform="translate(141.73228,-35.433071)" />
    <path
       d="m 446.4567,449.99997 a 3.5433071,3.5433071 0 1 1 -7.08662,0 3.5433071,3.5433071 0 1 1 7.08662,0 z"
       sodipodi:ry="3.5433071"
       sodipodi:rx="3.5433071"
       sodipodi:cy="449.99997"
       sodipodi:cx="442.91339"
       id="path4946-8"
       style="fill:none;stroke:#000000;stroke-width:1;stroke-linecap:round;stroke-linejoin:miter;stroke-miterlimit:4;stroke-opacity:1;stroke-dasharray:none;stroke-dashoffset:0"
       sodipodi:type="arc"
       transform="translate(141.73228,-17.716535)" />
    <path
       d="m 446.4567,449.99997 a 3.5433071,3.5433071 0 1 1 -7.08662,0 3.5433071,3.5433071 0 1 1 7.08662,0 z"
       sodipodi:ry="3.5433071"
       sodipodi:rx="3.5433071"
       sodipodi:cy="449.99997"
       sodipodi:cx="442.91339"
       id="path4946-80"
       style="fill:none;stroke:#000000;stroke-width:1;stroke-linecap:round;stroke-linejoin:miter;stroke-miterlimit:4;stroke-opacity:1;stroke-dasharray:none;stroke-dashoffset:0"
       sodipodi:type="arc"
       transform="translate(141.73228,2.0072935e-7)" />
    <path
       d="m 446.4567,449.99997 a 3.5433071,3.5433071 0 1 1 -7.08662,0 3.5433071,3.5433071 0 1 1 7.08662,0 z"
       sodipodi:ry="3.5433071"
       sodipodi:rx="3.5433071"
       sodipodi:cy="449.99997"
       sodipodi:cx="442.91339"
       id="path4946-7"
       style="fill:none;stroke:#000000;stroke-width:1;stroke-linecap:round;stroke-linejoin:miter;stroke-miterlimit:4;stroke-opacity:1;stroke-dasharray:none;stroke-dashoffset:0"
       sodipodi:type="arc"
       transform="translate(141.73228,17.716536)" />
    <path
       d="m 446.4567,449.99997 a 3.5433071,3.5433071 0 1 1 -7.08662,0 3.5433071,3.5433071 0 1 1 7.08662,0 z"
       sodipodi:ry="3.5433071"
       sodipodi:rx="3.5433071"
       sodipodi:cy="449.99997"
       sodipodi:cx="442.91339"
       id="path4946-1"
       style="fill:none;stroke:#000000;stroke-width:1;stroke-linecap:round;stroke-linejoin:miter;stroke-miterlimit:4;stroke-opacity:1;stroke-dasharray:none;stroke-dashoffset:0"
       sodipodi:type="arc"
       transform="translate(141.73228,35.433071)" />
    <g
       id="g5131"
       transform="matrix(0.27,0,0,0.27,233.17761,375.53773)">
      <g
         word-spacing="normal"
         letter-spacing="normal"
         font-size-adjust="none"
         font-stretch="normal"
         font-weight="normal"
         font-variant="normal"
         font-style="normal"
         stroke-miterlimit="10.433"
         xml:space="preserve"
         transform="matrix(1.0629921,0,0,-1.0629921,-186.02362,789.27165)"
         id="g5133"
         style="font-style:normal;font-variant:normal;font-weight:normal;font-stretch:normal;letter-spacing:normal;word-spacing:normal;text-anchor:start;fill:none;stroke:#000000;stroke-width:3.70370364;stroke-linecap:butt;stroke-linejoin:miter;stroke-miterlimit:10.43299961;stroke-opacity:1;stroke-dasharray:none;stroke-dashoffset:0"><path
           id="path5135"
           d="m 1230.1,380.47 0,0.01 0,0 0,0.01 0,0.01 0,0.01 0,0.01 0,0.02 0,0.02 0,0.02 0,0.02 0,0.02 0,0.02 0,0.03 0,0.02 0,0.02 0,0.03 0,0.02 -0.1,0.03 0,0.02 0,0.03 0,0.02 0,0.01 0,0.01 -0.1,0.01 0,0.01 0,0.01 0,0.01 0,0.01 0,0.01 0,0.01 -0.1,0.01 0,0.01 0,0 0,0.01 0,0.01 -0.1,0 0,0.01 0,0 0,0.01 -0.1,0 0,0 0,0.01 0,0 -0.1,0 0,0 c -1.2,0 -4.8,-0.41 -6.1,-0.5 -0.4,-0.05 -0.9,-0.09 -0.9,-1 0,-0.59 0.4,-0.59 1.2,-0.59 2.4,0 2.5,-0.35 2.5,-0.85 0,-0.36 -0.5,-2.04 -0.7,-3.09 l -4.1,-16.24 c -0.6,-2.5 -0.8,-3.29 -0.8,-5.03 0,-4.73 2.6,-7.83 6.3,-7.83 v 1.1 c -1.7,0 -3.3,1.34 -3.3,5.03 0,0.95 0,1.89 0.8,5.03 l 1.1,4.59 c 0.3,1.1 0.3,1.19 0.7,1.74 2.4,3.23 4.7,3.98 6,3.98 1.8,0 3.1,-1.48 3.1,-4.68 0,-2.94 -1.6,-8.66 -2.5,-10.57 -1.7,-3.32 -4,-5.12 -5.9,-5.12 v -1.1 c 5.9,0 12,7.43 12,14.6 0,4.53 -2.6,7.97 -6.6,7.97 -2.3,0 -4.3,-1.44 -5.8,-2.99 z"
           inkscape:connector-curvature="0"
           style="fill:#000000;stroke-width:0" /><path
           id="path5137"
           d="m 1257.6,349.99 0,0.36 0,0.35 0,0.68 -0.1,0.66 0,0.64 -0.1,0.62 0,0.59 -0.1,0.58 -0.1,0.56 -0.2,0.55 -0.1,0.52 -0.2,0.52 -0.2,0.5 -0.2,0.49 -0.2,0.48 -0.3,0.47 -0.1,0.23 -0.2,0.23 c -1.1,1.61 -3.2,3 -6,3 -8.1,0 -8.1,-9.52 -8.1,-12.03 0,-2.5 0,-11.81 8.1,-11.81 v 0.98 c -1.6,0 -3.7,0.94 -4.4,3.8 -0.5,2.04 -0.5,4.9 -0.5,7.48 0,2.55 0,5.2 0.5,7.11 0.7,2.75 3,3.49 4.4,3.49 1.9,0 3.7,-1.15 4.3,-3.18 0.6,-1.87 0.6,-4.39 0.6,-7.42 0,-2.58 0,-5.15 -0.4,-7.34 -0.7,-3.17 -3.1,-3.94 -4.5,-3.94 h 0 v -0.98 c 8.1,0 8.1,9.31 8.1,11.81 z"
           inkscape:connector-curvature="0"
           style="fill:#000000;stroke-width:0" /></g>    </g>
    <g
       transform="matrix(0.27,0,0,0.27,233.39286,357.92165)"
       id="g5355">
      <g
         style="font-style:normal;font-variant:normal;font-weight:normal;font-stretch:normal;letter-spacing:normal;word-spacing:normal;text-anchor:start;fill:none;stroke:#000000;stroke-width:3.70370364;stroke-linecap:butt;stroke-linejoin:miter;stroke-miterlimit:10.43299961;stroke-opacity:1;stroke-dasharray:none;stroke-dashoffset:0"
         id="g5357"
         transform="matrix(1.0629921,0,0,-1.0629921,-186.02362,789.27165)"
         xml:space="preserve"
         stroke-miterlimit="10.433"
         font-style="normal"
         font-variant="normal"
         font-weight="normal"
         font-stretch="normal"
         font-size-adjust="none"
         letter-spacing="normal"
         word-spacing="normal"><path
           style="fill:#000000;stroke-width:0"
           inkscape:connector-curvature="0"
           d="m 1230.1,380.47 0,0.01 0,0 0,0.01 0,0.01 0,0.01 0,0.01 0,0.02 0,0.02 0,0.02 0,0.02 0,0.02 0,0.02 0,0.03 0,0.02 0,0.02 0,0.03 0,0.02 -0.1,0.03 0,0.02 0,0.03 0,0.02 0,0.01 0,0.01 -0.1,0.01 0,0.01 0,0.01 0,0.01 0,0.01 0,0.01 0,0.01 -0.1,0.01 0,0.01 0,0 0,0.01 0,0.01 -0.1,0 0,0.01 0,0 0,0.01 -0.1,0 0,0 0,0.01 0,0 -0.1,0 0,0 c -1.2,0 -4.8,-0.41 -6.1,-0.5 -0.4,-0.05 -0.9,-0.09 -0.9,-1 0,-0.59 0.4,-0.59 1.2,-0.59 2.4,0 2.5,-0.35 2.5,-0.85 0,-0.36 -0.5,-2.04 -0.7,-3.09 l -4.1,-16.24 c -0.6,-2.5 -0.8,-3.29 -0.8,-5.03 0,-4.73 2.6,-7.83 6.3,-7.83 v 1.1 c -1.7,0 -3.3,1.34 -3.3,5.03 0,0.95 0,1.89 0.8,5.03 l 1.1,4.59 c 0.3,1.1 0.3,1.19 0.7,1.74 2.4,3.23 4.7,3.98 6,3.98 1.8,0 3.1,-1.48 3.1,-4.68 0,-2.94 -1.6,-8.66 -2.5,-10.57 -1.7,-3.32 -4,-5.12 -5.9,-5.12 v -1.1 c 5.9,0 12,7.43 12,14.6 0,4.53 -2.6,7.97 -6.6,7.97 -2.3,0 -4.3,-1.44 -5.8,-2.99 z"
           id="path5359" /><path
           style="fill:#000000;stroke-width:0"
           inkscape:connector-curvature="0"
           d="m 1251.3,361.04 0,0.04 0,0.04 0,0.04 0,0.04 0,0.04 0,0.04 0,0.04 0,0.03 0,0.03 0,0.04 0,0.03 0,0.03 0,0.03 0,0.03 -0.1,0.02 0,0.03 0,0.03 0,0.02 0,0.02 0,0.03 0,0.04 0,0.04 0,0.03 0,0.03 -0.1,0.03 0,0.02 0,0.03 0,0.02 -0.1,0.01 0,0.02 -0.1,0.01 0,0.01 0,0.01 0,0 -0.1,0.01 0,0 0,0 0,0.01 -0.1,0 0,0 0,0 -0.1,0 0,0.01 0,0 -0.1,0 0,0 -0.1,0 0,0 0,0 -0.1,0 0,0 -0.1,0 c -2.2,-2.2 -5.4,-2.23 -6.8,-2.23 v -1.25 c 0.8,0 3.1,0 5,0.96 v -17.76 c 0,-1.16 0,-1.61 -3.4,-1.61 h -1.3 v -1.25 c 0.6,0.03 4.9,0.14 6.1,0.14 1.1,0 5.5,-0.11 6.3,-0.14 v 1.25 h -1.3 c -3.5,0 -3.5,0.45 -3.5,1.61 z"
           id="path5361" /></g>    </g>
    <g
       transform="matrix(0.27,0,0,0.27,233.23501,340.20511)"
       id="g5587">
      <g
         style="font-style:normal;font-variant:normal;font-weight:normal;font-stretch:normal;letter-spacing:normal;word-spacing:normal;text-anchor:start;fill:none;stroke:#000000;stroke-width:3.70370364;stroke-linecap:butt;stroke-linejoin:miter;stroke-miterlimit:10.43299961;stroke-opacity:1;stroke-dasharray:none;stroke-dashoffset:0"
         word-spacing="normal"
         letter-spacing="normal"
         font-size-adjust="none"
         font-stretch="normal"
         font-weight="normal"
         font-variant="normal"
         font-style="normal"
         stroke-miterlimit="10.433"
         xml:space="preserve"
         transform="matrix(1.0629921,0,0,-1.0629921,-186.02362,789.27165)"
         id="g5589"><path
           style="fill:#000000;stroke-width:0"
           inkscape:connector-curvature="0"
           id="path5591"
           d="m 1230.1,380.47 0,0.01 0,0 0,0.01 0,0.01 0,0.01 0,0.01 0,0.02 0,0.02 0,0.02 0,0.02 0,0.02 0,0.02 0,0.03 0,0.02 0,0.02 0,0.03 0,0.02 -0.1,0.03 0,0.02 0,0.03 0,0.02 0,0.01 0,0.01 -0.1,0.01 0,0.01 0,0.01 0,0.01 0,0.01 0,0.01 0,0.01 -0.1,0.01 0,0.01 0,0 0,0.01 0,0.01 -0.1,0 0,0.01 0,0 0,0.01 -0.1,0 0,0 0,0.01 0,0 -0.1,0 0,0 c -1.2,0 -4.8,-0.41 -6.1,-0.5 -0.4,-0.05 -0.9,-0.09 -0.9,-1 0,-0.59 0.4,-0.59 1.2,-0.59 2.4,0 2.5,-0.35 2.5,-0.85 0,-0.36 -0.5,-2.04 -0.7,-3.09 l -4.1,-16.24 c -0.6,-2.5 -0.8,-3.29 -0.8,-5.03 0,-4.73 2.6,-7.83 6.3,-7.83 v 1.1 c -1.7,0 -3.3,1.34 -3.3,5.03 0,0.95 0,1.89 0.8,5.03 l 1.1,4.59 c 0.3,1.1 0.3,1.19 0.7,1.74 2.4,3.23 4.7,3.98 6,3.98 1.8,0 3.1,-1.48 3.1,-4.68 0,-2.94 -1.6,-8.66 -2.5,-10.57 -1.7,-3.32 -4,-5.12 -5.9,-5.12 v -1.1 c 5.9,0 12,7.43 12,14.6 0,4.53 -2.6,7.97 -6.6,7.97 -2.3,0 -4.3,-1.44 -5.8,-2.99 z" /><path
           style="fill:#000000;stroke-width:0"
           inkscape:connector-curvature="0"
           id="path5593"
           d="m 1257.2,345.22 h -1.2 c -0.1,-0.76 -0.4,-2.83 -0.9,-3.17 -0.3,-0.2 -2.9,-0.2 -3.4,-0.2 h -6.5 c 3.7,3.23 4.9,4.2 7,5.84 2.6,2.06 5,4.22 5,7.53 0,4.22 -3.7,6.8 -8.2,6.8 -4.3,0 -7.2,-3.03 -7.2,-6.23 0,-1.79 1.5,-1.96 1.9,-1.96 0.8,0 1.8,0.6 1.8,1.85 0,0.62 -0.3,1.84 -2.1,1.84 1.1,2.47 3.5,3.23 5.1,3.23 3.5,0 5.3,-2.7 5.3,-5.53 0,-3.03 -2.1,-5.43 -3.3,-6.68 l -8.3,-8.3 c -0.4,-0.31 -0.4,-0.39 -0.4,-1.36 h 14.4 z" /></g>    </g>
    <g
       transform="matrix(0.27,0,0,0.27,233.19196,322.38813)"
       id="g5827">
      <g
         style="font-style:normal;font-variant:normal;font-weight:normal;font-stretch:normal;letter-spacing:normal;word-spacing:normal;text-anchor:start;fill:none;stroke:#000000;stroke-width:3.70370364;stroke-linecap:butt;stroke-linejoin:miter;stroke-miterlimit:10.43299961;stroke-opacity:1;stroke-dasharray:none;stroke-dashoffset:0"
         id="g5829"
         transform="matrix(1.0629921,0,0,-1.0629921,-186.02362,789.27165)"
         xml:space="preserve"
         stroke-miterlimit="10.433"
         font-style="normal"
         font-variant="normal"
         font-weight="normal"
         font-stretch="normal"
         font-size-adjust="none"
         letter-spacing="normal"
         word-spacing="normal"><path
           style="fill:#000000;stroke-width:0"
           inkscape:connector-curvature="0"
           d="m 1230.1,380.47 0,0.01 0,0 0,0.01 0,0.01 0,0.01 0,0.01 0,0.02 0,0.02 0,0.02 0,0.02 0,0.02 0,0.02 0,0.03 0,0.02 0,0.02 0,0.03 0,0.02 -0.1,0.03 0,0.02 0,0.03 0,0.02 0,0.01 0,0.01 -0.1,0.01 0,0.01 0,0.01 0,0.01 0,0.01 0,0.01 0,0.01 -0.1,0.01 0,0.01 0,0 0,0.01 0,0.01 -0.1,0 0,0.01 0,0 0,0.01 -0.1,0 0,0 0,0.01 0,0 -0.1,0 0,0 c -1.2,0 -4.8,-0.41 -6.1,-0.5 -0.4,-0.05 -0.9,-0.09 -0.9,-1 0,-0.59 0.4,-0.59 1.2,-0.59 2.4,0 2.5,-0.35 2.5,-0.85 0,-0.36 -0.5,-2.04 -0.7,-3.09 l -4.1,-16.24 c -0.6,-2.5 -0.8,-3.29 -0.8,-5.03 0,-4.73 2.6,-7.83 6.3,-7.83 v 1.1 c -1.7,0 -3.3,1.34 -3.3,5.03 0,0.95 0,1.89 0.8,5.03 l 1.1,4.59 c 0.3,1.1 0.3,1.19 0.7,1.74 2.4,3.23 4.7,3.98 6,3.98 1.8,0 3.1,-1.48 3.1,-4.68 0,-2.94 -1.6,-8.66 -2.5,-10.57 -1.7,-3.32 -4,-5.12 -5.9,-5.12 v -1.1 c 5.9,0 12,7.43 12,14.6 0,4.53 -2.6,7.97 -6.6,7.97 -2.3,0 -4.3,-1.44 -5.8,-2.99 z"
           id="path5831" /><path
           style="fill:#000000;stroke-width:0"
           inkscape:connector-curvature="0"
           d="m 1249.1,350.52 0.3,-0.01 0.2,-0.01 0.3,-0.03 0.2,-0.04 0.2,-0.05 0.3,-0.06 0.2,-0.07 0.2,-0.08 0.2,-0.1 0.2,-0.1 0.2,-0.12 0.2,-0.12 0.2,-0.14 0.1,-0.15 0.2,-0.16 0.2,-0.17 0.1,-0.18 0.2,-0.19 0.1,-0.21 0.1,-0.21 0.1,-0.23 0.2,-0.23 0.1,-0.25 0,-0.25 0.1,-0.27 0.1,-0.28 0.1,-0.29 0,-0.3 0,-0.31 0.1,-0.32 0,-0.34 0,-0.34 c 0,-4.33 -2.5,-5.61 -4.5,-5.61 -1.4,0 -4.5,0.38 -6,2.44 1.7,0.06 2,1.22 2,1.95 0,1.11 -0.8,1.91 -1.9,1.91 -0.9,0 -1.9,-0.6 -1.9,-2.02 0,-3.28 3.6,-5.4 7.8,-5.4 4.9,0 8.2,3.25 8.2,6.73 0,2.72 -2.2,5.44 -6.1,6.23 3.7,1.33 5,3.94 5,6.07 0,2.75 -3.1,4.81 -7,4.81 -3.9,0 -6.8,-1.89 -6.8,-4.67 0,-1.19 0.7,-1.85 1.8,-1.85 1.1,0 1.8,0.8 1.8,1.77 0,1.02 -0.7,1.75 -1.8,1.81 1.2,1.55 3.6,1.92 4.9,1.92 1.5,0 3.8,-0.76 3.8,-3.79 0,-1.47 -0.5,-3.07 -1.4,-4.14 -1.2,-1.33 -2.2,-1.41 -3.9,-1.5 -0.9,-0.08 -1,-0.08 -1.1,-0.11 -0.1,0 -0.4,-0.07 -0.4,-0.46 0,-0.48 0.3,-0.48 0.9,-0.48 z"
           id="path5833" /></g>    </g>
    <g
       transform="matrix(0.27,0,0,0.27,233.1202,304.77204)"
       id="g6075">
      <g
         style="font-style:normal;font-variant:normal;font-weight:normal;font-stretch:normal;letter-spacing:normal;word-spacing:normal;text-anchor:start;fill:none;stroke:#000000;stroke-width:3.70370364;stroke-linecap:butt;stroke-linejoin:miter;stroke-miterlimit:10.43299961;stroke-opacity:1;stroke-dasharray:none;stroke-dashoffset:0"
         word-spacing="normal"
         letter-spacing="normal"
         font-size-adjust="none"
         font-stretch="normal"
         font-weight="normal"
         font-variant="normal"
         font-style="normal"
         stroke-miterlimit="10.433"
         xml:space="preserve"
         transform="matrix(1.0629921,0,0,-1.0629921,-186.02362,789.27165)"
         id="g6077"><path
           style="fill:#000000;stroke-width:0"
           inkscape:connector-curvature="0"
           id="path6079"
           d="m 1230.1,380.47 0,0.01 0,0 0,0.01 0,0.01 0,0.01 0,0.01 0,0.02 0,0.02 0,0.02 0,0.02 0,0.02 0,0.02 0,0.03 0,0.02 0,0.02 0,0.03 0,0.02 -0.1,0.03 0,0.02 0,0.03 0,0.02 0,0.01 0,0.01 -0.1,0.01 0,0.01 0,0.01 0,0.01 0,0.01 0,0.01 0,0.01 -0.1,0.01 0,0.01 0,0 0,0.01 0,0.01 -0.1,0 0,0.01 0,0 0,0.01 -0.1,0 0,0 0,0.01 0,0 -0.1,0 0,0 c -1.2,0 -4.8,-0.41 -6.1,-0.5 -0.4,-0.05 -0.9,-0.09 -0.9,-1 0,-0.59 0.4,-0.59 1.2,-0.59 2.4,0 2.5,-0.35 2.5,-0.85 0,-0.36 -0.5,-2.04 -0.7,-3.09 l -4.1,-16.24 c -0.6,-2.5 -0.8,-3.29 -0.8,-5.03 0,-4.73 2.6,-7.83 6.3,-7.83 v 1.1 c -1.7,0 -3.3,1.34 -3.3,5.03 0,0.95 0,1.89 0.8,5.03 l 1.1,4.59 c 0.3,1.1 0.3,1.19 0.7,1.74 2.4,3.23 4.7,3.98 6,3.98 1.8,0 3.1,-1.48 3.1,-4.68 0,-2.94 -1.6,-8.66 -2.5,-10.57 -1.7,-3.32 -4,-5.12 -5.9,-5.12 v -1.1 c 5.9,0 12,7.43 12,14.6 0,4.53 -2.6,7.97 -6.6,7.97 -2.3,0 -4.3,-1.44 -5.8,-2.99 z" /><path
           style="fill:#000000;stroke-width:0"
           inkscape:connector-curvature="0"
           id="path6081"
           d="m 1258,344.6 v 1.25 h -3.8 v 15.54 c 0,0.72 0,0.97 -0.8,0.97 -0.4,0 -0.6,0 -0.9,-0.48 L 1241,345.85 v -1.25 h 10.2 l 0.2,1.25 h -9.2 l 9.2,12.75 v -12.75 l -0.2,-1.25 v -2.86 c 0,-1.19 0,-1.61 -2.8,-1.61 h -1 v -1.25 c 1.8,0.06 4,0.14 5.3,0.14 1.3,0 3.5,-0.08 5.2,-0.14 v 1.25 h -0.9 c -2.8,0 -2.8,0.42 -2.8,1.61 v 2.86 z" /></g>    </g>
    <g
       transform="matrix(0.27,0,0,0.27,233.23501,286.95506)"
       id="g6331">
      <g
         style="font-style:normal;font-variant:normal;font-weight:normal;font-stretch:normal;letter-spacing:normal;word-spacing:normal;text-anchor:start;fill:none;stroke:#000000;stroke-width:3.70370364;stroke-linecap:butt;stroke-linejoin:miter;stroke-miterlimit:10.43299961;stroke-opacity:1;stroke-dasharray:none;stroke-dashoffset:0"
         id="g6333"
         transform="matrix(1.0629921,0,0,-1.0629921,-186.02362,789.27165)"
         xml:space="preserve"
         stroke-miterlimit="10.433"
         font-style="normal"
         font-variant="normal"
         font-weight="normal"
         font-stretch="normal"
         font-size-adjust="none"
         letter-spacing="normal"
         word-spacing="normal"><path
           style="fill:#000000;stroke-width:0"
           inkscape:connector-curvature="0"
           d="m 1230.1,380.47 0,0.01 0,0 0,0.01 0,0.01 0,0.01 0,0.01 0,0.02 0,0.02 0,0.02 0,0.02 0,0.02 0,0.02 0,0.03 0,0.02 0,0.02 0,0.03 0,0.02 -0.1,0.03 0,0.02 0,0.03 0,0.02 0,0.01 0,0.01 -0.1,0.01 0,0.01 0,0.01 0,0.01 0,0.01 0,0.01 0,0.01 -0.1,0.01 0,0.01 0,0 0,0.01 0,0.01 -0.1,0 0,0.01 0,0 0,0.01 -0.1,0 0,0 0,0.01 0,0 -0.1,0 0,0 c -1.2,0 -4.8,-0.41 -6.1,-0.5 -0.4,-0.05 -0.9,-0.09 -0.9,-1 0,-0.59 0.4,-0.59 1.2,-0.59 2.4,0 2.5,-0.35 2.5,-0.85 0,-0.36 -0.5,-2.04 -0.7,-3.09 l -4.1,-16.24 c -0.6,-2.5 -0.8,-3.29 -0.8,-5.03 0,-4.73 2.6,-7.83 6.3,-7.83 v 1.1 c -1.7,0 -3.3,1.34 -3.3,5.03 0,0.95 0,1.89 0.8,5.03 l 1.1,4.59 c 0.3,1.1 0.3,1.19 0.7,1.74 2.4,3.23 4.7,3.98 6,3.98 1.8,0 3.1,-1.48 3.1,-4.68 0,-2.94 -1.6,-8.66 -2.5,-10.57 -1.7,-3.32 -4,-5.12 -5.9,-5.12 v -1.1 c 5.9,0 12,7.43 12,14.6 0,4.53 -2.6,7.97 -6.6,7.97 -2.3,0 -4.3,-1.44 -5.8,-2.99 z"
           id="path6335" /><path
           style="fill:#000000;stroke-width:0"
           inkscape:connector-curvature="0"
           d="m 1245,358.32 0.2,-0.05 0.1,-0.03 0.2,-0.04 0.1,-0.03 0.2,-0.03 0.1,-0.03 0.2,-0.03 0.1,-0.03 0.1,-0.02 0.2,-0.02 0.1,-0.02 0.1,-0.02 0.1,-0.01 0.1,-0.02 0.1,-0.01 0.1,-0.01 0.1,-0.01 0.1,-0.01 0.1,-0.01 0.1,0 0.1,-0.01 0.1,0 0.1,-0.01 0.1,0 0,0 0.1,0 0.1,-0.01 0,0 0.1,0 0.1,0 0,0 0.1,0 c 4.6,0 7.3,3.14 7.3,3.68 0,0.37 -0.2,0.48 -0.4,0.48 -0.1,0 -0.1,0 -0.3,-0.11 -0.8,-0.31 -2.7,-1.02 -5.3,-1.02 -0.9,0 -2.8,0.08 -5,0.96 -0.4,0.17 -0.5,0.17 -0.5,0.17 -0.5,0 -0.5,-0.39 -0.5,-0.94 V 350.8 c 0,-0.59 0,-1.01 0.6,-1.01 0.3,0 0.4,0.06 0.7,0.48 1.5,1.92 3.6,2.2 4.8,2.2 2.1,0 3.1,-1.67 3.3,-1.95 0.6,-1.16 0.8,-2.47 0.8,-4.5 0,-1.05 0,-3.09 -1.1,-4.63 -0.8,-1.26 -2.3,-2.09 -4,-2.09 -2.3,0 -4.6,1.25 -5.5,3.55 1.3,-0.1 2,0.76 2,1.7 0,1.5 -1.3,1.78 -1.8,1.78 0,0 -1.7,0 -1.7,-1.87 0,-3.14 2.9,-6.28 7,-6.28 4.5,0 8.4,3.31 8.4,7.7 0,3.94 -3,7.56 -7.3,7.56 -1.6,0 -3.4,-0.37 -4.9,-1.7 z"
           id="path6337" /></g>    </g>
    <g
       transform="matrix(0.27,0,0,0.27,233.19196,269.23852)"
       id="g6595">
      <g
         style="font-style:normal;font-variant:normal;font-weight:normal;font-stretch:normal;letter-spacing:normal;word-spacing:normal;text-anchor:start;fill:none;stroke:#000000;stroke-width:3.70370364;stroke-linecap:butt;stroke-linejoin:miter;stroke-miterlimit:10.43299961;stroke-opacity:1;stroke-dasharray:none;stroke-dashoffset:0"
         word-spacing="normal"
         letter-spacing="normal"
         font-size-adjust="none"
         font-stretch="normal"
         font-weight="normal"
         font-variant="normal"
         font-style="normal"
         stroke-miterlimit="10.433"
         xml:space="preserve"
         transform="matrix(1.0629921,0,0,-1.0629921,-186.02362,789.27165)"
         id="g6597"><path
           style="fill:#000000;stroke-width:0"
           inkscape:connector-curvature="0"
           id="path6599"
           d="m 1230.1,380.47 0,0.01 0,0 0,0.01 0,0.01 0,0.01 0,0.01 0,0.02 0,0.02 0,0.02 0,0.02 0,0.02 0,0.02 0,0.03 0,0.02 0,0.02 0,0.03 0,0.02 -0.1,0.03 0,0.02 0,0.03 0,0.02 0,0.01 0,0.01 -0.1,0.01 0,0.01 0,0.01 0,0.01 0,0.01 0,0.01 0,0.01 -0.1,0.01 0,0.01 0,0 0,0.01 0,0.01 -0.1,0 0,0.01 0,0 0,0.01 -0.1,0 0,0 0,0.01 0,0 -0.1,0 0,0 c -1.2,0 -4.8,-0.41 -6.1,-0.5 -0.4,-0.05 -0.9,-0.09 -0.9,-1 0,-0.59 0.4,-0.59 1.2,-0.59 2.4,0 2.5,-0.35 2.5,-0.85 0,-0.36 -0.5,-2.04 -0.7,-3.09 l -4.1,-16.24 c -0.6,-2.5 -0.8,-3.29 -0.8,-5.03 0,-4.73 2.6,-7.83 6.3,-7.83 v 1.1 c -1.7,0 -3.3,1.34 -3.3,5.03 0,0.95 0,1.89 0.8,5.03 l 1.1,4.59 c 0.3,1.1 0.3,1.19 0.7,1.74 2.4,3.23 4.7,3.98 6,3.98 1.8,0 3.1,-1.48 3.1,-4.68 0,-2.94 -1.6,-8.66 -2.5,-10.57 -1.7,-3.32 -4,-5.12 -5.9,-5.12 v -1.1 c 5.9,0 12,7.43 12,14.6 0,4.53 -2.6,7.97 -6.6,7.97 -2.3,0 -4.3,-1.44 -5.8,-2.99 z" /><path
           style="fill:#000000;stroke-width:0"
           inkscape:connector-curvature="0"
           id="path6601"
           d="m 1244.8,350.27 0,0.53 0.1,0.53 0,0.52 0,0.51 0,0.5 0.1,0.5 0,0.49 0.1,0.48 0.1,0.47 0.1,0.46 0.1,0.45 0.2,0.45 0.1,0.21 0.1,0.22 0.1,0.21 0.1,0.21 0.1,0.21 0.1,0.21 0.1,0.2 0.1,0.2 c 1.2,1.89 3.1,3.17 5.3,3.17 1,0 2.4,-0.28 3.1,-1.21 -0.8,-0.07 -1.6,-0.66 -1.6,-1.68 0,-0.87 0.6,-1.64 1.7,-1.64 1,0 1.6,0.71 1.6,1.71 0,2.03 -1.4,3.84 -4.9,3.84 -5,0 -10.1,-4.61 -10.1,-12.09 0,-9.04 4.2,-11.75 8.1,-11.75 4.2,0 7.9,3.25 7.9,7.81 0,4.42 -3.5,7.7 -7.6,7.7 l -0.2,-0.98 c 1.6,0 2.7,-0.63 3.6,-1.91 0.8,-1.33 0.9,-2.8 0.9,-4.81 0,-1.99 0,-3.45 -1,-4.81 -0.8,-1.22 -1.9,-1.88 -3.6,-1.88 h 0 c -1.8,0 -3.1,1 -3.9,2.55 -0.5,1.03 -0.8,2.78 -0.8,4.87 0,3.38 2.1,5.99 4.8,5.99 l 0.2,0.98 c -2.8,0 -4.3,-1.84 -5.1,-3.42 z" /></g>    </g>
    <g
       transform="matrix(0.27,0,0,0.27,233.0341,251.52198)"
       id="g6867">
      <g
         style="font-style:normal;font-variant:normal;font-weight:normal;font-stretch:normal;letter-spacing:normal;word-spacing:normal;text-anchor:start;fill:none;stroke:#000000;stroke-width:3.70370364;stroke-linecap:butt;stroke-linejoin:miter;stroke-miterlimit:10.43299961;stroke-opacity:1;stroke-dasharray:none;stroke-dashoffset:0"
         id="g6869"
         transform="matrix(1.0629921,0,0,-1.0629921,-186.02362,789.27165)"
         xml:space="preserve"
         stroke-miterlimit="10.433"
         font-style="normal"
         font-variant="normal"
         font-weight="normal"
         font-stretch="normal"
         font-size-adjust="none"
         letter-spacing="normal"
         word-spacing="normal"><path
           style="fill:#000000;stroke-width:0"
           inkscape:connector-curvature="0"
           d="m 1230.1,380.47 0,0.01 0,0 0,0.01 0,0.01 0,0.01 0,0.01 0,0.02 0,0.02 0,0.02 0,0.02 0,0.02 0,0.02 0,0.03 0,0.02 0,0.02 0,0.03 0,0.02 -0.1,0.03 0,0.02 0,0.03 0,0.02 0,0.01 0,0.01 -0.1,0.01 0,0.01 0,0.01 0,0.01 0,0.01 0,0.01 0,0.01 -0.1,0.01 0,0.01 0,0 0,0.01 0,0.01 -0.1,0 0,0.01 0,0 0,0.01 -0.1,0 0,0 0,0.01 0,0 -0.1,0 0,0 c -1.2,0 -4.8,-0.41 -6.1,-0.5 -0.4,-0.05 -0.9,-0.09 -0.9,-1 0,-0.59 0.4,-0.59 1.2,-0.59 2.4,0 2.5,-0.35 2.5,-0.85 0,-0.36 -0.5,-2.04 -0.7,-3.09 l -4.1,-16.24 c -0.6,-2.5 -0.8,-3.29 -0.8,-5.03 0,-4.73 2.6,-7.83 6.3,-7.83 v 1.1 c -1.7,0 -3.3,1.34 -3.3,5.03 0,0.95 0,1.89 0.8,5.03 l 1.1,4.59 c 0.3,1.1 0.3,1.19 0.7,1.74 2.4,3.23 4.7,3.98 6,3.98 1.8,0 3.1,-1.48 3.1,-4.68 0,-2.94 -1.6,-8.66 -2.5,-10.57 -1.7,-3.32 -4,-5.12 -5.9,-5.12 v -1.1 c 5.9,0 12,7.43 12,14.6 0,4.53 -2.6,7.97 -6.6,7.97 -2.3,0 -4.3,-1.44 -5.8,-2.99 z"
           id="path6871" /><path
           style="fill:#000000;stroke-width:0"
           inkscape:connector-curvature="0"
           d="m 1258.2,359.93 0.1,0.03 0,0.04 0,0.04 0.1,0.03 0,0.03 0,0.03 0,0.03 0,0.03 0.1,0.03 0,0.03 0,0.03 0,0.03 0,0.03 0,0.03 0,0.04 0,0.03 0.1,0.03 0,0.04 0,0.04 0,0.04 0,0.04 0,0.05 0,0.05 0,0.05 0,0.05 0,0.06 0,0.06 0,0.06 0,0.07 0,0.04 0,0.04 0,0.03 0,0.04 0,0.04 0,0.05 h -9.1 c -1.4,0 -1.8,0.03 -3.1,0.14 -1.8,0.14 -1.8,0.39 -2,0.98 h -1.1 l -1.3,-7.47 h 1.2 c 0.1,0.53 0.5,2.83 1,3.17 0.3,0.22 3.1,0.22 3.6,0.22 h 7.6 c -1.1,-1.47 -2.9,-3.62 -3.6,-4.61 -4.6,-5.98 -5,-11.53 -5,-13.57 0,-0.39 0,-2 1.6,-2 1.7,0 1.7,1.57 1.7,2.03 v 1.39 c 0,6.76 1.4,9.86 2.9,11.73 z"
           id="path6873" /></g>    </g>
    <g
       transform="matrix(0.27,0,0,0.27,187.14332,338.35391)"
       id="g8028">
      <g
         style="font-style:normal;font-variant:normal;font-weight:normal;font-stretch:normal;letter-spacing:normal;word-spacing:normal;text-anchor:start;fill:none;stroke:#000000;stroke-width:3.70370364;stroke-linecap:butt;stroke-linejoin:miter;stroke-miterlimit:10.43299961;stroke-opacity:1;stroke-dasharray:none;stroke-dashoffset:0"
         id="g8030"
         transform="matrix(1.0629921,0,0,-1.0629921,-186.02362,789.27165)"
         xml:space="preserve"
         stroke-miterlimit="10.433"
         font-style="normal"
         font-variant="normal"
         font-weight="normal"
         font-stretch="normal"
         font-size-adjust="none"
         letter-spacing="normal"
         word-spacing="normal"><path
           style="fill:#000000;stroke-width:0"
           inkscape:connector-curvature="0"
           d="m 1224.9,365.27 0,0.17 -0.1,0.17 -0.1,0.16 -0.1,0.17 -0.1,0.15 -0.1,0.16 -0.1,0.15 -0.1,0.15 -0.2,0.14 -0.1,0.14 -0.1,0.13 -0.1,0.13 -0.1,0.12 -0.2,0.12 -0.1,0.12 -0.1,0.1 -0.2,0.11 -0.1,0.1 -0.2,0.09 -0.1,0.08 -0.2,0.08 -0.2,0.08 -0.1,0.07 -0.2,0.06 -0.2,0.05 -0.2,0.05 -0.2,0.04 -0.1,0.04 -0.2,0.02 -0.2,0.02 -0.2,0.01 -0.2,0.01 0,-1.1 c 3.2,0 3.9,-4.07 3.9,-4.37 0,-0.31 -0.1,-0.61 -0.1,-0.86 l -2.5,-9.77 c -0.3,-0.89 -0.3,-0.98 -1,-1.84 -2.2,-2.73 -4.2,-3.53 -5.6,-3.53 -2.5,0 -3.2,2.73 -3.2,4.69 0,2.48 1.6,8.61 2.7,10.9 1.6,2.94 3.8,4.78 5.8,4.78 l 0,1.1 c -5.9,0 -12,-7.32 -12,-14.6 0,-4.68 2.7,-7.97 6.6,-7.97 1,0 3.5,0.21 6.4,3.74 0.5,-2.09 2.2,-3.74 4.6,-3.74 1.7,0 2.9,1.15 3.7,2.74 0.8,1.8 1.5,4.84 1.5,4.94 0,0.5 -0.5,0.5 -0.6,0.5 -0.5,0 -0.6,-0.21 -0.7,-0.91 -0.9,-3.23 -1.8,-6.17 -3.8,-6.17 -1.3,0 -1.5,1.3 -1.5,2.3 0,1.09 0.1,1.48 0.6,3.68 0.6,2.1 0.7,2.6 1.1,4.49 l 1.8,6.97 c 0.4,1.39 0.4,1.5 0.4,1.68 0,0.86 -0.6,1.36 -1.5,1.36 -1.2,0 -1.9,-1.11 -2.1,-2.2 z"
           id="path8032" /><path
           style="fill:#000000;stroke-width:0"
           inkscape:connector-curvature="0"
           d="m 1243.9,360.66 0,0.05 0,0.06 0,0.05 0,0.05 0,0.06 0,0.06 0,0.05 0,0.06 -0.1,0.05 0,0.06 0,0.06 0,0.05 -0.1,0.05 0,0.06 -0.1,0.05 0,0.05 0,0.05 -0.1,0.04 0,0.05 -0.1,0.04 0,0.04 -0.1,0.04 -0.1,0.04 0,0.03 -0.1,0.03 -0.1,0.02 0,0.02 -0.1,0.02 -0.1,0.02 -0.1,0.01 -0.1,0.01 -0.1,0 c -0.9,0 -1.9,-0.91 -1.9,-1.92 0,-0.6 0.4,-1.33 1.4,-1.33 1,0 1.9,0.98 1.9,1.92 z"
           id="path8034" /><path
           style="fill:#000000;stroke-width:0"
           inkscape:connector-curvature="0"
           d="m 1236.8,342.96 0,-0.17 -0.1,-0.17 0,-0.08 0,-0.09 -0.1,-0.09 0,-0.08 0,-0.09 0,-0.1 0,-0.09 -0.1,-0.1 0,-0.09 0,-0.06 0,-0.05 0,-0.05 0,-0.05 0,-0.06 0,-0.05 c 0,-1.64 1.4,-2.95 3.3,-2.95 3.5,0 5,4.79 5,5.32 0,0.46 -0.4,0.46 -0.5,0.46 -0.5,0 -0.5,-0.21 -0.7,-0.6 -0.8,-2.78 -2.3,-4.22 -3.7,-4.22 -0.7,0 -0.8,0.46 -0.8,1.22 0,0.8 0.2,1.47 0.5,2.24 0.3,0.93 0.7,1.87 1.1,2.78 0.3,0.84 1.6,4.01 1.7,4.44 0.1,0.34 0.2,0.76 0.2,1.11 0,1.64 -1.4,2.95 -3.3,2.95 -3.4,0 -5,-4.74 -5,-5.33 0,-0.45 0.5,-0.45 0.6,-0.45 0.5,0 0.5,0.17 0.6,0.56 0.9,3 2.4,4.25 3.7,4.25 0.6,0 0.9,-0.28 0.9,-1.22 0,-0.8 -0.2,-1.33 -1.1,-3.48 z"
           id="path8036" /><path
           style="fill:#000000;stroke-width:0"
           inkscape:connector-curvature="0"
           d="m 1250.9,341.07 0,-0.05 0,-0.04 0,-0.05 0,-0.05 0,-0.05 -0.1,-0.05 0,-0.05 0,-0.06 0,-0.11 0,-0.11 -0.1,-0.11 0,-0.11 0,-0.05 0,-0.05 0,-0.05 0,-0.05 0,-0.05 -0.1,-0.05 0,-0.04 0,-0.04 0,-0.04 0,-0.03 0,-0.03 0,-0.03 0,-0.03 0,-0.02 0,0 0,-0.01 0,-0.01 0,-0.01 c 0,-0.76 0.6,-1.1 1.2,-1.1 0.6,0 1.1,0.45 1.3,0.76 0.2,0.31 0.5,1.42 0.7,2.16 0.1,0.65 0.5,2.26 0.7,3.14 0.2,0.76 0.4,1.53 0.6,2.33 0.4,1.43 0.5,1.7 1.5,3.14 1,1.39 2.6,3.2 5.2,3.2 2,0 2,-1.78 2,-2.44 0,-2.09 -1.4,-5.95 -2,-7.42 -0.4,-0.98 -0.5,-1.3 -0.5,-1.89 0,-1.84 1.5,-2.98 3.3,-2.98 3.5,0 5,4.79 5,5.32 0,0.46 -0.4,0.46 -0.5,0.46 -0.5,0 -0.6,-0.21 -0.7,-0.6 -0.8,-2.78 -2.3,-4.22 -3.7,-4.22 -0.7,0 -0.9,0.49 -0.9,1.22 0,0.8 0.2,1.25 0.8,2.83 0.4,1.08 1.9,4.77 1.9,6.72 0,3.39 -2.7,3.97 -4.6,3.97 -2.8,0 -4.8,-1.77 -5.8,-3.16 -0.3,2.39 -2.3,3.16 -3.8,3.16 -1.5,0 -2.3,-1.08 -2.7,-1.88 -0.8,-1.28 -1.3,-3.28 -1.3,-3.45 0,-0.45 0.5,-0.45 0.6,-0.45 0.5,0 0.5,0.11 0.8,1.04 0.5,2.07 1.2,3.77 2.5,3.77 0.9,0 1.2,-0.77 1.2,-1.7 0,-0.68 -0.3,-1.96 -0.6,-2.89 -0.2,-0.96 -0.6,-2.38 -0.8,-3.14 z"
           id="path8038" /></g>    </g>
    <path
       sodipodi:nodetypes="cc"
       inkscape:connector-curvature="0"
       id="path8186"
       d="m 435.82677,449.99998 c -17.71653,17.71653 0,35.43307 0,35.43307"
       style="fill:none;stroke:#000000;stroke-width:1px;stroke-linecap:butt;stroke-linejoin:miter;stroke-opacity:1;marker-end:url(#Arrow2Mend)" />
    <g
       id="g8537"
       transform="matrix(0.27,0,0,0.27,109.26231,356.07045)">
      <g
         word-spacing="normal"
         letter-spacing="normal"
         font-size-adjust="none"
         font-stretch="normal"
         font-weight="normal"
         font-variant="normal"
         font-style="normal"
         stroke-miterlimit="10.433"
         xml:space="preserve"
         transform="matrix(1.0629921,0,0,-1.0629921,-186.02362,789.27165)"
         id="g8539"
         style="font-style:normal;font-variant:normal;font-weight:normal;font-stretch:normal;letter-spacing:normal;word-spacing:normal;text-anchor:start;fill:none;stroke:#000000;stroke-width:3.70370364;stroke-linecap:butt;stroke-linejoin:miter;stroke-miterlimit:10.43299961;stroke-opacity:1;stroke-dasharray:none;stroke-dashoffset:0"><path
           id="path8541"
           d="m 1232.6,349.24 0,-0.19 0.1,-0.19 0,-0.18 0.1,-0.17 0.1,-0.17 0.1,-0.17 0.1,-0.16 0.1,-0.16 0.1,-0.15 0.1,-0.14 0.1,-0.14 0.1,-0.14 0.2,-0.13 0.1,-0.12 0.1,-0.12 0.2,-0.11 0.1,-0.11 0.2,-0.1 0.1,-0.09 0.2,-0.09 0.2,-0.08 0.1,-0.07 0.2,-0.07 0.2,-0.06 0.2,-0.05 0.1,-0.05 0.2,-0.04 0.2,-0.04 0.2,-0.02 0.2,-0.02 0.2,-0.01 0.2,-0.01 c 1.7,0 2.9,1.15 3.7,2.74 0.8,1.8 1.5,4.84 1.5,4.94 0,0.5 -0.5,0.5 -0.6,0.5 -0.5,0 -0.6,-0.21 -0.7,-0.91 -0.7,-2.78 -1.7,-6.17 -3.8,-6.17 -1,0 -1.5,0.65 -1.5,2.3 0,1.09 0.6,3.43 1,5.17 l 1.4,5.39 c 0.1,0.75 0.6,2.64 0.8,3.39 0.3,1.14 0.8,3.03 0.8,3.33 0,0.9 -0.7,1.34 -1.5,1.34 -0.2,0 -1.5,-0.05 -1.9,-1.73 -1,-3.64 -3.1,-12.36 -3.7,-15 -0.1,-0.21 -2.1,-4.19 -5.7,-4.19 -2.6,0 -3.1,2.25 -3.1,4.09 0,2.78 1.4,6.72 2.7,10.16 0.6,1.5 0.8,2.19 0.8,3.14 0,2.23 -1.6,4.08 -4.1,4.08 -4.7,0 -6.5,-7.22 -6.5,-7.67 0,-0.5 0.5,-0.5 0.6,-0.5 0.5,0 0.5,0.1 0.8,0.9 1.2,4.33 3.1,6.17 5,6.17 0.4,0 1.2,-0.04 1.2,-1.64 0,-1.2 -0.5,-2.64 -0.8,-3.39 -1.9,-4.94 -2.9,-8.01 -2.9,-10.45 0,-4.74 3.4,-5.99 6.1,-5.99 3.3,0 5.1,2.24 6,3.35 z"
           inkscape:connector-curvature="0"
           style="fill:#000000;stroke-width:0" /><path
           id="path8543"
           d="m 1251.5,346.82 0.1,0 0.1,0 0.1,0 0.1,0 0.2,0 0.1,0.01 0.2,0 0.1,0.01 0.2,0.01 0.1,0 0.2,0.01 0.2,0.02 0.2,0.01 0.2,0.01 0.3,0.04 0.4,0.04 0.5,0.05 0.4,0.06 0.4,0.07 0.4,0.08 0.2,0.04 0.2,0.05 0.1,0.05 0.2,0.05 0.2,0.06 0.2,0.06 c 2.6,0.91 3.1,2.58 3.1,3.63 0,1.92 -2,3.06 -4.4,3.06 v -0.97 c 1.6,0 2.9,-0.77 2.9,-2.09 0,-3.38 -5.9,-3.38 -7.4,-3.38 h -1.7 c 1.4,5.05 5.3,5.47 6.2,5.47 v 0.97 c -4.1,0 -9.8,-3.2 -9.8,-9.16 0,-3.51 2.2,-6.54 6.3,-6.54 5.9,0 8.6,3.43 8.6,3.93 0,0.21 -0.3,0.6 -0.6,0.6 -0.2,0 -0.2,-0.08 -0.5,-0.36 -2.7,-3.21 -6.8,-3.21 -7.5,-3.21 -2,0 -3.4,1.39 -3.4,4.22 0,0.49 0,1.19 0.4,3.1 z"
           inkscape:connector-curvature="0"
           style="fill:#000000;stroke-width:0" /></g>    </g>
    <g
       transform="matrix(0.243,0,0,0.243,313.5878,265.77907)"
       id="g8849">
      <g
         style="font-style:normal;font-variant:normal;font-weight:normal;font-stretch:normal;letter-spacing:normal;word-spacing:normal;text-anchor:start;fill:none;stroke:#000000;stroke-width:4.11522627;stroke-linecap:butt;stroke-linejoin:miter;stroke-miterlimit:10.43299961;stroke-opacity:1;stroke-dasharray:none;stroke-dashoffset:0"
         id="g8851"
         transform="matrix(1.0629921,0,0,-1.0629921,-186.02362,789.27165)"
         xml:space="preserve"
         stroke-miterlimit="10.433"
         font-style="normal"
         font-variant="normal"
         font-weight="normal"
         font-stretch="normal"
         font-size-adjust="none"
         letter-spacing="normal"
         word-spacing="normal"><path
           style="fill:#000000;stroke-width:0"
           inkscape:connector-curvature="0"
           d="m 1289.9,357.16 0,-0.06 0,-0.06 0,-0.05 0,-0.06 0,-0.05 0,-0.05 0,-0.05 0,-0.05 0,-0.04 0,-0.05 0,-0.04 0,-0.04 0,-0.04 0.1,-0.04 0,-0.03 0,-0.04 0,-0.03 0,-0.04 0,-0.06 0,-0.06 0,-0.05 0,-0.05 0.1,-0.04 0,-0.04 0,-0.03 0.1,-0.03 0,-0.03 0,-0.03 0.1,-0.02 0.1,-0.01 0,-0.01 0,-0.01 0,-0.01 0.1,0 0,-0.01 0,0 0.1,-0.01 0,0 0.1,-0.01 0,0 0,0 0.1,0 0,-0.01 0.1,0 0,0 0.1,0 0,0 0.1,0 0,0 0.1,0 0.1,0 0,0 h 3.2 c 1.4,0 1.4,0.06 1.4,1.34 v 21.44 c 0,7.31 -3.8,16.73 -14.5,22.51 h -0.8 c -1.3,0 -1.3,-0.04 -1.3,-1.2 0,-0.89 0,-0.94 0.2,-1.09 1.6,-1.14 5.1,-3.69 7.5,-8.27 1.3,-2.69 2.9,-6.58 2.9,-11.95 z"
           id="path8853" /><path
           style="fill:#000000;stroke-width:0"
           inkscape:connector-curvature="0"
           d="m 1295.9,355.55 0,0.06 0,0.06 0,0.06 0,0.05 0,0.06 0,0.05 0,0.05 0,0.05 0,0.04 0,0.05 0,0.04 0,0.04 0,0.04 0,0.04 0,0.04 0,0.03 0,0.04 0,0.03 0,0.03 0,0.03 -0.1,0.06 0,0.05 0,0.05 0,0.04 -0.1,0.04 0,0.03 0,0.03 -0.1,0.03 0,0.02 -0.1,0.03 0,0.01 0,0.01 -0.1,0.01 0,0 0,0.01 -0.1,0.01 0,0 0,0 -0.1,0.01 0,0 -0.1,0.01 0,0 0,0 -0.1,0 0,0 -0.1,0 0,0.01 -0.1,0 0,0 -0.1,0 -0.1,0 0,0 -0.1,0 h -3.2 c -1.3,0 -1.4,-0.05 -1.4,-1.35 V 342.3 c 0,-1.29 0.1,-1.34 1.4,-1.34 h 3.2 c 1.4,0 1.4,0.05 1.4,1.34 z"
           id="path8855" /><path
           style="fill:#000000;stroke-width:0"
           inkscape:connector-curvature="0"
           d="m 1295.9,340.55 0,0.06 0,0.06 0,0.06 0,0.05 0,0.06 0,0.05 0,0.05 0,0.05 0,0.04 0,0.05 0,0.04 0,0.04 0,0.04 0,0.04 0,0.04 0,0.03 0,0.04 0,0.03 0,0.03 0,0.03 -0.1,0.06 0,0.05 0,0.05 0,0.04 -0.1,0.04 0,0.03 0,0.03 -0.1,0.03 0,0.02 -0.1,0.03 0,0.01 0,0.01 -0.1,0.01 0,0 0,0.01 -0.1,0.01 0,0 0,0 -0.1,0.01 0,0 -0.1,0.01 0,0 0,0 -0.1,0 0,0 -0.1,0 0,0.01 -0.1,0 0,0 -0.1,0 -0.1,0 0,0 -0.1,0 h -3.2 c -1.3,0 -1.4,-0.05 -1.4,-1.35 V 327.3 c 0,-1.29 0.1,-1.34 1.4,-1.34 h 3.2 c 1.4,0 1.4,0.05 1.4,1.34 z"
           id="path8857" /><path
           style="fill:#000000;stroke-width:0"
           inkscape:connector-curvature="0"
           d="m 1295.9,325.68 0,0.06 0,0.05 0,0.06 0,0.05 0,0.06 0,0.05 0,0.05 0,0.05 0,0.04 0,0.05 0,0.04 0,0.04 0,0.04 0,0.04 0,0.04 0,0.03 0,0.04 0,0.03 0,0.03 0,0.03 -0.1,0.06 0,0.05 0,0.05 0,0.04 -0.1,0.04 0,0.03 0,0.04 -0.1,0.02 0,0.03 -0.1,0.02 0,0.01 0,0.01 -0.1,0.01 0,0.01 0,0 -0.1,0.01 0,0 0,0.01 -0.1,0 0,0 -0.1,0.01 0,0 0,0 -0.1,0 0,0.01 -0.1,0 0,0 -0.1,0 0,0 -0.1,0 -0.1,0 0,0 -0.1,0 h -3.2 c -1.3,0 -1.4,-0.05 -1.4,-1.34 v -13.25 c 0,-1.3 0.1,-1.35 1.4,-1.35 h 3.2 c 1.4,0 1.4,0.05 1.4,1.35 z"
           id="path8859" /><path
           style="fill:#000000;stroke-width:0"
           inkscape:connector-curvature="0"
           d="m 1295.9,310.68 0,0.06 0,0.05 0,0.06 0,0.05 0,0.06 0,0.05 0,0.05 0,0.05 0,0.04 0,0.05 0,0.04 0,0.04 0,0.04 0,0.04 0,0.04 0,0.03 0,0.04 0,0.03 0,0.03 0,0.03 -0.1,0.06 0,0.05 0,0.05 0,0.04 -0.1,0.04 0,0.03 0,0.04 -0.1,0.02 0,0.03 -0.1,0.02 0,0.01 0,0.01 -0.1,0.01 0,0.01 0,0 -0.1,0.01 0,0 0,0.01 -0.1,0 0,0 -0.1,0.01 0,0 0,0 -0.1,0 0,0.01 -0.1,0 0,0 -0.1,0 0,0 -0.1,0 -0.1,0 0,0 -0.1,0 h -3.2 c -1.3,0 -1.4,-0.05 -1.4,-1.34 v -13.25 c 0,-1.3 0.1,-1.35 1.4,-1.35 h 3.2 c 1.4,0 1.4,0.05 1.4,1.35 z"
           id="path8861" /><path
           style="fill:#000000;stroke-width:0"
           inkscape:connector-curvature="0"
           d="m 1295.9,295.8 0,0.06 0,0.05 0,0.06 0,0.06 0,0.05 0,0.05 0,0.05 0,0.05 0,0.04 0,0.05 0,0.04 0,0.04 0,0.04 0,0.04 0,0.04 0,0.03 0,0.04 0,0.03 0,0.03 0,0.03 -0.1,0.06 0,0.05 0,0.05 0,0.04 -0.1,0.04 0,0.04 0,0.03 -0.1,0.02 0,0.03 -0.1,0.02 0,0.02 0,0 -0.1,0.01 0,0.01 0,0 -0.1,0.01 0,0 0,0.01 -0.1,0 0,0.01 -0.1,0 0,0 0,0 -0.1,0 0,0.01 -0.1,0 0,0 -0.1,0 0,0 -0.1,0 -0.1,0 0,0 -0.1,0 h -3.2 c -1.3,0 -1.4,-0.05 -1.4,-1.34 v -13.25 c 0,-1.3 0.1,-1.35 1.4,-1.35 h 3.2 c 1.4,0 1.4,0.05 1.4,1.35 z"
           id="path8863" /><path
           style="fill:#000000;stroke-width:0"
           inkscape:connector-curvature="0"
           d="m 1295.9,280.8 0,0.06 0,0.05 0,0.06 0,0.06 0,0.05 0,0.05 0,0.05 0,0.05 0,0.04 0,0.05 0,0.04 0,0.04 0,0.04 0,0.04 0,0.04 0,0.03 0,0.04 0,0.03 0,0.03 0,0.03 -0.1,0.06 0,0.05 0,0.05 0,0.04 -0.1,0.04 0,0.04 0,0.03 -0.1,0.02 0,0.03 -0.1,0.02 0,0.02 0,0 -0.1,0.01 0,0.01 0,0 -0.1,0.01 0,0 0,0.01 -0.1,0 0,0.01 -0.1,0 0,0 0,0 -0.1,0 0,0.01 -0.1,0 0,0 -0.1,0 0,0 -0.1,0 -0.1,0 0,0 -0.1,0 h -3.2 c -1.3,0 -1.4,-0.05 -1.4,-1.34 v -13.25 c 0,-1.3 0.1,-1.35 1.4,-1.35 h 3.2 c 1.4,0 1.4,0.05 1.4,1.35 z"
           id="path8865" /><path
           style="fill:#000000;stroke-width:0"
           inkscape:connector-curvature="0"
           d="m 1295.9,265.8 0,0.06 0,0.05 0,0.06 0,0.06 0,0.05 0,0.05 0,0.05 0,0.05 0,0.04 0,0.05 0,0.04 0,0.04 0,0.04 0,0.04 0,0.04 0,0.03 0,0.04 0,0.03 0,0.03 0,0.03 -0.1,0.06 0,0.05 0,0.05 0,0.04 -0.1,0.04 0,0.04 0,0.03 -0.1,0.02 0,0.03 -0.1,0.02 0,0.02 0,0 -0.1,0.01 0,0.01 0,0 -0.1,0.01 0,0 0,0.01 -0.1,0 0,0.01 -0.1,0 0,0 0,0 -0.1,0 0,0.01 -0.1,0 0,0 -0.1,0 0,0 -0.1,0 -0.1,0 0,0 -0.1,0 h -3.2 c -1.3,0 -1.4,-0.05 -1.4,-1.34 v -13.25 c 0,-1.3 0.1,-1.35 1.4,-1.35 h 3.2 c 1.4,0 1.4,0.05 1.4,1.35 z"
           id="path8867" /><path
           style="fill:#000000;stroke-width:0"
           inkscape:connector-curvature="0"
           d="m 1295.9,250.92 0,0.06 0,0.06 0,0.05 0,0.06 0,0.05 0,0.05 0,0.05 0,0.05 0,0.04 0,0.05 0,0.04 0,0.04 0,0.04 0,0.04 0,0.04 0,0.04 0,0.03 0,0.03 0,0.03 0,0.03 -0.1,0.06 0,0.05 0,0.05 0,0.04 -0.1,0.04 0,0.04 0,0.03 -0.1,0.02 0,0.03 -0.1,0.02 0,0.02 0,0 -0.1,0.01 0,0.01 0,0 -0.1,0.01 0,0 0,0.01 -0.1,0 0,0.01 -0.1,0 0,0 0,0 -0.1,0.01 0,0 -0.1,0 0,0 -0.1,0 0,0 -0.1,0 -0.1,0 0,0 -0.1,0 h -3.2 c -1.3,0 -1.4,-0.05 -1.4,-1.34 v -13.25 c 0,-1.3 0.1,-1.35 1.4,-1.35 h 3.2 c 1.4,0 1.4,0.05 1.4,1.35 z"
           id="path8869" /><path
           style="fill:#000000;stroke-width:0"
           inkscape:connector-curvature="0"
           d="m 1295.9,235.92 0,0.06 0,0.06 0,0.05 0,0.06 0,0.05 0,0.05 0,0.05 0,0.05 0,0.04 0,0.05 0,0.04 0,0.04 0,0.04 0,0.04 0,0.04 0,0.04 0,0.03 0,0.03 0,0.03 0,0.03 -0.1,0.06 0,0.05 0,0.05 0,0.04 -0.1,0.04 0,0.04 0,0.03 -0.1,0.02 0,0.03 -0.1,0.02 0,0.02 0,0 -0.1,0.01 0,0.01 0,0 -0.1,0.01 0,0 0,0.01 -0.1,0 0,0.01 -0.1,0 0,0 0,0 -0.1,0.01 0,0 -0.1,0 0,0 -0.1,0 0,0 -0.1,0 -0.1,0 0,0 -0.1,0 h -3.2 c -1.3,0 -1.4,-0.05 -1.4,-1.34 v -13.25 c 0,-1.3 0.1,-1.35 1.4,-1.35 h 3.2 c 1.4,0 1.4,0.05 1.4,1.35 z"
           id="path8871" /><path
           style="fill:#000000;stroke-width:0"
           inkscape:connector-curvature="0"
           d="m 1295.9,221.04 0,0.05 0,0.06 0,0.06 0,0.05 0,0.06 0,0.05 0,0.05 0,0.05 0,0.04 0,0.05 0,0.04 0,0.04 0,0.04 0,0.04 0,0.04 0,0.03 0,0.04 0,0.03 0,0.03 0,0.03 -0.1,0.06 0,0.05 0,0.05 0,0.04 -0.1,0.04 0,0.03 0,0.03 -0.1,0.03 0,0.03 -0.1,0.02 0,0.01 0,0.01 -0.1,0.01 0,0.01 0,0 -0.1,0.01 0,0 0,0.01 -0.1,0 0,0 -0.1,0.01 0,0 0,0 -0.1,0 0,0 -0.1,0.01 0,0 -0.1,0 0,0 -0.1,0 -0.1,0 0,0 -0.1,0 h -3.2 c -1.3,0 -1.4,-0.05 -1.4,-1.34 v -13.25 c 0,-1.3 0.1,-1.35 1.4,-1.35 h 3.2 c 1.4,0 1.4,0.05 1.4,1.35 z"
           id="path8873" /><path
           style="fill:#000000;stroke-width:0"
           inkscape:connector-curvature="0"
           d="m 1295.9,206.04 0,0.05 0,0.06 0,0.06 0,0.05 0,0.06 0,0.05 0,0.05 0,0.05 0,0.04 0,0.05 0,0.04 0,0.04 0,0.04 0,0.04 0,0.04 0,0.03 0,0.04 0,0.03 0,0.03 0,0.03 -0.1,0.06 0,0.05 0,0.05 0,0.04 -0.1,0.04 0,0.03 0,0.03 -0.1,0.03 0,0.03 -0.1,0.02 0,0.01 0,0.01 -0.1,0.01 0,0.01 0,0 -0.1,0.01 0,0 0,0.01 -0.1,0 0,0 -0.1,0.01 0,0 0,0 -0.1,0 0,0 -0.1,0.01 0,0 -0.1,0 0,0 -0.1,0 -0.1,0 0,0 -0.1,0 h -3.2 c -1.3,0 -1.4,-0.05 -1.4,-1.34 v -13.25 c 0,-1.3 0.1,-1.35 1.4,-1.35 h 3.2 c 1.4,0 1.4,0.05 1.4,1.35 z"
           id="path8875" /><path
           style="fill:#000000;stroke-width:0"
           inkscape:connector-curvature="0"
           d="m 1295.9,191.16 0,0.06 0,0.05 0,0.06 0,0.05 0,0.06 0,0.05 0,0.05 0,0.05 0,0.04 0,0.05 0,0.04 0,0.04 0,0.04 0,0.04 0,0.04 0,0.03 0,0.04 0,0.03 0,0.03 0,0.03 -0.1,0.06 0,0.05 0,0.05 0,0.04 -0.1,0.04 0,0.03 0,0.04 -0.1,0.02 0,0.03 -0.1,0.02 0,0.01 0,0.01 -0.1,0.01 0,0.01 0,0 -0.1,0.01 0,0 0,0.01 -0.1,0 0,0 -0.1,0.01 0,0 0,0 -0.1,0 0,0.01 -0.1,0 0,0 -0.1,0 0,0 -0.1,0 -0.1,0 0,0 -0.1,0 h -3.2 c -1.3,0 -1.4,-0.05 -1.4,-1.34 v -13.25 c 0,-1.3 0.1,-1.35 1.4,-1.35 h 3.2 c 1.4,0 1.4,0.05 1.4,1.35 z"
           id="path8877" /><path
           style="fill:#000000;stroke-width:0"
           inkscape:connector-curvature="0"
           d="m 1295.9,109.25 0,0.41 0,0.44 0,0.48 0.1,0.51 0,0.53 0.1,0.57 0,0.59 0.1,0.61 0.1,0.64 0.1,0.66 0.1,0.67 0.2,0.69 0.1,0.71 0.2,0.72 0.3,0.74 0.2,0.74 0.3,0.75 0.3,0.76 0.3,0.76 0.4,0.77 0.3,0.76 0.5,0.77 0.4,0.76 0.5,0.76 0.6,0.75 0.5,0.75 0.6,0.74 0.7,0.72 0.7,0.71 0.7,0.7 0.8,0.68 0.9,0.67 c 0.5,0.45 0.6,0.5 0.6,1.39 0,0.9 -0.1,0.95 -0.6,1.4 -1.3,0.99 -4.8,3.63 -7.2,8.66 -1.9,3.98 -2.9,8.42 -2.9,12.86 v 21.08 c 0,1.29 0,1.34 -1.4,1.34 h -3.2 c -1.3,0 -1.4,-0.05 -1.4,-1.34 v -21.04 c 0,-6.03 2.6,-16.18 13.7,-22.96 -11.2,-6.83 -13.7,-17.08 -13.7,-22.97 V 88.172 c 0,-1.297 0.1,-1.344 1.4,-1.344 h 3.2 c 1.4,0 1.4,0.047 1.4,1.344 z"
           id="path8879" /><path
           style="fill:#000000;stroke-width:0"
           inkscape:connector-curvature="0"
           d="m 1295.9,86.516 0,0.059 0,0.059 0,0.056 0,0.054 0,0.053 0,0.051 0,0.05 0,0.048 0,0.046 0,0.045 0,0.043 0,0.041 0,0.04 0,0.039 0,0.037 0,0.036 0,0.034 0,0.033 0,0.032 0,0.03 -0.1,0.057 0,0.052 0,0.047 0,0.043 -0.1,0.038 0,0.035 0,0.031 -0.1,0.027 0,0.024 -0.1,0.02 0,0.018 0,0.008 -0.1,0.007 0,0.007 0,0.006 -0.1,0.005 0,0.005 0,0.004 -0.1,0.004 0,0.004 -0.1,0.003 0,0.002 0,0.002 -0.1,0.002 0,0.002 -0.1,10e-4 0,0.001 -0.1,0.001 0,10e-4 -0.1,0 -0.1,0 0,0 -0.1,0 h -3.2 c -1.3,0 -1.4,-0.047 -1.4,-1.343 v -13.25 c 0,-1.297 0.1,-1.344 1.4,-1.344 h 3.2 c 1.4,0 1.4,0.047 1.4,1.344 z"
           id="path8881" /><path
           style="fill:#000000;stroke-width:0"
           inkscape:connector-curvature="0"
           d="m 1295.9,71.637 0,0.06 0,0.058 0,0.056 0,0.055 0,0.052 0,0.051 0,0.05 0,0.048 0,0.046 0,0.045 0,0.043 0,0.041 0,0.04 0,0.039 0,0.037 0,0.036 0,0.034 0,0.033 0,0.032 0,0.03 -0.1,0.057 0,0.052 0,0.047 0,0.043 -0.1,0.038 0,0.035 0,0.031 -0.1,0.027 0,0.024 -0.1,0.02 0,0.018 0,0.008 -0.1,0.007 0,0.007 0,0.006 -0.1,0.005 0,0.005 0,0.004 -0.1,0.004 0,0.004 -0.1,0.003 0,0.002 0,0.002 -0.1,0.002 0,0.002 -0.1,0.001 0,10e-4 -0.1,0.001 0,0.001 -0.1,0 -0.1,0 0,0 -0.1,0 h -3.2 c -1.3,0 -1.4,-0.046 -1.4,-1.343 v -13.25 c 0,-1.297 0.1,-1.344 1.4,-1.344 h 3.2 c 1.4,0 1.4,0.047 1.4,1.344 z"
           id="path8883" /><path
           style="fill:#000000;stroke-width:0"
           inkscape:connector-curvature="0"
           d="m 1295.9,56.637 0,0.06 0,0.058 0,0.056 0,0.055 0,0.052 0,0.051 0,0.05 0,0.048 0,0.046 0,0.045 0,0.043 0,0.041 0,0.04 0,0.039 0,0.037 0,0.036 0,0.034 0,0.033 0,0.032 0,0.03 -0.1,0.057 0,0.052 0,0.047 0,0.043 -0.1,0.038 0,0.035 0,0.031 -0.1,0.027 0,0.024 -0.1,0.02 0,0.018 0,0.008 -0.1,0.007 0,0.007 0,0.006 -0.1,0.005 0,0.005 0,0.004 -0.1,0.004 0,0.004 -0.1,0.003 0,0.002 0,0.002 -0.1,0.002 0,0.002 -0.1,10e-4 0,0.001 -0.1,10e-4 0,10e-4 -0.1,0 -0.1,0 0,0 -0.1,0 h -3.2 c -1.3,0 -1.4,-0.046 -1.4,-1.343 v -13.25 c 0,-1.297 0.1,-1.344 1.4,-1.344 h 3.2 c 1.4,0 1.4,0.047 1.4,1.344 z"
           id="path8885" /><path
           style="fill:#000000;stroke-width:0"
           inkscape:connector-curvature="0"
           d="m 1295.9,41.637 0,0.06 0,0.058 0,0.056 0,0.055 0,0.052 0,0.051 0,0.05 0,0.048 0,0.046 0,0.045 0,0.043 0,0.041 0,0.04 0,0.039 0,0.037 0,0.036 0,0.034 0,0.033 0,0.032 0,0.03 -0.1,0.057 0,0.052 0,0.047 0,0.043 -0.1,0.038 0,0.035 0,0.031 -0.1,0.027 0,0.024 -0.1,0.02 0,0.018 0,0.008 -0.1,0.007 0,0.007 0,0.006 -0.1,0.005 0,0.005 0,0.004 -0.1,0.004 0,0.004 -0.1,0.003 0,0.002 0,0.002 -0.1,0.002 0,0.002 -0.1,10e-4 0,0.001 -0.1,10e-4 0,10e-4 -0.1,0 -0.1,0 0,0 -0.1,0 h -3.2 c -1.3,0 -1.4,-0.046 -1.4,-1.343 v -13.25 c 0,-1.297 0.1,-1.344 1.4,-1.344 h 3.2 c 1.4,0 1.4,0.047 1.4,1.344 z"
           id="path8887" /><path
           style="fill:#000000;stroke-width:0"
           inkscape:connector-curvature="0"
           d="m 1295.9,26.758 0,0.06 0,0.058 0,0.056 0,0.055 0,0.052 0,0.052 0,0.049 0,0.048 0,0.046 0,0.045 0,0.043 0,0.041 0,0.04 0,0.039 0,0.037 0,0.036 0,0.034 0,0.033 0,0.032 0,0.03 -0.1,0.057 0,0.052 0,0.047 0,0.043 -0.1,0.039 0,0.034 0,0.031 -0.1,0.027 0,0.024 -0.1,0.02 0,0.018 0,0.008 -0.1,0.007 0,0.007 0,0.006 -0.1,0.005 0,0.005 0,0.004 -0.1,0.004 0,0.004 -0.1,0.003 0,0.002 0,0.003 -0.1,10e-4 0,0.002 -0.1,10e-4 0,0.001 -0.1,0.001 0,10e-4 -0.1,0 -0.1,0 0,0.001 -0.1,0 h -3.2 c -1.3,0 -1.4,-0.047 -1.4,-1.344 v -13.25 c 0,-1.297 0.1,-1.344 1.4,-1.344 h 3.2 c 1.4,0 1.4,0.047 1.4,1.344 z"
           id="path8889" /><path
           style="fill:#000000;stroke-width:0"
           inkscape:connector-curvature="0"
           d="m 1295.9,11.758 0,0.06 0,0.058 0,0.056 0,0.055 0,0.052 0,0.052 0,0.049 0,0.048 0,0.046 0,0.045 0,0.043 0,0.041 0,0.04 0,0.039 0,0.037 0,0.036 0,0.034 0,0.033 0,0.032 0,0.03 -0.1,0.057 0,0.052 0,0.047 0,0.043 -0.1,0.039 0,0.034 0,0.031 -0.1,0.027 0,0.024 -0.1,0.02 0,0.018 0,0.008 -0.1,0.007 0,0.007 0,0.006 -0.1,0.005 0,0.005 0,0.004 -0.1,0.004 0,0.004 -0.1,0.003 0,0.002 0,0.003 -0.1,0.001 0,0.002 -0.1,0.001 0,10e-4 -0.1,10e-4 0,0.001 -0.1,0 -0.1,0 0,10e-4 -0.1,0 h -3.2 c -1.3,0 -1.4,-0.047 -1.4,-1.344 V -1.4922 c 0,-1.2969 0.1,-1.3437 1.4,-1.3437 h 3.2 c 1.4,0 1.4,0.0468 1.4,1.3437 z"
           id="path8891" /><path
           style="fill:#000000;stroke-width:0"
           inkscape:connector-curvature="0"
           d="m 1295.9,-3.125 0,0.0599 0,0.0581 0,0.0563 0,0.0545 0,0.0528 0,0.0512 0,0.0494 0,0.0479 0,0.0462 0,0.0446 0,0.0431 0,0.0416 0,0.04 0,0.0386 0,0.0372 0,0.0357 0,0.0343 0,0.033 0,0.0316 0,0.0303 -0.1,0.0569 0,0.0519 0,0.0472 0,0.0428 -0.1,0.0386 0,0.0345 0,0.0307 -0.1,0.0272 0,0.0238 -0.1,0.0206 0,0.0178 0,0.0078 -0.1,0.0072 0,0.0066 0,0.006 -0.1,0.0054 0,0.0049 0,0.0043 -0.1,0.0039 0,0.0035 -0.1,0.003 0,0.0026 0,0.0022 -0.1,0.0019 0,0.0016 -0.1,0.0013 0,10e-4 -0.1,8e-4 0,6e-4 -0.1,4e-4 -0.1,3e-4 0,10e-5 -0.1,1e-4 h -3.2 c -1.3,0 -1.4,-0.0469 -1.4,-1.3438 v -13.25 c 0,-1.297 0.1,-1.344 1.4,-1.344 h 3.2 c 1.4,0 1.4,0.047 1.4,1.344 z"
           id="path8893" /><path
           style="fill:#000000;stroke-width:0"
           inkscape:connector-curvature="0"
           d="m 1295.9,-18.125 0,0.06 0,0.058 0,0.056 0,0.055 0,0.053 0,0.051 0,0.049 0,0.048 0,0.046 0,0.045 0,0.043 0,0.042 0,0.04 0,0.038 0,0.037 0,0.036 0,0.034 0,0.033 0,0.032 0,0.03 -0.1,0.057 0,0.052 0,0.047 0,0.043 -0.1,0.039 0,0.034 0,0.031 -0.1,0.027 0,0.024 -0.1,0.021 0,0.017 0,0.008 -0.1,0.007 0,0.007 0,0.006 -0.1,0.005 0,0.005 0,0.004 -0.1,0.004 0,0.004 -0.1,0.003 0,0.002 0,0.003 -0.1,0.002 0,10e-4 -0.1,0.001 0,0.001 -0.1,10e-4 0,0.001 -0.1,0 -0.1,0.001 0,0 -0.1,0 h -3.2 c -1.3,0 -1.4,-0.047 -1.4,-1.344 v -13.25 c 0,-1.297 0.1,-1.344 1.4,-1.344 h 3.2 c 1.4,0 1.4,0.047 1.4,1.344 z"
           id="path8895" /><path
           style="fill:#000000;stroke-width:0"
           inkscape:connector-curvature="0"
           d="m 1295.9,-33.004 0,0.06 0,0.058 0,0.056 0,0.055 0,0.053 0,0.051 0,0.049 0,0.048 0,0.046 0,0.045 0,0.043 0,0.042 0,0.04 0,0.038 0,0.037 0,0.036 0,0.035 0,0.032 0,0.032 0,0.03 -0.1,0.057 0,0.052 0,0.047 0,0.043 -0.1,0.039 0,0.034 0,0.031 -0.1,0.027 0,0.024 -0.1,0.021 0,0.017 0,0.008 -0.1,0.007 0,0.007 0,0.006 -0.1,0.005 0,0.005 0,0.005 -0.1,0.003 0,0.004 -0.1,0.003 0,0.003 0,0.002 -0.1,0.002 0,0.001 -0.1,0.002 0,0.001 -0.1,0 0,10e-4 -0.1,0 -0.1,0.001 0,0 -0.1,0 h -3.2 c -1.3,0 -1.4,-0.047 -1.4,-1.344 v -13.25 c 0,-1.297 0.1,-1.344 1.4,-1.344 h 3.2 c 1.4,0 1.4,0.047 1.4,1.344 z"
           id="path8897" /><path
           style="fill:#000000;stroke-width:0"
           inkscape:connector-curvature="0"
           d="m 1295.9,-48.004 0,0.06 0,0.058 0,0.056 0,0.055 0,0.053 0,0.051 0,0.049 0,0.048 0,0.046 0,0.045 0,0.043 0,0.042 0,0.04 0,0.038 0,0.037 0,0.036 0,0.035 0,0.032 0,0.032 0,0.03 -0.1,0.057 0,0.052 0,0.047 0,0.043 -0.1,0.039 0,0.034 0,0.031 -0.1,0.027 0,0.024 -0.1,0.021 0,0.017 0,0.008 -0.1,0.007 0,0.007 0,0.006 -0.1,0.005 0,0.005 0,0.005 -0.1,0.003 0,0.004 -0.1,0.003 0,0.003 0,0.002 -0.1,0.002 0,10e-4 -0.1,0.002 0,10e-4 -0.1,0 0,10e-4 -0.1,0 -0.1,0.001 0,0 -0.1,0 h -3.2 c -1.3,0 -1.4,-0.047 -1.4,-1.344 v -13.25 c 0,-1.297 0.1,-1.344 1.4,-1.344 h 3.2 c 1.4,0 1.4,0.047 1.4,1.344 z"
           id="path8899" /><path
           style="fill:#000000;stroke-width:0"
           inkscape:connector-curvature="0"
           d="m 1295.9,-62.883 0,0.06 0,0.058 0,0.056 0,0.055 0,0.053 0,0.051 0,0.049 0,0.048 0,0.047 0,0.044 0,0.043 0,0.042 0,0.04 0,0.038 0,0.038 0,0.035 0,0.035 0,0.033 0,0.031 0,0.031 -0.1,0.056 0,0.052 0,0.048 0,0.042 -0.1,0.039 0,0.034 0,0.031 -0.1,0.027 0,0.024 -0.1,0.021 0,0.017 0,0.008 -0.1,0.007 0,0.007 0,0.006 -0.1,0.005 0,0.005 0,0.005 -0.1,0.004 0,0.003 -0.1,0.003 0,0.003 0,0.002 -0.1,0.002 0,0.001 -0.1,0.002 0,0.001 -0.1,0 0,10e-4 -0.1,0 -0.1,10e-4 0,0 -0.1,0 h -3.2 c -1.3,0 -1.4,-0.047 -1.4,-1.344 v -13.25 c 0,-1.297 0.1,-1.344 1.4,-1.344 h 3.2 c 1.4,0 1.4,0.047 1.4,1.344 z"
           id="path8901" /><path
           style="fill:#000000;stroke-width:0"
           inkscape:connector-curvature="0"
           d="m 1295.9,-77.883 0,0.06 0,0.058 0,0.056 0,0.055 0,0.053 0,0.051 0,0.049 0,0.048 0,0.047 0,0.044 0,0.043 0,0.042 0,0.04 0,0.038 0,0.038 0,0.035 0,0.035 0,0.033 0,0.031 0,0.031 -0.1,0.056 0,0.052 0,0.048 0,0.042 -0.1,0.039 0,0.034 0,0.031 -0.1,0.027 0,0.024 -0.1,0.021 0,0.017 0,0.008 -0.1,0.007 0,0.007 0,0.006 -0.1,0.005 0,0.005 0,0.005 -0.1,0.004 0,0.003 -0.1,0.003 0,0.003 0,0.002 -0.1,0.002 0,0.001 -0.1,0.002 0,0.001 -0.1,0 0,10e-4 -0.1,0 -0.1,0.001 0,0 -0.1,0 h -3.2 c -1.3,0 -1.4,-0.047 -1.4,-1.344 v -13.25 c 0,-1.297 0.1,-1.344 1.4,-1.344 h 3.2 c 1.4,0 1.4,0.047 1.4,1.344 z"
           id="path8903" /><path
           style="fill:#000000;stroke-width:0"
           inkscape:connector-curvature="0"
           d="m 1289.9,-114.19 0,-0.42 0,-0.45 0,-0.48 0,-0.5 -0.1,-0.52 0,-0.55 -0.1,-0.56 -0.1,-0.59 -0.1,-0.6 -0.1,-0.62 -0.2,-0.63 -0.1,-0.65 -0.2,-0.66 -0.2,-0.66 -0.2,-0.68 -0.3,-0.68 -0.2,-0.69 -0.3,-0.69 -0.4,-0.7 -0.3,-0.69 -0.4,-0.7 -0.4,-0.69 -0.5,-0.69 -0.5,-0.68 -0.5,-0.68 -0.6,-0.67 -0.5,-0.66 -0.7,-0.65 -0.7,-0.63 -0.7,-0.62 -0.7,-0.61 -0.8,-0.59 c -0.7,-0.48 -0.7,-0.54 -0.7,-1.44 0,-1.14 0,-1.2 1.3,-1.2 h 0.8 c 10.7,5.78 14.5,15.2 14.5,22.53 v 21.424 c 0,1.297 0,1.344 -1.4,1.344 h -3.2 c -1.3,0 -1.4,-0.047 -1.4,-1.344 z"
           id="path8905" /></g>    </g>
    <g
       id="g9272"
       transform="matrix(0.27,0,0,0.27,313.01682,311.77911)">
      <g
         word-spacing="normal"
         letter-spacing="normal"
         font-size-adjust="none"
         font-stretch="normal"
         font-weight="normal"
         font-variant="normal"
         font-style="normal"
         stroke-miterlimit="10.433"
         xml:space="preserve"
         transform="matrix(1.0629921,0,0,-1.0629921,-186.02362,789.27165)"
         id="g9274"
         style="font-style:normal;font-variant:normal;font-weight:normal;font-stretch:normal;letter-spacing:normal;word-spacing:normal;text-anchor:start;fill:none;stroke:#000000;stroke-width:3.70370364;stroke-linecap:butt;stroke-linejoin:miter;stroke-miterlimit:10.43299961;stroke-opacity:1;stroke-dasharray:none;stroke-dashoffset:0"><path
           id="path9276"
           d="m 1231.2,349.24 0.1,-0.19 0.1,-0.19 0,-0.18 0.1,-0.17 0.1,-0.17 0.1,-0.17 0.1,-0.16 0.1,-0.16 0.1,-0.15 0.1,-0.14 0.1,-0.14 0.1,-0.14 0.2,-0.13 0.1,-0.12 0.1,-0.12 0.2,-0.11 0.1,-0.11 0.2,-0.1 0.1,-0.09 0.2,-0.09 0.1,-0.08 0.2,-0.07 0.2,-0.07 0.2,-0.06 0.1,-0.05 0.2,-0.05 0.2,-0.04 0.2,-0.04 0.2,-0.02 0.2,-0.02 0.2,-0.01 0.2,-0.01 c 1.7,0 2.9,1.15 3.7,2.74 0.8,1.8 1.4,4.84 1.4,4.94 0,0.5 -0.4,0.5 -0.6,0.5 -0.4,0 -0.5,-0.21 -0.6,-0.91 -0.7,-2.78 -1.7,-6.17 -3.8,-6.17 -1,0 -1.5,0.65 -1.5,2.3 0,1.09 0.6,3.43 1,5.17 l 1.4,5.39 c 0.1,0.75 0.6,2.64 0.8,3.39 0.3,1.14 0.8,3.03 0.8,3.33 0,0.9 -0.7,1.34 -1.5,1.34 -0.2,0 -1.5,-0.05 -1.9,-1.73 -1,-3.64 -3.2,-12.36 -3.8,-15 0,-0.21 -2,-4.19 -5.6,-4.19 -2.6,0 -3.1,2.25 -3.1,4.09 0,2.78 1.4,6.72 2.7,10.16 0.6,1.5 0.8,2.19 0.8,3.14 0,2.23 -1.6,4.08 -4.1,4.08 -4.7,0 -6.6,-7.22 -6.6,-7.67 0,-0.5 0.5,-0.5 0.6,-0.5 0.5,0 0.6,0.1 0.8,0.9 1.3,4.33 3.2,6.17 5.1,6.17 0.4,0 1.2,-0.04 1.2,-1.64 0,-1.2 -0.5,-2.64 -0.8,-3.39 -1.9,-4.94 -2.9,-8.01 -2.9,-10.45 0,-4.74 3.4,-5.99 6.1,-5.99 3.3,0 5.1,2.24 5.9,3.35 z"
           inkscape:connector-curvature="0"
           style="fill:#000000;stroke-width:0" /><path
           id="path9278"
           d="m 1257.1,352.19 -0.1,0.11 -0.1,0.1 -0.1,0.11 0,0.1 -0.1,0.1 -0.1,0.09 -0.1,0.1 -0.1,0.09 -0.1,0.09 -0.1,0.09 -0.1,0.09 -0.1,0.08 -0.1,0.08 -0.1,0.08 -0.1,0.07 -0.1,0.07 -0.1,0.07 -0.1,0.06 -0.1,0.06 -0.2,0.06 -0.1,0.05 -0.1,0.05 -0.1,0.05 -0.2,0.04 -0.1,0.03 -0.1,0.04 -0.2,0.02 -0.1,0.03 -0.2,0.01 -0.1,0.02 -0.2,0.01 -0.1,0 v -0.97 c 2.4,0 3.1,-2.64 3.1,-3.03 0,-0.14 -0.1,-0.39 -0.1,-0.49 l -1.7,-6.51 c -0.2,-0.99 -1,-1.67 -1.7,-2.35 -0.3,-0.26 -1.8,-1.39 -3.3,-1.39 -1.2,0 -2.5,0.91 -2.5,3.38 0,1.86 1,5.69 1.8,7.08 1.6,2.79 3.4,3.31 4.4,3.31 v 0.97 c -4.5,0 -9,-4.91 -9,-9.92 0,-3.38 2.3,-5.78 5.3,-5.78 1.8,0 3.5,1.07 4.9,2.43 0.7,-2.09 2.7,-2.43 3.6,-2.43 1.2,0 2.1,0.76 2.7,1.84 0.8,1.36 1.2,3.34 1.2,3.48 0,0.46 -0.4,0.46 -0.5,0.46 -0.5,0 -0.5,-0.14 -0.8,-1.08 -0.4,-1.67 -1.1,-3.74 -2.5,-3.74 -0.9,0 -1.2,0.77 -1.2,1.71 0,0.59 0.3,1.86 0.6,2.76 0.2,0.94 0.6,2.36 0.7,3.13 l 0.7,2.65 c 0.2,0.91 0.6,2.55 0.6,2.72 0,0.77 -0.6,1.11 -1.1,1.11 -0.6,0 -1.4,-0.42 -1.6,-1.39 z"
           inkscape:connector-curvature="0"
           style="fill:#000000;stroke-width:0" /></g>    </g>
    <path
       style="fill:none;stroke:#000000;stroke-width:1px;stroke-linecap:butt;stroke-linejoin:miter;stroke-opacity:1;marker-end:url(#TriangleOutL)"
       d="m 513.77953,343.70077 0,-13.75871"
       id="path9465"
       inkscape:connector-curvature="0" />
    <path
       style="fill:none;stroke:#000000;stroke-width:1px;stroke-linecap:butt;stroke-linejoin:miter;stroke-opacity:1"
       d="m 513.77953,503.14958 0,17.71654"
       id="path10277"
       inkscape:connector-curvature="0" />
    <path
       style="fill:none;stroke:#000000;stroke-width:1px;stroke-linecap:butt;stroke-linejoin:miter;stroke-opacity:1"
       d="m 503.14961,520.86612 21.25984,0"
       id="path10279"
       inkscape:connector-curvature="0" />
    <g
       id="g10416"
       transform="matrix(0.27,0,0,0.27,137.40786,423.55176)">
      <g
         id="content"
         transform="matrix(1.0629921,0,0,-1.0629921,-186.02362,789.27165)"
         xml:space="preserve"
         stroke-miterlimit="10.433"
         font-style="normal"
         font-variant="normal"
         font-weight="normal"
         font-stretch="normal"
         font-size-adjust="none"
         letter-spacing="normal"
         word-spacing="normal"
         style="font-style:normal;font-variant:normal;font-weight:normal;font-stretch:normal;letter-spacing:normal;word-spacing:normal;text-anchor:start;fill:none;stroke:#000000;stroke-width:3.70370364;stroke-linecap:butt;stroke-linejoin:miter;stroke-miterlimit:10.43299961;stroke-opacity:1;stroke-dasharray:none;stroke-dashoffset:0"><path
           d="m 1196.4,349.58 0.1,-0.1 0.1,-0.11 0,-0.12 0.1,-0.12 0.1,-0.12 0.1,-0.12 0.1,-0.13 0.1,-0.12 0.1,-0.13 0.1,-0.13 0.3,-0.26 0.2,-0.25 0.3,-0.25 0.1,-0.11 0.1,-0.12 0.1,-0.11 0.1,-0.1 0.2,-0.1 0.1,-0.09 0.1,-0.09 0.1,-0.08 0.1,-0.08 0.1,-0.06 0.1,-0.06 0,-0.04 0.1,-0.04 0.1,-0.03 0,-0.01 0.1,-0.01 0,0 0,0 c 0.5,0 0.5,0.4 0.5,1.15 v 8.66 c 0,1.95 0.1,2.2 3.4,2.2 v 1.54 c -1.8,-0.05 -4.6,-0.15 -6.1,-0.15 -2,0 -6.2,0 -8,0.15 v -1.54 h 1.6 c 4.5,0 4.6,-0.54 4.6,-2.39 v -3.18 c 0,-5.6 -6.3,-6.04 -7.7,-6.04 -3.2,0 -13.1,1.74 -13.1,16.58 0,14.91 9.8,16.55 12.8,16.55 5.3,0 9.9,-4.48 10.9,-11.81 0.1,-0.69 0.1,-0.85 0.8,-0.85 0.8,0 0.8,0.16 0.8,1.21 v 11.79 c 0,0.86 0,1.21 -0.6,1.21 -0.2,0 -0.4,0 -0.8,-0.6 l -2.5,-3.68 c -1.6,1.59 -4.3,4.28 -9.2,4.28 -9.3,0 -17.3,-7.88 -17.3,-18.1 0,-10.2 7.9,-18.12 17.4,-18.12 3.6,0 7.6,1.29 9.3,4.23 z"
           id="path10419"
           inkscape:connector-curvature="0"
           style="fill:#000000;stroke-width:0" /><path
           d="m 1217.6,379.82 -0.1,0.05 0,0.05 -0.1,0.05 0,0.05 0,0.04 -0.1,0.04 0,0.04 0,0.04 -0.1,0.03 0,0.03 0,0.03 0,0.02 -0.1,0.03 0,0.02 0,0.02 -0.1,0.01 0,0.02 -0.1,0.01 0,0.02 0,0.01 -0.1,0.01 0,0 -0.1,0.01 0,0.01 -0.1,0 0,0 -0.1,0.01 -0.1,0 0,0 -0.1,0 0,0 -0.1,0 0,0 0,0 -0.1,0 h -8.5 v -1.54 h 1.5 c 0.7,0 1.7,-0.05 2.5,-0.1 1.1,-0.15 1.2,-0.2 1.2,-1.15 v -26 c 0,-1.35 0,-3.69 -5.2,-3.69 v -1.55 c 1.8,0.05 4.2,0.16 5.9,0.16 1.6,0 4.1,-0.11 5.8,-0.16 v 1.55 c -5.1,0 -5.1,2.34 -5.1,3.69 v 25.9 c 0.2,-0.25 0.3,-0.29 0.5,-0.59 l 20.3,-29.91 c 0.4,-0.59 0.5,-0.64 0.8,-0.64 0.7,0 0.7,0.35 0.7,1.3 v 27.5 c 0,1.34 0,3.69 5.2,3.69 v 1.54 c -1.8,-0.04 -4.2,-0.15 -5.9,-0.15 -1.6,0 -4,0.11 -5.8,0.15 v -1.54 c 5.1,0 5.1,-2.35 5.1,-3.69 v -21.28 z"
           id="path10421"
           inkscape:connector-curvature="0"
           style="fill:#000000;stroke-width:0" /><path
           d="m 1245.1,380.47 v -1.54 h 1.1 c 3.9,0 4,-0.55 4,-2.35 v -26.25 c 0,-1.79 -0.1,-2.34 -4,-2.34 h -1.1 v -1.55 h 18.2 l -1.4,1.55 h -5 c -2.3,0 -2.4,0.34 -2.4,1.98 v 26.96 c 0,1.65 0.1,2 2.4,2 h 5 c 3.1,0 6.5,-1.1 9.1,-4.64 2.1,-2.94 2.6,-7.22 2.6,-11.11 0,-5.54 -1,-8.52 -2.8,-10.96 -1,-1.34 -3.8,-4.23 -8.9,-4.23 l 1.4,-1.55 c 8.4,0 15.2,7.38 15.2,16.74 0,9.46 -6.7,17.29 -15.2,17.29 z"
           id="path10423"
           inkscape:connector-curvature="0"
           style="fill:#000000;stroke-width:0" /><path
           d="m 1297.1,362.93 0,0.05 0,0.05 0,0.04 -0.1,0.05 0,0.04 0,0.04 0,0.04 0,0.04 0,0.04 -0.1,0.03 0,0.04 0,0.03 0,0.03 0,0.03 -0.1,0.02 0,0.03 0,0.02 0,0.03 -0.1,0.02 0,0.02 0,0.01 -0.1,0.02 0,0.01 0,0.02 -0.1,0.01 0,0.01 -0.1,0 0,0.01 -0.1,0.01 0,0 -0.1,0 0,0 c -0.7,0 -0.8,-0.25 -1,-0.79 l -8.1,-20.39 c -0.3,-0.88 -0.9,-2.41 -4.1,-2.41 v -1.25 c 1.2,0.11 2.4,0.14 3.6,0.14 1.4,0 4,-0.14 4.2,-0.14 v 1.25 c -1.5,0 -2.5,0.7 -2.5,1.67 0,0.28 0,0.36 0.2,0.7 l 1.7,4.29 0.5,1.26 4.4,11.31 4.5,-11.31 h -8.9 l -0.5,-1.26 h 9.9 l 2,-5.08 c 0,-0.19 0.1,-0.42 0.1,-0.6 0,-0.98 -1.8,-0.98 -2.8,-0.98 v -1.25 c 1.8,0.06 4,0.14 5.2,0.14 1.7,0 4.3,-0.11 4.6,-0.14 v 1.25 h -0.6 c -2.4,0 -2.6,0.36 -3,1.33 z"
           id="path10425"
           inkscape:connector-curvature="0"
           style="fill:#000000;stroke-width:0" /></g>    </g>
    <g
       id="g10707"
       transform="matrix(0.27,0,0,0.27,208.40316,423.55176)">
      <g
         word-spacing="normal"
         letter-spacing="normal"
         font-size-adjust="none"
         font-stretch="normal"
         font-weight="normal"
         font-variant="normal"
         font-style="normal"
         stroke-miterlimit="10.433"
         xml:space="preserve"
         transform="matrix(1.0629921,0,0,-1.0629921,-186.02362,789.27165)"
         id="g10709"
         style="font-style:normal;font-variant:normal;font-weight:normal;font-stretch:normal;letter-spacing:normal;word-spacing:normal;text-anchor:start;fill:none;stroke:#000000;stroke-width:3.70370364;stroke-linecap:butt;stroke-linejoin:miter;stroke-miterlimit:10.43299961;stroke-opacity:1;stroke-dasharray:none;stroke-dashoffset:0"><path
           id="path10711"
           d="m 1196.2,349.58 0.1,-0.1 0,-0.11 0.1,-0.12 0.1,-0.12 0.1,-0.12 0.1,-0.12 0.1,-0.13 0.1,-0.12 0.1,-0.13 0.1,-0.13 0.2,-0.26 0.3,-0.25 0.2,-0.25 0.1,-0.11 0.2,-0.12 0.1,-0.11 0.1,-0.1 0.1,-0.1 0.1,-0.09 0.1,-0.09 0.1,-0.08 0.1,-0.08 0.1,-0.06 0.1,-0.06 0.1,-0.04 0.1,-0.04 0.1,-0.03 0,-0.01 0,-0.01 0.1,0 0,0 c 0.4,0 0.4,0.4 0.4,1.15 v 8.66 c 0,1.95 0.2,2.2 3.5,2.2 v 1.54 c -1.9,-0.05 -4.6,-0.15 -6.1,-0.15 -2,0 -6.3,0 -8,0.15 v -1.54 h 1.6 c 4.4,0 4.6,-0.54 4.6,-2.39 v -3.18 c 0,-5.6 -6.3,-6.04 -7.7,-6.04 -3.3,0 -13.1,1.74 -13.1,16.58 0,14.91 9.8,16.55 12.8,16.55 5.3,0 9.8,-4.48 10.8,-11.81 0.1,-0.69 0.1,-0.85 0.8,-0.85 0.8,0 0.8,0.16 0.8,1.21 v 11.79 c 0,0.86 0,1.21 -0.5,1.21 -0.2,0 -0.4,0 -0.8,-0.6 l -2.5,-3.68 c -1.6,1.59 -4.3,4.28 -9.2,4.28 -9.3,0 -17.4,-7.88 -17.4,-18.1 0,-10.2 8,-18.12 17.5,-18.12 3.6,0 7.6,1.29 9.3,4.23 z"
           inkscape:connector-curvature="0"
           style="fill:#000000;stroke-width:0" /><path
           id="path10713"
           d="m 1217.3,379.82 0,0.05 -0.1,0.05 0,0.05 0,0.05 -0.1,0.04 0,0.04 0,0.04 -0.1,0.04 0,0.03 0,0.03 -0.1,0.03 0,0.02 0,0.03 0,0.02 -0.1,0.02 0,0.01 -0.1,0.02 0,0.01 0,0.02 -0.1,0.01 0,0.01 -0.1,0 0,0.01 -0.1,0.01 0,0 -0.1,0 0,0.01 -0.1,0 -0.1,0 0,0 -0.1,0 0,0 0,0 -0.1,0 0,0 h -8.5 v -1.54 h 1.4 c 0.8,0 1.8,-0.05 2.5,-0.1 1.2,-0.15 1.2,-0.2 1.2,-1.15 v -26 c 0,-1.35 0,-3.69 -5.1,-3.69 v -1.55 c 1.8,0.05 4.2,0.16 5.8,0.16 1.7,0 4.1,-0.11 5.9,-0.16 v 1.55 c -5.2,0 -5.2,2.34 -5.2,3.69 v 25.9 c 0.3,-0.25 0.3,-0.29 0.5,-0.59 l 20.4,-29.91 c 0.4,-0.59 0.5,-0.64 0.8,-0.64 0.7,0 0.7,0.35 0.7,1.3 v 27.5 c 0,1.34 0,3.69 5.1,3.69 v 1.54 c -1.7,-0.04 -4.2,-0.15 -5.8,-0.15 -1.6,0 -4.1,0.11 -5.8,0.15 v -1.54 c 5.1,0 5.1,-2.35 5.1,-3.69 v -21.28 z"
           inkscape:connector-curvature="0"
           style="fill:#000000;stroke-width:0" /><path
           id="path10715"
           d="m 1244.8,380.47 v -1.54 h 1.2 c 3.9,0 3.9,-0.55 3.9,-2.35 v -26.25 c 0,-1.79 0,-2.34 -3.9,-2.34 h -1.2 v -1.55 h 18.3 l -1.4,1.55 h -5 c -2.4,0 -2.5,0.34 -2.5,1.98 v 26.96 c 0,1.65 0.1,2 2.5,2 h 5 c 3.1,0 6.5,-1.1 9,-4.64 2.2,-2.94 2.6,-7.22 2.6,-11.11 0,-5.54 -0.9,-8.52 -2.7,-10.96 -1,-1.34 -3.8,-4.23 -8.9,-4.23 l 1.4,-1.55 c 8.3,0 15.2,7.38 15.2,16.74 0,9.46 -6.7,17.29 -15.2,17.29 z"
           inkscape:connector-curvature="0"
           style="fill:#000000;stroke-width:0" /><path
           id="path10717"
           d="m 1283.1,362.68 v -1.25 h 0.9 c 2.7,0 2.7,-0.35 2.7,-1.58 v -18.14 c 0,-1.19 0,-1.58 -2.7,-1.58 h -0.9 v -1.25 h 13.8 l -1,1.25 h -4.3 c -1.7,0 -1.7,0.28 -1.7,1.36 v 18.58 c 0,1.07 0,1.36 1.7,1.36 h 4.3 c 3,0 5.5,-1.22 7.1,-3.29 1.5,-1.87 2,-4.53 2,-7.56 0,-4.03 -1,-6.12 -2.2,-7.59 -1.6,-1.78 -4.1,-2.86 -6.9,-2.86 l 1,-1.25 c 6.4,0 11.7,5.16 11.7,11.7 0,6.63 -5.2,12.1 -11.7,12.1 z"
           inkscape:connector-curvature="0"
           style="fill:#000000;stroke-width:0" /></g>    </g>
    <g
       transform="matrix(0.27,0,0,0.27,208.66146,205.38006)"
       id="g11011">
      <g
         style="font-style:normal;font-variant:normal;font-weight:normal;font-stretch:normal;letter-spacing:normal;word-spacing:normal;text-anchor:start;fill:none;stroke:#000000;stroke-width:3.70370364;stroke-linecap:butt;stroke-linejoin:miter;stroke-miterlimit:10.43299961;stroke-opacity:1;stroke-dasharray:none;stroke-dashoffset:0"
         id="g11013"
         transform="matrix(1.0629921,0,0,-1.0629921,-186.02362,789.27165)"
         xml:space="preserve"
         stroke-miterlimit="10.433"
         font-style="normal"
         font-variant="normal"
         font-weight="normal"
         font-stretch="normal"
         font-size-adjust="none"
         letter-spacing="normal"
         word-spacing="normal"><path
           style="fill:#000000;stroke-width:0"
           inkscape:connector-curvature="0"
           d="m 1222.7,375.58 0,0.17 0.1,0.17 0.1,0.17 0.1,0.16 0,0.16 0.1,0.16 0.1,0.16 0.1,0.15 0.1,0.14 0.1,0.15 0.2,0.13 0.1,0.14 0.1,0.13 0.2,0.12 0.1,0.12 0.2,0.12 0.1,0.11 0.2,0.1 0.2,0.1 0.2,0.09 0.2,0.09 0.2,0.08 0.2,0.08 0.2,0.06 0.2,0.06 0.3,0.06 0.2,0.04 0.3,0.04 0.3,0.04 0.3,0.02 0.3,0.02 0.3,0.01 v 1.54 c -1.5,-0.11 -3.5,-0.15 -4.9,-0.15 -1.4,0 -4.3,0.11 -5.6,0.15 v -1.54 c 2.6,-0.05 3.6,-1.35 3.6,-2.49 0,-0.4 -0.1,-0.7 -0.2,-1 l -9.2,-24.01 -9.5,25.15 c -0.3,0.71 -0.3,0.8 -0.3,0.89 0,1.46 2.9,1.46 4.1,1.46 v 1.54 c -1.8,-0.15 -5.2,-0.15 -7.1,-0.15 -2.4,0 -4.6,0.11 -6.3,0.15 v -1.54 c 3.2,0 4.1,0 4.9,-1.89 l 11.5,-30.6 c 0.3,-0.95 0.6,-1.09 1.3,-1.09 0.8,0 0.9,0.25 1.2,0.94 z"
           id="path11015" /><path
           style="fill:#000000;stroke-width:0"
           inkscape:connector-curvature="0"
           d="m 1255.1,362.47 0,0.06 0,0.05 0,0.05 0,0.05 0,0.05 0,0.05 0,0.04 0,0.04 0,0.05 0,0.04 0,0.03 0,0.04 -0.1,0.03 0,0.04 0,0.03 0,0.03 0,0.03 0,0.02 0,0.03 0,0.02 -0.1,0.02 0,0.02 0,0.02 0,0.01 0,0.01 -0.1,0.02 0,0.01 0,0 -0.1,0.01 0,0 0,0 0,0.01 0,0 -0.1,0 0,0 0,0 c -0.1,0 -0.3,0 -0.6,-0.42 l -1.8,-2.66 c -1.5,1.47 -3.9,3.08 -7.3,3.08 -7.3,0 -13.3,-5.66 -13.3,-12.58 0,-7.08 6.1,-12.62 13.3,-12.62 6.2,0 10.2,4.61 10.2,8.86 0,0.37 0,0.65 -0.6,0.65 -0.2,0 -0.6,0 -0.6,-0.45 -0.3,-5.61 -5,-7.8 -8.5,-7.8 -3.7,0 -10.1,2.27 -10.1,11.31 0,9.46 6.8,11.36 10.1,11.36 3.4,0 7.5,-2.29 8.4,-8.28 0.1,-0.42 0.4,-0.42 0.7,-0.42 0.6,0 0.6,0.2 0.6,0.91 z"
           id="path11017" /><path
           style="fill:#000000;stroke-width:0"
           inkscape:connector-curvature="0"
           d="m 1283.5,362.47 0,0.06 0,0.05 0,0.05 0,0.05 0,0.05 0,0.05 0,0.04 0,0.04 0,0.05 0,0.04 0,0.03 0,0.04 0,0.03 0,0.04 0,0.03 0,0.03 -0.1,0.03 0,0.02 0,0.03 0,0.02 0,0.02 0,0.02 -0.1,0.02 0,0.01 0,0.01 0,0.02 -0.1,0.01 0,0 0,0.01 0,0 -0.1,0 0,0.01 0,0 0,0 0,0 -0.1,0 c -0.1,0 -0.3,0 -0.6,-0.42 l -1.8,-2.66 c -1.5,1.47 -3.9,3.08 -7.2,3.08 -7.3,0 -13.4,-5.66 -13.4,-12.58 0,-7.08 6.2,-12.62 13.4,-12.62 6.2,0 10.1,4.61 10.1,8.86 0,0.37 0,0.65 -0.6,0.65 -0.2,0 -0.5,0 -0.6,-0.45 -0.2,-5.61 -5,-7.8 -8.4,-7.8 -3.8,0 -10.1,2.27 -10.1,11.31 0,9.46 6.7,11.36 10,11.36 3.4,0 7.6,-2.29 8.5,-8.28 0,-0.42 0.3,-0.42 0.6,-0.42 0.6,0 0.6,0.2 0.6,0.91 z"
           id="path11019" /></g>    </g>
    <g
       id="g11323"
       transform="matrix(0.27,0,0,0.27,194.10078,252.70733)">
      <g
         word-spacing="normal"
         letter-spacing="normal"
         font-size-adjust="none"
         font-stretch="normal"
         font-weight="normal"
         font-variant="normal"
         font-style="normal"
         stroke-miterlimit="10.433"
         xml:space="preserve"
         transform="matrix(1.0629921,0,0,-1.0629921,-186.02362,789.27165)"
         id="g11325"
         style="font-style:normal;font-variant:normal;font-weight:normal;font-stretch:normal;letter-spacing:normal;word-spacing:normal;text-anchor:start;fill:none;stroke:#000000;stroke-width:3.70370364;stroke-linecap:butt;stroke-linejoin:miter;stroke-miterlimit:10.43299961;stroke-opacity:1;stroke-dasharray:none;stroke-dashoffset:0"><path
           id="path11327"
           d="m 1204.2,381.11 0,0.06 0,0.06 0,0.06 -0.1,0.05 0,0.06 0,0.05 0,0.05 0,0.05 -0.1,0.04 0,0.05 0,0.04 0,0.04 -0.1,0.04 0,0.03 0,0.04 0,0.03 -0.1,0.03 0,0.03 0,0.03 -0.1,0.02 0,0.02 0,0.02 -0.1,0.02 0,0.02 -0.1,0.01 0,0.02 -0.1,0.01 0,0.01 -0.1,0 -0.1,0.01 0,0 -0.1,0 c -0.8,0 -1,-0.29 -1.2,-1 l -10.3,-29.79 c -0.9,-2.53 -2.9,-3.28 -5.6,-3.33 v -1.55 c 1.1,0.05 3.3,0.16 5.1,0.16 1.5,0 4.1,-0.11 5.7,-0.16 v 1.55 c -2.5,0 -3.7,1.25 -3.7,2.53 0,0.16 0,0.66 0.1,0.75 l 2.3,6.53 0.5,1.55 5.6,16.19 5.6,-16.19 H 1196 l -0.5,-1.55 h 12.3 l 2.6,-7.62 c 0.1,-0.21 0.2,-0.5 0.2,-0.69 0,-1.5 -2.8,-1.5 -4.2,-1.5 v -1.55 c 1.8,0.16 5.3,0.16 7.2,0.16 2.1,0 4.4,-0.06 6.5,-0.16 v 1.55 h -0.9 c -3,0 -3.7,0.34 -4.2,1.98 z"
           inkscape:connector-curvature="0"
           style="fill:#000000;stroke-width:0" /><path
           id="path11329"
           d="m 1223.5,380.47 v -1.54 h 1.2 c 3.8,0 3.9,-0.55 3.9,-2.35 v -26.25 c 0,-1.79 -0.1,-2.34 -3.9,-2.34 h -1.2 v -1.55 h 18.2 l -1.3,1.55 h -5.1 c -2.3,0 -2.4,0.34 -2.4,1.98 v 26.96 c 0,1.65 0.1,2 2.4,2 h 5 c 3.1,0 6.5,-1.1 9.1,-4.64 2.1,-2.94 2.5,-7.22 2.5,-11.11 0,-5.54 -0.9,-8.52 -2.7,-10.96 -1,-1.34 -3.8,-4.23 -8.8,-4.23 l 1.3,-1.55 c 8.4,0 15.2,7.38 15.2,16.74 0,9.46 -6.7,17.29 -15.2,17.29 z"
           inkscape:connector-curvature="0"
           style="fill:#000000;stroke-width:0" /><path
           id="path11331"
           d="m 1262.6,363.47 0,-0.96 0,-0.94 0.2,-0.93 0.1,-0.91 0.2,-0.89 0.3,-0.87 0.2,-0.85 0.4,-0.83 0.3,-0.81 0.4,-0.78 0.4,-0.76 0.5,-0.73 0.5,-0.71 0.5,-0.68 0.6,-0.65 0.5,-0.63 0.6,-0.59 0.7,-0.56 0.6,-0.53 0.7,-0.5 0.7,-0.46 0.8,-0.43 0.7,-0.39 0.8,-0.35 0.7,-0.32 0.8,-0.27 0.8,-0.24 0.9,-0.2 0.8,-0.15 0.9,-0.11 0.8,-0.07 0.9,-0.02 c 8.1,0 13,6.92 13,12.7 0,0.5 0,0.84 -0.7,0.84 -0.5,0 -0.5,-0.29 -0.6,-0.79 -0.4,-7.13 -5.7,-11.21 -11.1,-11.21 -3.1,0 -12.8,1.69 -12.8,16.54 0,14.9 9.7,16.59 12.7,16.59 5.5,0 9.9,-4.53 10.9,-11.81 0.1,-0.69 0.1,-0.85 0.8,-0.85 0.8,0 0.8,0.16 0.8,1.21 v 11.79 c 0,0.86 0,1.21 -0.6,1.21 -0.2,0 -0.4,0 -0.8,-0.6 l -2.4,-3.68 c -1.9,1.79 -4.4,4.28 -9.2,4.28 -9.3,0 -17.3,-7.93 -17.3,-18.1 z"
           inkscape:connector-curvature="0"
           style="fill:#000000;stroke-width:0" /></g>    </g>
  </g>
</svg>
