<?xml version="1.0" encoding="UTF-8" standalone="no"?>
<!-- Created with Inkscape (http://www.inkscape.org/) -->

<svg
   xmlns:dc="http://purl.org/dc/elements/1.1/"
   xmlns:cc="http://creativecommons.org/ns#"
   xmlns:rdf="http://www.w3.org/1999/02/22-rdf-syntax-ns#"
   xmlns:svg="http://www.w3.org/2000/svg"
   xmlns="http://www.w3.org/2000/svg"
   xmlns:sodipodi="http://sodipodi.sourceforge.net/DTD/sodipodi-0.dtd"
   xmlns:inkscape="http://www.inkscape.org/namespaces/inkscape"
   id="svg3297"
   version="1.1"
   inkscape:version="0.48.4 r9939"
   width="743.75"
   height="1052.5"
   xml:space="preserve"
   sodipodi:docname="jitter-stm32.svg"><metadata
     id="metadata3303"><rdf:RDF><cc:Work
         rdf:about=""><dc:format>image/svg+xml</dc:format><dc:type
           rdf:resource="http://purl.org/dc/dcmitype/StillImage" /><dc:title></dc:title></cc:Work></rdf:RDF></metadata><defs
     id="defs3301"><clipPath
       clipPathUnits="userSpaceOnUse"
       id="clipPath3333"><path
         d="m 71.52,104.96 28.38,0 0,-15.12 -28.38,0 0,15.12 z"
         clip-rule="evenodd"
         id="path3335" /></clipPath><clipPath
       clipPathUnits="userSpaceOnUse"
       id="clipPath3341"><path
         d="m 0,841.98 595.2,0 L 595.2,0 0,0 0,841.98 z"
         id="path3343" /></clipPath></defs><sodipodi:namedview
     pagecolor="#ffffff"
     bordercolor="#666666"
     borderopacity="1"
     objecttolerance="10"
     gridtolerance="10"
     guidetolerance="10"
     inkscape:pageopacity="0"
     inkscape:pageshadow="2"
     inkscape:window-width="1918"
     inkscape:window-height="1059"
     id="namedview3299"
     showgrid="true"
     inkscape:zoom="5.0737011"
     inkscape:cx="124.0597"
     inkscape:cy="998.21677"
     inkscape:window-x="0"
     inkscape:window-y="19"
     inkscape:window-maximized="1"
     inkscape:current-layer="g3305"
     inkscape:object-paths="true"
     inkscape:snap-intersection-paths="true"
     inkscape:object-nodes="true"
     inkscape:snap-smooth-nodes="true"><inkscape:grid
       type="xygrid"
       id="grid3962"
       empspacing="5"
       visible="true"
       enabled="true"
       snapvisiblegridlinesonly="true"
       units="mm"
       spacingx="1mm"
       spacingy="1mm" /></sodipodi:namedview><g
     id="g3305"
     inkscape:groupmode="layer"
     inkscape:label="stm32f21xx"
     transform="matrix(1.25,0,0,-1.25,0,1052.5)"><text
       transform="scale(1,-1)"
       id="text3307"
       x="206.29324"
       y="-414.20392"><tspan
         style="font-size:9px;font-variant:normal;font-weight:normal;font-stretch:normal;writing-mode:lr-tb;fill:#000000;fill-opacity:1;fill-rule:nonzero;stroke:none;font-family:Arial;-inkscape-font-specification:Arial"
         x="206.29324 212.77237 217.75748 222.23856 224.72159 231.20073 236.18584 241.2249 246.21001 251.19511 256.23428 258.69571 265.17484 270.15994 274.64102 277.16556 447.07925 452.11832 457.10342 459.58658 464.62564 469.60172"
         y="-414.20392"
         sodipodi:role="line"
         id="tspan3309">DocID17050 Rev 993/175</tspan></text>
<text
       transform="scale(1,-1)"
       id="text3311"
       x="14.173246"
       y="-828.76752"><tspan
         style="font-size:9.96000004px;font-variant:normal;font-weight:bold;font-stretch:normal;writing-mode:lr-tb;fill:#000000;fill-opacity:1;fill-rule:nonzero;stroke:none;font-family:Arial;-inkscape-font-specification:Arial Bold"
         x="14.173246 20.807585 26.92404 35.211758 40.790314 46.368927 52.485382 58.01413 63.592743 69.121552 74.700165 357.06619 363.73038 366.55008 372.06888 377.64749 380.94522 384.8107 387.6304 393.15921 398.73782 401.49771 404.25967 409.83817 415.95462 421.48343 425.34891 430.92752 436.44632 439.80386 445.38248 449.24796 452.06766 457.59647 460.95389 463.7139 469.29239"
         y="-828.76752"
         sodipodi:role="line"
         id="tspan3313">STM32F21xxxElectrical characteristics</tspan></text>
<path
       d="m 13.933228,821.56724 0.24,0 0,0.48 -0.24,0 0,-0.48 z"
       style="fill:#000000;fill-opacity:1;fill-rule:nonzero;stroke:none"
       id="path3315"
       inkscape:connector-curvature="0" /><path
       d="m 14.173228,821.56724 460.920042,0 0,0.48 -460.920042,0 0,-0.48 z"
       style="fill:#000000;fill-opacity:1;fill-rule:nonzero;stroke:none"
       id="path3317"
       inkscape:connector-curvature="0" /><path
       d="m 13.693228,410.54362 0.24,0 0,0.48 -0.24,0 0,-0.48 z"
       style="fill:#000000;fill-opacity:1;fill-rule:nonzero;stroke:none"
       id="path3319"
       inkscape:connector-curvature="0" /><path
       d="m 13.933228,410.54362 460.919942,0 0,0.48 -460.919942,0 0,-0.48 z"
       style="fill:#000000;fill-opacity:1;fill-rule:nonzero;stroke:none"
       id="path3321"
       inkscape:connector-curvature="0" /><path
       d="m 18.193228,413.60362 28.38,0 0,15.12 -28.38,0 0,-15.12 z"
       style="fill:#ffffff;fill-opacity:1;fill-rule:nonzero;stroke:none"
       id="path3327"
       inkscape:connector-curvature="0" /><g
       id="g3329"
       transform="translate(-53.326772,323.76362)"><g
         id="g3331"
         clip-path="url(#clipPath3333)"><g
           id="g3337"><g
             id="g3339"
             clip-path="url(#clipPath3341)"><g
               id="g3345"
               transform="translate(99.677002,104.967)"><path
                 d="m 0,0 c -20.595,0 -20.595,0 -20.595,0 l 0.033,-0.033 c -1.577,0 -2.923,-0.92 -3.515,-2.266 -4.04,-9.788 -4.04,-9.788 -4.04,-9.788 -0.033,0 -0.033,-0.033 -0.033,-0.066 0,-0.131 0.099,-0.23 0.23,-0.23 9.296,0 9.296,0 9.296,0 0.657,0 0.952,0.657 0.427,1.15 -3.416,3.219 -3.416,3.219 -3.416,3.219 -1.807,1.74 -1.018,5.813 2.693,5.813 18.197,0 18.197,0 18.197,0 0.099,0 0.197,0.066 0.23,0.165 0.723,1.74 0.723,1.74 0.723,1.74 0,0 0,0.033 0,0.066 C 0.23,-0.099 0.131,0 0,0"
                 style="fill:#005189;fill-opacity:1;fill-rule:nonzero;stroke:none"
                 id="path3347"
                 inkscape:connector-curvature="0" /></g><g
               id="g3349"
               transform="translate(97.641007,99.973999)"><path
                 d="m 0,0 c -3.482,0 -3.482,0 -3.482,0 -0.263,0 -0.46,-0.164 -0.525,-0.361 -3.942,-9.46 -3.942,-9.46 -3.942,-9.46 0,-0.033 0,-0.066 0,-0.099 0,-0.131 0.099,-0.197 0.197,-0.197 1.314,0 1.314,0 1.314,0 1.577,0 2.956,0.953 3.515,2.3 3.12,7.521 3.12,7.521 3.12,7.521 0,0.033 0.033,0.066 0.033,0.066 C 0.23,-0.099 0.131,0 0,0"
                 style="fill:#005189;fill-opacity:1;fill-rule:nonzero;stroke:none"
                 id="path3351"
                 inkscape:connector-curvature="0" /></g><g
               id="g3353"
               transform="translate(90.776001,99.744003)"><path
                 d="m 0,0 c 0,0.131 -0.099,0.23 -0.23,0.23 -9.92,0 -9.92,0 -9.92,0 -0.525,0 -0.985,-0.657 -0.427,-1.183 3.285,-3.054 3.285,-3.054 3.285,-3.054 0,0 1.314,-1.215 1.051,-2.956 -0.263,-1.544 -1.314,-2.497 -2.069,-2.825 -0.033,-0.033 -0.033,-0.033 -0.033,-0.066 0,-0.033 0.033,-0.033 0.033,-0.033 3.843,0 3.843,0 3.843,0 0.23,0 0.427,0.132 0.525,0.329 3.909,9.492 3.909,9.492 3.909,9.492 C 0,-0.033 0,0 0,0"
                 style="fill:#005189;fill-opacity:1;fill-rule:nonzero;stroke:none"
                 id="path3355"
                 inkscape:connector-curvature="0" /></g></g></g></g></g><text
       transform="scale(1,-1)"
       id="text3357"
       x="16.933195"
       y="-671.44751"><tspan
         style="font-size:9px;font-variant:normal;font-weight:normal;font-stretch:normal;writing-mode:lr-tb;fill:#000000;fill-opacity:1;fill-rule:nonzero;stroke:none;font-family:Arial;-inkscape-font-specification:Arial"
         x="16.933195 21.427824 23.420439 25.917021 28.413603 33.412197"
         y="-671.44751"
         sodipodi:role="line"
         id="tspan3359">Jitter</tspan></text>
<text
       transform="scale(1,-1)"
       id="text3361"
       x="36.433197"
       y="-675.04749"><tspan
         style="font-size:7.19999981px;font-variant:normal;font-weight:normal;font-stretch:normal;writing-mode:lr-tb;fill:#000000;fill-opacity:1;fill-rule:nonzero;stroke:none;font-family:Arial;-inkscape-font-specification:Arial"
         x="36.433197 38.840179 42.852753"
         y="-675.04749"
         sodipodi:role="line"
         id="tspan3363">(3)</tspan></text>
<text
       transform="scale(1,-1)"
       id="text3365"
       x="79.393219"
       y="-741.46753"><tspan
         style="font-size:9px;font-variant:normal;font-weight:normal;font-stretch:normal;writing-mode:lr-tb;fill:#000000;fill-opacity:1;fill-rule:nonzero;stroke:none;font-family:Arial;-inkscape-font-specification:Arial"
         x="79.393219 85.886749 90.382233 94.877708 96.871185 101.87069 104.80929 107.30679 112.30624 115.29879 119.79427 124.2897 128.78519 130.77872 135.77823 138.30008 140.29349 142.28702 144.78458 147.28201 152.28152"
         y="-741.46753"
         sodipodi:role="line"
         id="tspan3367">Cycle-to-cycle jitter</tspan><tspan
         style="font-size:9px;font-variant:normal;font-weight:normal;font-stretch:normal;writing-mode:lr-tb;fill:#000000;fill-opacity:1;fill-rule:nonzero;stroke:none;font-family:Arial;-inkscape-font-specification:Arial"
         x="217.21024 223.21329 227.7133 232.2133 234.71526 239.71928 247.16228 249.68401 254.18401 256.18204 261.18607 265.68607 270.18607"
         y="-718.96753"
         sodipodi:role="line"
         id="tspan3369">System clock </tspan><tspan
         style="font-size:9px;font-variant:normal;font-weight:normal;font-stretch:normal;writing-mode:lr-tb;fill:#000000;fill-opacity:1;fill-rule:nonzero;stroke:none;font-family:Arial;-inkscape-font-specification:Arial"
         x="217.21024 222.19168 227.2272 234.6657 242.16728 248.64275"
         y="-707.9245"
         sodipodi:role="line"
         id="tspan3371">120MHz</tspan><tspan
         style="font-size:9px;font-variant:normal;font-weight:normal;font-stretch:normal;writing-mode:lr-tb;fill:#000000;fill-opacity:1;fill-rule:nonzero;stroke:none;font-family:Arial;-inkscape-font-specification:Arial"
         x="296.95023 303.48868 310.92728 335.76273 372.11819 377.09976 420.96121"
         y="-760.96149"
         sodipodi:role="line"
         id="tspan3373">RMS-25-</tspan><tspan
         style="font-size:9px;font-variant:normal;font-weight:normal;font-stretch:normal;writing-mode:lr-tb;fill:#000000;fill-opacity:1;fill-rule:nonzero;stroke:none;font-family:Arial;-inkscape-font-specification:Arial"
         x="454.81021 459.72879"
         y="-671.43854"
         sodipodi:role="line"
         id="tspan3375">ps</tspan><tspan
         style="font-size:9px;font-variant:normal;font-weight:normal;font-stretch:normal;writing-mode:lr-tb;fill:#000000;fill-opacity:1;fill-rule:nonzero;stroke:none;font-family:Arial;-inkscape-font-specification:Arial"
         x="295.44717 300.48807 305.47501 310.46194 314.94485"
         y="-743.91553"
         sodipodi:role="line"
         id="tspan3377">peak </tspan><tspan
         style="font-size:9px;font-variant:normal;font-weight:normal;font-stretch:normal;writing-mode:lr-tb;fill:#000000;fill-opacity:1;fill-rule:nonzero;stroke:none;font-family:Arial;-inkscape-font-specification:Arial"
         x="295.44717 297.94656 302.94778"
         y="-732.93549"
         sodipodi:role="line"
         id="tspan3379">to </tspan><tspan
         style="font-size:9px;font-variant:normal;font-weight:normal;font-stretch:normal;writing-mode:lr-tb;fill:#000000;fill-opacity:1;fill-rule:nonzero;stroke:none;font-family:Arial;-inkscape-font-specification:Arial"
         x="295.44717 300.48904 305.4678 310.44669"
         y="-721.95551"
         sodipodi:role="line"
         id="tspan3381">peak</tspan><tspan
         style="font-size:9px;font-variant:normal;font-weight:normal;font-stretch:normal;writing-mode:lr-tb;fill:#000000;fill-opacity:1;fill-rule:nonzero;stroke:none;font-family:Arial;-inkscape-font-specification:Arial"
         x="335.76724"
         y="-732.93549"
         id="tspan3383">-</tspan></text>
<text
       transform="scale(1,-1)"
       id="text3385"
       x="367.15018"
       y="-732.93549"><tspan
         style="font-size:9px;font-variant:normal;font-weight:normal;writing-mode:lr-tb;fill:#000000;fill-opacity:1;fill-rule:nonzero;stroke:none;font-family:Symbol;-inkscape-font-specification:Symbol"
         x="367.15018"
         y="-732.93549"
         id="tspan3387">±</tspan></text>
<text
       transform="scale(1,-1)"
       id="text3389"
       x="372.07327"
       y="-732.93549"><tspan
         style="font-size:9px;font-variant:normal;font-weight:normal;font-stretch:normal;writing-mode:lr-tb;fill:#000000;fill-opacity:1;fill-rule:nonzero;stroke:none;font-family:Arial;-inkscape-font-specification:Arial"
         x="372.07327 377.05203 382.03079 420.96658"
         y="-732.93549"
         sodipodi:role="line"
         id="tspan3391">150-</tspan><tspan
         style="font-size:9px;font-variant:normal;font-weight:normal;font-stretch:normal;writing-mode:lr-tb;fill:#000000;fill-opacity:1;fill-rule:nonzero;stroke:none;font-family:Arial;-inkscape-font-specification:Arial"
         x="79.393219 85.388153 90.384003 93.372955 95.362823 100.35879 105.35464 107.87649 112.31423 114.34914 116.84304 119.33694 124.33291"
         y="-685.41553"
         sodipodi:role="line"
         id="tspan3393">Period Jitter</tspan><tspan
         style="font-size:9px;font-variant:normal;font-weight:normal;font-stretch:normal;writing-mode:lr-tb;fill:#000000;fill-opacity:1;fill-rule:nonzero;stroke:none;font-family:Arial;-inkscape-font-specification:Arial"
         x="296.95023 303.48868 310.92728 335.76273 372.11819 377.09976 420.96121"
         y="-704.91852"
         sodipodi:role="line"
         id="tspan3395">RMS-15-</tspan><tspan
         style="font-size:9px;font-variant:normal;font-weight:normal;font-stretch:normal;writing-mode:lr-tb;fill:#000000;fill-opacity:1;fill-rule:nonzero;stroke:none;font-family:Arial;-inkscape-font-specification:Arial"
         x="295.44717 300.48819 305.47501 310.46194 314.94485"
         y="-687.93549"
         sodipodi:role="line"
         id="tspan3397">peak </tspan><tspan
         style="font-size:9px;font-variant:normal;font-weight:normal;font-stretch:normal;writing-mode:lr-tb;fill:#000000;fill-opacity:1;fill-rule:nonzero;stroke:none;font-family:Arial;-inkscape-font-specification:Arial"
         x="295.44717 297.94656 302.94778"
         y="-676.95551"
         sodipodi:role="line"
         id="tspan3399">to </tspan><tspan
         style="font-size:9px;font-variant:normal;font-weight:normal;font-stretch:normal;writing-mode:lr-tb;fill:#000000;fill-opacity:1;fill-rule:nonzero;stroke:none;font-family:Arial;-inkscape-font-specification:Arial"
         x="295.44717 300.48904 305.4678 310.44669"
         y="-665.91254"
         sodipodi:role="line"
         id="tspan3401">peak</tspan><tspan
         style="font-size:9px;font-variant:normal;font-weight:normal;font-stretch:normal;writing-mode:lr-tb;fill:#000000;fill-opacity:1;fill-rule:nonzero;stroke:none;font-family:Arial;-inkscape-font-specification:Arial"
         x="335.76724"
         y="-676.95551"
         id="tspan3403">-</tspan></text>
<text
       transform="scale(1,-1)"
       id="text3405"
       x="367.15018"
       y="-676.95551"><tspan
         style="font-size:9px;font-variant:normal;font-weight:normal;writing-mode:lr-tb;fill:#000000;fill-opacity:1;fill-rule:nonzero;stroke:none;font-family:Symbol;-inkscape-font-specification:Symbol"
         x="367.15018"
         y="-676.95551"
         id="tspan3407">±</tspan></text>
<text
       transform="scale(1,-1)"
       id="text3409"
       x="372.07327"
       y="-676.95551"><tspan
         style="font-size:9px;font-variant:normal;font-weight:normal;font-stretch:normal;writing-mode:lr-tb;fill:#000000;fill-opacity:1;fill-rule:nonzero;stroke:none;font-family:Arial;-inkscape-font-specification:Arial"
         x="372.07327 377.05203 382.03079 420.96658"
         y="-676.95551"
         sodipodi:role="line"
         id="tspan3411">200-</tspan><tspan
         style="font-size:9px;font-variant:normal;font-weight:normal;font-stretch:normal;writing-mode:lr-tb;fill:#000000;fill-opacity:1;fill-rule:nonzero;stroke:none;font-family:Arial;-inkscape-font-specification:Arial"
         x="79.393219 86.889313 91.892418 93.889565 98.892555 101.35415 105.85323 107.85024 112.85348 117.35244 121.85159 124.31313 129.31619 134.31937 136.82047 141.82352 146.82657 149.32767 151.78922 154.78531 162.2814 168.77847 175.77957 178.72171 181.24625 183.74734 188.7504 191.74649"
         y="-648.93854"
         sodipodi:role="line"
         id="tspan3413">Main clock output (MCO) for </tspan><tspan
         style="font-size:9px;font-variant:normal;font-weight:normal;font-stretch:normal;writing-mode:lr-tb;fill:#000000;fill-opacity:1;fill-rule:nonzero;stroke:none;font-family:Arial;-inkscape-font-specification:Arial"
         x="79.393219 85.889435 93.384613 95.884865 98.349091 100.87075 106.87203 109.33614 114.33834 119.34054 122.33584 127.33804 132.34024"
         y="-637.9585"
         sodipodi:role="line"
         id="tspan3415">RMII Ethernet</tspan><tspan
         style="font-size:9px;font-variant:normal;font-weight:normal;font-stretch:normal;writing-mode:lr-tb;fill:#000000;fill-opacity:1;fill-rule:nonzero;stroke:none;font-family:Arial;-inkscape-font-specification:Arial"
         x="217.21024 223.69925 228.19023 232.6812 234.67021 239.66521 242.18974 244.68279 249.67778 252.20219 256.63919 261.13028 265.62125 267.61026 272.60526 275.06668 280.06168 282.55472 285.01627 290.01126 295.00626 297.46768 304.95572 311.44473 315.9357"
         y="-648.93854"
         sodipodi:role="line"
         id="tspan3417">Cycle to cycle at 50 MHz </tspan><tspan
         style="font-size:9px;font-variant:normal;font-weight:normal;font-stretch:normal;writing-mode:lr-tb;fill:#000000;fill-opacity:1;fill-rule:nonzero;stroke:none;font-family:Arial;-inkscape-font-specification:Arial"
         x="217.21024 222.19266 227.22903 229.69048 234.6729 239.70927 244.6917 249.67412 252.19865 256.67703 261.65945 269.1348 274.11722 276.09366 281.13004"
         y="-637.9585"
         sodipodi:role="line"
         id="tspan3419">on 1000 samples</tspan><tspan
         style="font-size:9px;font-variant:normal;font-weight:normal;font-stretch:normal;writing-mode:lr-tb;fill:#000000;fill-opacity:1;fill-rule:nonzero;stroke:none;font-family:Arial;-inkscape-font-specification:Arial"
         x="335.76724 372.12723 377.10428 420.96121"
         y="-643.42151"
         sodipodi:role="line"
         id="tspan3421">-32-</tspan><tspan
         style="font-size:9px;font-variant:normal;font-weight:normal;font-stretch:normal;writing-mode:lr-tb;fill:#000000;fill-opacity:1;fill-rule:nonzero;stroke:none;font-family:Arial;-inkscape-font-specification:Arial"
         x="79.384254 86.885712 91.894264 93.896698 98.905243 101.36678 105.87124 107.87374 112.88229 117.38674 121.89114 124.35268 129.36124 134.36966 136.83121 141.86673 146.87527 149.38174 151.84317 154.84476 162.34622 168.84866 175.85526 178.79373 181.31827 183.82474 188.83316 191.83475 194.35916 201.79776 204.30423 206.8107"
         y="-620.92151"
         sodipodi:role="line"
         id="tspan3423">Main clock output (MCO) for MII </tspan><tspan
         style="font-size:9px;font-variant:normal;font-weight:normal;font-stretch:normal;writing-mode:lr-tb;fill:#000000;fill-opacity:1;fill-rule:nonzero;stroke:none;font-family:Arial;-inkscape-font-specification:Arial"
         x="79.384254 85.375519 87.865814 92.858124 97.850433 100.83578 105.82809 110.86538"
         y="-609.94153"
         sodipodi:role="line"
         id="tspan3425">Ethernet</tspan><tspan
         style="font-size:9px;font-variant:normal;font-weight:normal;font-stretch:normal;writing-mode:lr-tb;fill:#000000;fill-opacity:1;fill-rule:nonzero;stroke:none;font-family:Arial;-inkscape-font-specification:Arial"
         x="217.2012 223.69022 228.1812 232.67229 234.66118 239.65617 242.18071 244.67375 249.66875 252.19328 256.63028 261.12125 265.61221 267.60123 272.59622 275.05777 280.05276 282.54568 285.00723 290.00223 294.99722 297.45877 304.94669 311.4357 315.92679"
         y="-620.92151"
         sodipodi:role="line"
         id="tspan3427">Cycle to cycle at 25 MHz </tspan><tspan
         style="font-size:9px;font-variant:normal;font-weight:normal;font-stretch:normal;writing-mode:lr-tb;fill:#000000;fill-opacity:1;fill-rule:nonzero;stroke:none;font-family:Arial;-inkscape-font-specification:Arial"
         x="217.2012 222.18362 227.22 229.68156 234.66399 239.70036 244.68279 249.66521 252.18962 256.668 261.65042 269.12589 274.10818 276.08463 281.121"
         y="-609.94153"
         sodipodi:role="line"
         id="tspan3429">on 1000 samples</tspan><tspan
         style="font-size:9px;font-variant:normal;font-weight:normal;font-stretch:normal;writing-mode:lr-tb;fill:#000000;fill-opacity:1;fill-rule:nonzero;stroke:none;font-family:Arial;-inkscape-font-specification:Arial"
         x="335.75821 372.11819 377.09525 420.95218"
         y="-615.4585"
         sodipodi:role="line"
         id="tspan3431">-40-</tspan><tspan
         style="font-size:9px;font-variant:normal;font-weight:normal;font-stretch:normal;writing-mode:lr-tb;fill:#000000;fill-opacity:1;fill-rule:nonzero;stroke:none;font-family:Arial;-inkscape-font-specification:Arial"
         x="79.375214 85.39444 87.37265 89.890839 92.352318 97.51651 99.557655 107.07095 112.04604 114.50759 121.02187 127.04104 133.5192 135.98074 137.9949 139.97318 142.43729 144.95547 149.93069"
         y="-587.44153"
         sodipodi:role="line"
         id="tspan3433">Bit Time CAN jitter</tspan><tspan
         style="font-size:9px;font-variant:normal;font-weight:normal;font-stretch:normal;writing-mode:lr-tb;fill:#000000;fill-opacity:1;fill-rule:nonzero;stroke:none;font-family:Arial;-inkscape-font-specification:Arial"
         x="217.19217 223.68216 228.174 232.66594 234.65581 239.65178 242.17351 244.6674 249.66338 252.1851 256.67703 261.1149 265.60684 267.59671 272.59268 275.11441 280.11038 282.60428 285.12601 290.12198 292.64371 300.1326 306.62259 311.11441"
         y="-592.9585"
         sodipodi:role="line"
         id="tspan3435">Cycle to cycle at 1 MHz </tspan><tspan
         style="font-size:9px;font-variant:normal;font-weight:normal;font-stretch:normal;writing-mode:lr-tb;fill:#000000;fill-opacity:1;fill-rule:nonzero;stroke:none;font-family:Arial;-inkscape-font-specification:Arial"
         x="217.19217 222.17459 227.21097 229.67253 234.65495 239.69133 244.67375 249.65617 252.18059 256.65909 261.64139 269.11685 274.09927 276.07559 281.11209"
         y="-581.91553"
         sodipodi:role="line"
         id="tspan3437">on 1000 samples</tspan><tspan
         style="font-size:9px;font-variant:normal;font-weight:normal;font-stretch:normal;writing-mode:lr-tb;fill:#000000;fill-opacity:1;fill-rule:nonzero;stroke:none;font-family:Arial;-inkscape-font-specification:Arial"
         x="335.74918 369.59097 374.56985 379.54861 420.95047"
         y="-587.4325"
         sodipodi:role="line"
         id="tspan3439">-330-</tspan><tspan
         style="font-size:9px;font-variant:normal;font-weight:normal;font-stretch:normal;writing-mode:lr-tb;fill:#000000;fill-opacity:1;fill-rule:nonzero;stroke:none;font-family:Arial;-inkscape-font-specification:Arial"
         x="16.906218"
         y="-558.38953"
         id="tspan3441">I</tspan></text>
<text
       transform="scale(1,-1)"
       id="text3443"
       x="19.453215"
       y="-556.1875"><tspan
         style="font-size:7.19999981px;font-variant:normal;font-weight:normal;font-stretch:normal;writing-mode:lr-tb;fill:#000000;fill-opacity:1;fill-rule:nonzero;stroke:none;font-family:Arial;-inkscape-font-specification:Arial"
         x="19.453215 24.661711 29.819792 32.227444 37.039948 40.995636 45.016083"
         y="-556.1875"
         sodipodi:role="line"
         id="tspan3445">DD(PLL)</tspan><tspan
         style="font-size:7.19999981px;font-variant:normal;font-weight:normal;font-stretch:normal;writing-mode:lr-tb;fill:#000000;fill-opacity:1;fill-rule:nonzero;stroke:none;font-family:Arial;-inkscape-font-specification:Arial"
         x="47.353241 49.75296 53.707916"
         y="-562.00513"
         sodipodi:role="line"
         id="tspan3447">(4)</tspan></text>
<text
       transform="scale(1,-1)"
       id="text3449"
       x="79.393219"
       y="-558.40753"><tspan
         style="font-size:9px;font-variant:normal;font-weight:normal;font-stretch:normal;writing-mode:lr-tb;fill:#000000;fill-opacity:1;fill-rule:nonzero;stroke:none;font-family:Arial;-inkscape-font-specification:Arial"
         x="79.393219 85.380951 90.369598 95.403351 97.862152 102.85079 107.88454 114.36715 119.35598 122.33767 124.8594 129.34415 134.33279 139.32156 143.80618 148.79495 156.27664 161.26529 163.75198 165.73477 170.76846 175.75711 178.27896 183.26761 188.25638 190.77811 196.76578 203.24857"
         y="-558.40753"
         sodipodi:role="line"
         id="tspan3451">PLL power consumption on VDD</tspan><tspan
         style="font-size:9px;font-variant:normal;font-weight:normal;font-stretch:normal;writing-mode:lr-tb;fill:#000000;fill-opacity:1;fill-rule:nonzero;stroke:none;font-family:Arial;-inkscape-font-specification:Arial"
         x="217.21024 223.20059 229.68608 236.67546 239.1342 241.62358 244.60808 249.59941 254.59087 257.11258 262.35599 264.87784 269.86917 274.90567 282.40799 289.84744 296.38687"
         y="-564.9505"
         sodipodi:role="line"
         id="tspan3453">VCO freq = 192MHz</tspan><tspan
         style="font-size:9px;font-variant:normal;font-weight:normal;font-stretch:normal;writing-mode:lr-tb;fill:#000000;fill-opacity:1;fill-rule:nonzero;stroke:none;font-family:Arial;-inkscape-font-specification:Arial"
         x="217.21024 223.20059 229.68608 236.67546 239.1342 241.62358 244.60808 249.59941 254.59087 257.11258 262.35599 264.87784 269.86917 274.90567 282.40799 289.84744 296.38687"
         y="-551.92755"
         sodipodi:role="line"
         id="tspan3455">VCO freq = 432MHz</tspan><tspan
         style="font-size:9px;font-variant:normal;font-weight:normal;font-stretch:normal;writing-mode:lr-tb;fill:#000000;fill-opacity:1;fill-rule:nonzero;stroke:none;font-family:Arial;-inkscape-font-specification:Arial"
         x="328.51321 333.50284 335.99039 340.98001"
         y="-564.9505"
         sodipodi:role="line"
         id="tspan3457">0.15</tspan><tspan
         style="font-size:9px;font-variant:normal;font-weight:normal;font-stretch:normal;writing-mode:lr-tb;fill:#000000;fill-opacity:1;fill-rule:nonzero;stroke:none;font-family:Arial;-inkscape-font-specification:Arial"
         x="328.51321 333.50284 335.99039 340.98001"
         y="-551.92755"
         sodipodi:role="line"
         id="tspan3459">0.45</tspan><tspan
         style="font-size:9px;font-variant:normal;font-weight:normal;font-stretch:normal;writing-mode:lr-tb;fill:#000000;fill-opacity:1;fill-rule:nonzero;stroke:none;font-family:Arial;-inkscape-font-specification:Arial"
         x="375.61026"
         y="-558.40753"
         id="tspan3461">-</tspan><tspan
         style="font-size:9px;font-variant:normal;font-weight:normal;font-stretch:normal;writing-mode:lr-tb;fill:#000000;fill-opacity:1;fill-rule:nonzero;stroke:none;font-family:Arial;-inkscape-font-specification:Arial"
         x="413.70718 418.69681 421.18448 426.17398"
         y="-564.9505"
         sodipodi:role="line"
         id="tspan3463">0.40</tspan><tspan
         style="font-size:9px;font-variant:normal;font-weight:normal;font-stretch:normal;writing-mode:lr-tb;fill:#000000;fill-opacity:1;fill-rule:nonzero;stroke:none;font-family:Arial;-inkscape-font-specification:Arial"
         x="413.70718 418.69681 421.18448 426.17398"
         y="-551.92755"
         sodipodi:role="line"
         id="tspan3465">0.75</tspan><tspan
         style="font-size:9px;font-variant:normal;font-weight:normal;font-stretch:normal;writing-mode:lr-tb;fill:#000000;fill-opacity:1;fill-rule:nonzero;stroke:none;font-family:Arial;-inkscape-font-specification:Arial"
         x="452.76724 460.26688"
         y="-558.40753"
         sodipodi:role="line"
         id="tspan3467">mA</tspan><tspan
         style="font-size:9px;font-variant:normal;font-weight:normal;font-stretch:normal;writing-mode:lr-tb;fill:#000000;fill-opacity:1;fill-rule:nonzero;stroke:none;font-family:Arial;-inkscape-font-specification:Arial"
         x="16.924223"
         y="-528.41052"
         id="tspan3469">I</tspan></text>
<text
       transform="scale(1,-1)"
       id="text3471"
       x="19.453215"
       y="-526.1875"><tspan
         style="font-size:7.19999981px;font-variant:normal;font-weight:normal;font-stretch:normal;writing-mode:lr-tb;fill:#000000;fill-opacity:1;fill-rule:nonzero;stroke:none;font-family:Arial;-inkscape-font-specification:Arial"
         x="19.453215 24.660246 29.816923 34.627956 37.03421 41.845245 45.806671 49.818512"
         y="-526.1875"
         sodipodi:role="line"
         id="tspan3473">DDA(PLL)</tspan><tspan
         style="font-size:7.19999981px;font-variant:normal;font-weight:normal;font-stretch:normal;writing-mode:lr-tb;fill:#000000;fill-opacity:1;fill-rule:nonzero;stroke:none;font-family:Arial;-inkscape-font-specification:Arial"
         x="52.155609 54.555389 58.510345"
         y="-532.00513"
         sodipodi:role="line"
         id="tspan3475">(4)</tspan></text>
<text
       transform="scale(1,-1)"
       id="text3477"
       x="79.393219"
       y="-533.92755"><tspan
         style="font-size:9px;font-variant:normal;font-weight:normal;font-stretch:normal;writing-mode:lr-tb;fill:#000000;fill-opacity:1;fill-rule:nonzero;stroke:none;font-family:Arial;-inkscape-font-specification:Arial"
         x="79.393219 85.380951 90.369598 95.403351 97.862152 102.85079 107.88454 114.36715 119.35598 122.33767 124.8594 129.34415 134.33279 139.32156 143.80618 148.79495 156.27664 161.26529 163.75198 165.73477 170.76846 175.75711 178.27896 183.26761 188.25638"
         y="-533.92755"
         sodipodi:role="line"
         id="tspan3479">PLL power consumption on </tspan><tspan
         style="font-size:9px;font-variant:normal;font-weight:normal;font-stretch:normal;writing-mode:lr-tb;fill:#000000;fill-opacity:1;fill-rule:nonzero;stroke:none;font-family:Arial;-inkscape-font-specification:Arial"
         x="79.393219 85.380951 91.863625 98.346344"
         y="-522.94751"
         sodipodi:role="line"
         id="tspan3481">VDDA</tspan><tspan
         style="font-size:9px;font-variant:normal;font-weight:normal;font-stretch:normal;writing-mode:lr-tb;fill:#000000;fill-opacity:1;fill-rule:nonzero;stroke:none;font-family:Arial;-inkscape-font-specification:Arial"
         x="217.21024 223.20059 229.68608 236.67546 239.1342 241.62358 244.60808 249.59941 254.59087 257.11258 262.35599 264.87784 269.86917 274.90567 282.40799 289.84744 296.38687"
         y="-534.94452"
         sodipodi:role="line"
         id="tspan3483">VCO freq = 192MHz</tspan><tspan
         style="font-size:9px;font-variant:normal;font-weight:normal;font-stretch:normal;writing-mode:lr-tb;fill:#000000;fill-opacity:1;fill-rule:nonzero;stroke:none;font-family:Arial;-inkscape-font-specification:Arial"
         x="217.21024 223.20059 229.68608 236.67546 239.1342 241.62358 244.60808 249.59941 254.59087 257.11258 262.35599 264.87784 269.86917 274.90567 282.40799 289.84744 296.38687"
         y="-521.92151"
         sodipodi:role="line"
         id="tspan3485">VCO freq = 432MHz</tspan><tspan
         style="font-size:9px;font-variant:normal;font-weight:normal;font-stretch:normal;writing-mode:lr-tb;fill:#000000;fill-opacity:1;fill-rule:nonzero;stroke:none;font-family:Arial;-inkscape-font-specification:Arial"
         x="328.51321 333.50284 335.99039 340.98001"
         y="-534.94452"
         sodipodi:role="line"
         id="tspan3487">0.30</tspan><tspan
         style="font-size:9px;font-variant:normal;font-weight:normal;font-stretch:normal;writing-mode:lr-tb;fill:#000000;fill-opacity:1;fill-rule:nonzero;stroke:none;font-family:Arial;-inkscape-font-specification:Arial"
         x="328.51321 333.50284 335.99039 340.98001"
         y="-521.92151"
         sodipodi:role="line"
         id="tspan3489">0.55</tspan><tspan
         style="font-size:9px;font-variant:normal;font-weight:normal;font-stretch:normal;writing-mode:lr-tb;fill:#000000;fill-opacity:1;fill-rule:nonzero;stroke:none;font-family:Arial;-inkscape-font-specification:Arial"
         x="375.61026"
         y="-528.40155"
         id="tspan3491">-</tspan><tspan
         style="font-size:9px;font-variant:normal;font-weight:normal;font-stretch:normal;writing-mode:lr-tb;fill:#000000;fill-opacity:1;fill-rule:nonzero;stroke:none;font-family:Arial;-inkscape-font-specification:Arial"
         x="413.70718 418.69681 421.18448 426.17398"
         y="-534.94452"
         sodipodi:role="line"
         id="tspan3493">0.40</tspan><tspan
         style="font-size:9px;font-variant:normal;font-weight:normal;font-stretch:normal;writing-mode:lr-tb;fill:#000000;fill-opacity:1;fill-rule:nonzero;stroke:none;font-family:Arial;-inkscape-font-specification:Arial"
         x="413.70718 418.69681 421.18448 426.17398"
         y="-521.92151"
         sodipodi:role="line"
         id="tspan3495">0.85</tspan><tspan
         style="font-size:9px;font-variant:normal;font-weight:normal;font-stretch:normal;writing-mode:lr-tb;fill:#000000;fill-opacity:1;fill-rule:nonzero;stroke:none;font-family:Arial;-inkscape-font-specification:Arial"
         x="452.76724 460.26688"
         y="-528.40155"
         sodipodi:role="line"
         id="tspan3497">mA</tspan><tspan
         style="font-size:9px;font-variant:normal;font-weight:normal;font-stretch:normal;writing-mode:lr-tb;fill:#000000;fill-opacity:1;fill-rule:nonzero;stroke:none;font-family:Arial;-inkscape-font-specification:Arial"
         x="13.927214 18.961821 28.082426 32.586025 37.56662 42.052216 47.04184 49.563629 54.049225 59.038849 62.021393 67.011017 69.532806 74.52243 77.01004 79.468842 84.503448 88.944 90.981598 95.971222 100.96078 103.48269 105.97024 110.95974 115.94949 118.47128 123.46084 128.45047 133.48502 136.46768 141.45718 146.44681 149.42947 151.41299 156.44766 158.93521 163.92484 166.44656 171.43619 173.47379 177.95938 179.94302 184.42862 186.41226 191.40176 196.43643 198.89517 201.38284 206.37247 210.85806 213.34561 218.33524 221.31778 223.87027 231.35283 233.8737 236.36137 241.351 243.80888 248.84343 253.82402 256.22159 261.20218 263.18582 268.17545 270.69632 273.18387 278.17349 283.16312 285.68399 290.16959 295.15921 300.14883 304.63443 306.67203 309.1326 311.11624 316.15079 321.14041 323.66129 329.64993 334.63956 339.62918 342.15005 344.13358 349.1232 354.15787 359.13846 361.62601 364.08389 368.56949 370.55313 375.58768 380.08231 384.5679 387.08878 391.57449 396.564 398.60159 403.59122 408.58084 413.06644 415.55399 418.01199 423.5325 428.52213 433.51175 436.03262 443.51529"
         y="-504.28156"
         sodipodi:role="line"
         id="tspan3499">1.Take care of using the appropriate division factor M to obtain the specified PLL input clock values. The M </tspan><tspan
         style="font-size:9px;font-variant:normal;font-weight:normal;font-stretch:normal;writing-mode:lr-tb;fill:#000000;fill-opacity:1;fill-rule:nonzero;stroke:none;font-family:Arial;-inkscape-font-specification:Arial"
         x="28.093229 30.579008 35.620815 40.104645 42.590424 47.578217 50.559052 53.083527 55.065338 59.549103 62.073639 66.557404 71.545197 76.533051 79.513824 84.501625 89.543419 92.004913 97.046722 102.02554 104.51138 110.99319 115.98098 120.96865 126.01052 128.47208 134.45877 139.44656 144.48843 146.94998 151.99173 156.97952 161.96732 164.49185 170.47867 175.46646 180.45425 182.93997 187.92776 193.91458"
         y="-495.28156"
         sodipodi:role="line"
         id="tspan3501">factor is shared between PLL and PLLI2S.</tspan><tspan
         style="font-size:9px;font-variant:normal;font-weight:normal;font-stretch:normal;writing-mode:lr-tb;fill:#000000;fill-opacity:1;fill-rule:nonzero;stroke:none;font-family:Arial;-inkscape-font-specification:Arial"
         x="13.936247 18.973539 28.09683 35.078091 40.115448 45.098724 48.075043 53.058319 58.041595 60.522919 65.506195 70.543549 75.526825 77.988312 83.025604 87.522919 89.984398 95.021698 99.995934 104.47524 106.45254 111.43594 116.47329 118.95449 121.47909 126.4623 131.44559 133.92691 136.45145 138.93277 143.97 148.44937 150.93057 155.91397 160.9512 163.41275 165.45303 170.42728 172.95181 177.93509 180.91141 185.89468 190.87808 195.91531 200.39468 202.87589 204.85318 209.89053 214.87381"
         y="-480.58453"
         sodipodi:role="line"
         id="tspan3503">2.Guaranteed by design, not tested in production.</tspan></text>
<text
       transform="scale(1,-1)"
       id="text3505"
       x="13.933195"
       y="-466.60754"><tspan
         style="font-size:7.98000002px;font-variant:normal;font-weight:normal;font-stretch:normal;writing-mode:lr-tb;fill:#000000;fill-opacity:1;fill-rule:nonzero;stroke:none;font-family:Arial;-inkscape-font-specification:Arial"
         x="13.933195 18.433928 28.097746 32.973476 37.41037 41.84726 44.068878 48.505768 52.495758 56.932648 59.154266 63.591156 65.809601 68.031219 72.531952 74.753571 80.036339 84.537079 88.973969 92.963959 95.185585 96.957123 101.39394 103.61568 107.93288 112.36977 115.06698 119.50375 121.27547 123.0469 127.48379 129.2554 131.47708 135.46707 139.9678 144.40457 146.17618 150.61307 152.83475 157.27151 161.77225 166.20914 168.86649 173.30338 177.74026 182.17715 186.61404 188.83572 191.05411 195.55484 199.99173 202.21329 206.2034 207.97488 210.19339 212.41177 216.84866 219.54593 221.76749 226.20438 230.64128 232.86296 235.08134 239.51823 241.73991 246.40019 250.83708 255.27397 262.36819"
         y="-466.60754"
         sodipodi:role="line"
         id="tspan3507">3.The use of 2 PLLs in parallel could degraded the Jitter up to +30%.</tspan><tspan
         style="font-size:7.98000002px;font-variant:normal;font-weight:normal;font-stretch:normal;writing-mode:lr-tb;fill:#000000;fill-opacity:1;fill-rule:nonzero;stroke:none;font-family:Arial;-inkscape-font-specification:Arial"
         x="13.933195 18.432341 28.094511 33.415615 37.850861 41.839264 46.274567 50.773712 52.995331 57.430634 61.865875 64.087494 68.075897 72.575043 77.010338 79.666115 84.101349 88.089752 90.30661 94.741913 97.397614 99.167694 103.15597 107.65517 109.87197 111.64199 116.07723 120.51247 122.72939 125.00686 129.44217 133.87747 136.09427 138.31595 140.53275 144.96805 148.95645 151.17325 155.60855 160.04385 162.26541 164.03543 168.53458 170.75613 175.19144 177.8472 182.2825 186.7178 191.15311 195.14151 197.35831 199.12833 203.56351 207.99881"
         y="-452.92981"
         sodipodi:role="line"
         id="tspan3509">4.Based on characterization, not tested in production.</tspan></text>
<text
       transform="scale(1,-1)"
       id="text3511"
       x="134.65323"
       y="-797.26752"><tspan
         style="font-size:9.96000004px;font-variant:normal;font-weight:bold;font-stretch:normal;writing-mode:lr-tb;fill:#000000;fill-opacity:1;fill-rule:nonzero;stroke:none;font-family:Arial;-inkscape-font-specification:Arial Bold"
         x="134.65323 140.0535 145.57339 151.69083 154.49161 160.06119 162.82315 168.39273 173.96231 176.76309 179.52505 187.85355 193.42325 196.22391 202.34134 205.1033 211.77847 217.8959 224.01334 226.7753 232.34489 238.40263 243.97221 247.87859 253.39836 258.97794 262.27664 267.85623 271.7626 274.56339 280.13297 283.43179 286.23245 291.75235 297.32193 300.08389 303.4324 308.9523 315.06973 321.18716 324.48587 327.28665 333.34427 339.4617 345.0314 351.14883"
         y="-797.26752"
         sodipodi:role="line"
         id="tspan3513">Table 33. Main PLL characteristics (continued)</tspan></text>
<text
       transform="scale(1,-1)"
       id="text3515"
       x="28.933195"
       y="-779.92749"><tspan
         style="font-size:9px;font-variant:normal;font-weight:bold;font-stretch:normal;writing-mode:lr-tb;fill:#000000;fill-opacity:1;fill-rule:nonzero;stroke:none;font-family:Arial;-inkscape-font-specification:Arial Bold"
         x="28.933195 34.930813 39.929413 47.925018 53.41861 58.912201 123.41518 129.41287 134.41141 137.90701 142.90567 150.90128 155.89981 158.89139 163.89005 244.34819 250.8228 256.31644 261.81009 267.30362 269.77322 272.74319 275.26321 280.73526 286.25223 329.50626 337.0032 339.4783 369.4213 374.21829 379.25821 413.7012 421.19827 426.1752 450.70926 457.18021 462.6973 465.17227"
         y="-779.92749"
         sodipodi:role="line"
         id="tspan3517">SymbolParameterConditionsMinTypMaxUnit</tspan></text>
<path
       d="m 13.693228,516.16724 0.48,0 0,276.54 -0.48,0 0,-276.54 z"
       style="fill:#000000;fill-opacity:1;fill-rule:nonzero;stroke:none"
       id="path3519"
       inkscape:connector-curvature="0" /><path
       d="m 76.153233,515.68724 0.48,0 0,277.5 -0.48,0 0,-277.5 z"
       style="fill:#000000;fill-opacity:1;fill-rule:nonzero;stroke:none"
       id="path3521"
       inkscape:connector-curvature="0" /><path
       d="m 213.97327,515.68724 0.48,0 0,277.5 -0.48,0 0,-277.5 z"
       style="fill:#000000;fill-opacity:1;fill-rule:nonzero;stroke:none"
       id="path3523"
       inkscape:connector-curvature="0" /><path
       d="m 292.21327,659.68724 0.48,0 0,113.28 -0.48,0 0,-113.28 z"
       style="fill:#000000;fill-opacity:1;fill-rule:nonzero;stroke:none"
       id="path3525"
       inkscape:connector-curvature="0" /><path
       d="m 321.19327,515.68724 0.48,0 0,277.5 -0.48,0 0,-277.5 z"
       style="fill:#000000;fill-opacity:1;fill-rule:nonzero;stroke:none"
       id="path3527"
       inkscape:connector-curvature="0" /><path
       d="m 352.93327,515.68724 0.48,0 0,277.5 -0.48,0 0,-277.5 z"
       style="fill:#000000;fill-opacity:1;fill-rule:nonzero;stroke:none"
       id="path3529"
       inkscape:connector-curvature="0" /><path
       d="m 400.81327,515.68724 0.48,0 0,277.5 -0.48,0 0,-277.5 z"
       style="fill:#000000;fill-opacity:1;fill-rule:nonzero;stroke:none"
       id="path3531"
       inkscape:connector-curvature="0" /><path
       d="m 443.65327,515.68724 0.48,0 0,277.5 -0.48,0 0,-277.5 z"
       style="fill:#000000;fill-opacity:1;fill-rule:nonzero;stroke:none"
       id="path3533"
       inkscape:connector-curvature="0" /><path
       d="m 474.85327,516.16724 0.48,0 0,276.54 -0.48,0 0,-276.54 z"
       style="fill:#000000;fill-opacity:1;fill-rule:nonzero;stroke:none"
       id="path3535"
       inkscape:connector-curvature="0" /><path
       d="m 13.693228,792.70724 461.640042,0 0,0.48 -461.640042,0 0,-0.48 z"
       style="fill:#000000;fill-opacity:1;fill-rule:nonzero;stroke:none"
       id="path3537"
       inkscape:connector-curvature="0" /><path
       d="m 13.693228,770.92724 461.640042,0 0,1.98 -461.640042,0 0,-1.98 z"
       style="fill:#000000;fill-opacity:1;fill-rule:nonzero;stroke:none"
       id="path3539"
       inkscape:connector-curvature="0" /><path
       d="m 292.21327,754.72724 151.92,0 0,0.48 -151.92,0 0,-0.48 z"
       style="fill:#000000;fill-opacity:1;fill-rule:nonzero;stroke:none"
       id="path3541"
       inkscape:connector-curvature="0" /><path
       d="m 76.153233,715.72724 138.360037,0 0,0.48 -138.360037,0 0,-0.48 z"
       style="fill:#000000;fill-opacity:1;fill-rule:nonzero;stroke:none"
       id="path3543"
       inkscape:connector-curvature="0" /><path
       d="m 292.21327,715.72724 151.92,0 0,0.48 -151.92,0 0,-0.48 z"
       style="fill:#000000;fill-opacity:1;fill-rule:nonzero;stroke:none"
       id="path3545"
       inkscape:connector-curvature="0" /><path
       d="m 292.21327,698.68724 151.92,0 0,0.48 -151.92,0 0,-0.48 z"
       style="fill:#000000;fill-opacity:1;fill-rule:nonzero;stroke:none"
       id="path3547"
       inkscape:connector-curvature="0" /><path
       d="m 76.153233,659.68724 367.980037,0 0,0.48 -367.980037,0 0,-0.48 z"
       style="fill:#000000;fill-opacity:1;fill-rule:nonzero;stroke:none"
       id="path3549"
       inkscape:connector-curvature="0" /><path
       d="m 76.153233,631.72724 367.980037,0 0,0.48 -367.980037,0 0,-0.48 z"
       style="fill:#000000;fill-opacity:1;fill-rule:nonzero;stroke:none"
       id="path3551"
       inkscape:connector-curvature="0" /><path
       d="m 76.153233,603.70724 367.980037,0 0,0.48 -367.980037,0 0,-0.48 z"
       style="fill:#000000;fill-opacity:1;fill-rule:nonzero;stroke:none"
       id="path3553"
       inkscape:connector-curvature="0" /><path
       d="m 13.693228,575.68724 461.640042,0 0,0.48 -461.640042,0 0,-0.48 z"
       style="fill:#000000;fill-opacity:1;fill-rule:nonzero;stroke:none"
       id="path3555"
       inkscape:connector-curvature="0" /><path
       d="m 13.693228,545.68724 461.640042,0 0,0.48 -461.640042,0 0,-0.48 z"
       style="fill:#000000;fill-opacity:1;fill-rule:nonzero;stroke:none"
       id="path3557"
       inkscape:connector-curvature="0" /><path
       d="m 13.693228,515.68724 461.640042,0 0,0.48 -461.640042,0 0,-0.48 z"
       style="fill:#000000;fill-opacity:1;fill-rule:nonzero;stroke:none"
       id="path3559"
       inkscape:connector-curvature="0" /></g></svg>