<?xml version="1.0" encoding="UTF-8" standalone="no"?>
<!-- Created with Inkscape (http://www.inkscape.org/) -->

<svg
   xmlns:dc="http://purl.org/dc/elements/1.1/"
   xmlns:cc="http://creativecommons.org/ns#"
   xmlns:rdf="http://www.w3.org/1999/02/22-rdf-syntax-ns#"
   xmlns:svg="http://www.w3.org/2000/svg"
   xmlns="http://www.w3.org/2000/svg"
   xmlns:sodipodi="http://sodipodi.sourceforge.net/DTD/sodipodi-0.dtd"
   xmlns:inkscape="http://www.inkscape.org/namespaces/inkscape"
   id="svg4471"
   version="1.1"
   inkscape:version="0.48.4 r9939"
   width="743.75"
   height="1052.5"
   xml:space="preserve"
   sodipodi:docname="stm32f21xx-jitter-audio-pll.svg"><metadata
     id="metadata4477"><rdf:RDF><cc:Work
         rdf:about=""><dc:format>image/svg+xml</dc:format><dc:type
           rdf:resource="http://purl.org/dc/dcmitype/StillImage" /><dc:title></dc:title></cc:Work></rdf:RDF></metadata><defs
     id="defs4475"><clipPath
       clipPathUnits="userSpaceOnUse"
       id="clipPath4503"><path
         d="m 496.8,104.96 28.38,0 0,-15.12 -28.38,0 0,15.12 z"
         clip-rule="evenodd"
         id="path4505" /></clipPath><clipPath
       clipPathUnits="userSpaceOnUse"
       id="clipPath4511"><path
         d="m 0,841.98 595.2,0 L 595.2,0 0,0 0,841.98 z"
         id="path4513" /></clipPath></defs><sodipodi:namedview
     pagecolor="#ffffff"
     bordercolor="#666666"
     borderopacity="1"
     objecttolerance="10"
     gridtolerance="10"
     guidetolerance="10"
     inkscape:pageopacity="0"
     inkscape:pageshadow="2"
     inkscape:window-width="1918"
     inkscape:window-height="1059"
     id="namedview4473"
     showgrid="true"
     inkscape:zoom="0.89691211"
     inkscape:cx="490.18776"
     inkscape:cy="617.19718"
     inkscape:window-x="0"
     inkscape:window-y="19"
     inkscape:window-maximized="1"
     inkscape:current-layer="g4479"
     inkscape:object-paths="true"
     inkscape:snap-intersection-paths="true"
     inkscape:object-nodes="true"
     inkscape:snap-smooth-nodes="true"
     inkscape:snap-midpoints="false"><inkscape:grid
       type="xygrid"
       id="grid4951"
       empspacing="5"
       visible="true"
       enabled="true"
       snapvisiblegridlinesonly="true"
       units="mm"
       spacingx="1mm"
       spacingy="1mm" /></sodipodi:namedview><g
     id="g4479"
     inkscape:groupmode="layer"
     inkscape:label="stm32f21xx"
     transform="matrix(1.25,0,0,-1.25,0,1052.5)"><text
       transform="scale(1,-1)"
       id="text4481"
       x="14.413228"
       y="-829.24756"><tspan
         style="font-size:9.96000004px;font-variant:normal;font-weight:bold;font-stretch:normal;writing-mode:lr-tb;fill:#000000;fill-opacity:1;fill-rule:nonzero;stroke:none;font-family:Arial;-inkscape-font-specification:Arial Bold"
         x="14.413228 21.091408 23.895149 29.467768 35.04039 38.342129 42.251431 45.055168 50.627792 56.150612 58.95435 61.716259 67.288879 73.349541 78.922157 82.831459 88.354279 93.936859 97.238602 102.82118 106.73048 109.53421 115.10684 118.40857 121.21233 126.73513 409.06824 415.7265 421.78717 430.12866 435.70129 441.22412 447.34451 452.91714 458.43997 464.01257 469.58521"
         y="-829.24756"
         sodipodi:role="line"
         id="tspan4483">Electrical characteristicsSTM32F21xxx</tspan></text>
<path
       d="m 14.173228,822.04724 0.24,0 0,0.48 -0.24,0 0,-0.48 z"
       style="fill:#000000;fill-opacity:1;fill-rule:nonzero;stroke:none"
       id="path4485"
       inkscape:connector-curvature="0" /><path
       d="m 14.413228,822.04724 460.920002,0 0,0.48 -460.920002,0 0,-0.48 z"
       style="fill:#000000;fill-opacity:1;fill-rule:nonzero;stroke:none"
       id="path4487"
       inkscape:connector-curvature="0" /><text
       transform="scale(1,-1)"
       id="text4489"
       x="14.413229"
       y="-485.55008"><tspan
         style="font-size:9px;font-variant:normal;font-weight:normal;font-stretch:normal;writing-mode:lr-tb;fill:#000000;fill-opacity:1;fill-rule:nonzero;stroke:none;font-family:Arial;-inkscape-font-specification:Arial"
         x="14.413229 19.400127 24.387028 26.871929 31.858829 36.899734 206.75224 213.23314 218.22003 222.70294 225.18784 231.66873 236.65564 241.69653 246.68344 251.67033 256.71121 259.17273 265.65363 270.6405 275.12341 277.64792"
         y="-485.55008"
         sodipodi:role="line"
         id="tspan4491">94/175DocID17050 Rev 9</tspan></text>
<path
       d="m 14.173228,481.88976 0.24,0 0,0.48 -0.24,0 0,-0.48 z"
       style="fill:#000000;fill-opacity:1;fill-rule:nonzero;stroke:none"
       id="path4493"
       inkscape:connector-curvature="0" /><path
       d="m 14.413228,481.88976 460.920002,0 0,0.48 -460.920002,0 0,-0.48 z"
       style="fill:#000000;fill-opacity:1;fill-rule:nonzero;stroke:none"
       id="path4495"
       inkscape:connector-curvature="0" /><path
       d="m 443.95323,484.94976 28.38,0 0,15.12 -28.38,0 0,-15.12 z"
       style="fill:#ffffff;fill-opacity:1;fill-rule:nonzero;stroke:none"
       id="path4497"
       inkscape:connector-curvature="0" /><g
       id="g4499"
       transform="translate(-52.846772,395.10977)"><g
         id="g4501"
         clip-path="url(#clipPath4503)"><g
           id="g4507"><g
             id="g4509"
             clip-path="url(#clipPath4511)"><g
               id="g4515"
               transform="translate(524.944,104.967)"><path
                 d="m 0,0 c -20.595,0 -20.595,0 -20.595,0 l 0.033,-0.033 c -1.577,0 -2.923,-0.92 -3.515,-2.266 -4.04,-9.788 -4.04,-9.788 -4.04,-9.788 -0.033,0 -0.033,-0.033 -0.033,-0.066 0,-0.131 0.099,-0.23 0.23,-0.23 9.296,0 9.296,0 9.296,0 0.657,0 0.952,0.657 0.427,1.15 -3.416,3.219 -3.416,3.219 -3.416,3.219 -1.807,1.74 -1.018,5.813 2.693,5.813 18.197,0 18.197,0 18.197,0 0.099,0 0.197,0.066 0.23,0.165 0.723,1.74 0.723,1.74 0.723,1.74 0,0 0,0.033 0,0.066 C 0.23,-0.099 0.131,0 0,0"
                 style="fill:#005189;fill-opacity:1;fill-rule:nonzero;stroke:none"
                 id="path4517"
                 inkscape:connector-curvature="0" /></g><g
               id="g4519"
               transform="translate(522.907,99.973999)"><path
                 d="m 0,0 c -3.482,0 -3.482,0 -3.482,0 -0.263,0 -0.46,-0.164 -0.525,-0.361 -3.942,-9.46 -3.942,-9.46 -3.942,-9.46 0,-0.033 0,-0.066 0,-0.099 0,-0.131 0.099,-0.197 0.197,-0.197 1.314,0 1.314,0 1.314,0 1.577,0 2.956,0.953 3.515,2.3 3.12,7.521 3.12,7.521 3.12,7.521 0,0.033 0.033,0.066 0.033,0.066 C 0.23,-0.099 0.131,0 0,0"
                 style="fill:#005189;fill-opacity:1;fill-rule:nonzero;stroke:none"
                 id="path4521"
                 inkscape:connector-curvature="0" /></g><g
               id="g4523"
               transform="translate(516.04201,99.744003)"><path
                 d="m 0,0 c 0,0.131 -0.099,0.23 -0.23,0.23 -9.92,0 -9.92,0 -9.92,0 -0.525,0 -0.985,-0.657 -0.427,-1.183 3.285,-3.054 3.285,-3.054 3.285,-3.054 0,0 1.314,-1.215 1.051,-2.956 -0.263,-1.544 -1.314,-2.497 -2.069,-2.825 -0.033,-0.033 -0.033,-0.033 -0.033,-0.066 0,-0.033 0.033,-0.033 0.033,-0.033 3.843,0 3.843,0 3.843,0 0.23,0 0.427,0.132 0.525,0.329 3.909,9.492 3.909,9.492 3.909,9.492 C 0,-0.033 0,0 0,0"
                 style="fill:#005189;fill-opacity:1;fill-rule:nonzero;stroke:none"
                 id="path4525"
                 inkscape:connector-curvature="0" /></g></g></g></g></g><text
       transform="scale(1,-1)"
       id="text4527"
       x="16.213228"
       y="-699.94751"><tspan
         style="font-size:9px;font-variant:normal;font-weight:normal;font-stretch:normal;writing-mode:lr-tb;fill:#000000;fill-opacity:1;fill-rule:nonzero;stroke:none;font-family:Arial;-inkscape-font-specification:Arial"
         x="16.213228 20.717728 22.720228 25.226728 27.733229 32.74173"
         y="-699.94751"
         sodipodi:role="line"
         id="tspan4529">Jitter</tspan></text>
<text
       transform="scale(1,-1)"
       id="text4531"
       x="35.71323"
       y="-703.54755"><tspan
         style="font-size:7.19999981px;font-variant:normal;font-weight:normal;font-stretch:normal;writing-mode:lr-tb;fill:#000000;fill-opacity:1;fill-rule:nonzero;stroke:none;font-family:Arial;-inkscape-font-specification:Arial"
         x="35.71323 38.05323 42.070831"
         y="-703.54755"
         sodipodi:role="line"
         id="tspan4533">(3)</tspan></text>
<text
       transform="scale(1,-1)"
       id="text4535"
       x="78.733231"
       y="-714.94751"><tspan
         style="font-size:9px;font-variant:normal;font-weight:normal;font-stretch:normal;writing-mode:lr-tb;fill:#000000;fill-opacity:1;fill-rule:nonzero;stroke:none;font-family:Arial;-inkscape-font-specification:Arial"
         x="78.733231 86.173531 91.210831 95.654137 98.171432 103.17273 106.16702 108.69154 111.19083 116.19215 122.19244 124.65395 129.15123 131.14653 136.14783 140.64513 145.14244 147.60393 149.59923 151.59453 154.09384 156.59314 161.59444"
         y="-714.94751"
         sodipodi:role="line"
         id="tspan4537">Master I2S clock jitter</tspan><tspan
         style="font-size:9px;font-variant:normal;font-weight:normal;font-stretch:normal;writing-mode:lr-tb;fill:#000000;fill-opacity:1;fill-rule:nonzero;stroke:none;font-family:Arial;-inkscape-font-specification:Arial"
         x="218.71024 225.20644 229.70464 234.20284 236.19904 241.20123 243.66003 246.16023 251.16243 253.68423 258.18243 262.68063 267.17883 269.17502 274.17722 276.69904 281.70123 284.20142"
         y="-758.44452"
         sodipodi:role="line"
         id="tspan4539">Cycle to cycle at </tspan><tspan
         style="font-size:9px;font-variant:normal;font-weight:normal;font-stretch:normal;writing-mode:lr-tb;fill:#000000;fill-opacity:1;fill-rule:nonzero;stroke:none;font-family:Arial;-inkscape-font-specification:Arial"
         x="218.71024 223.69443 228.73264 231.21483 236.25304 241.23723 248.73244 256.20959 262.68784 267.16803 269.62952 274.66772 279.64291"
         y="-747.40155"
         sodipodi:role="line"
         id="tspan4541">12.288MHz on </tspan><tspan
         style="font-size:9px;font-variant:normal;font-weight:normal;font-stretch:normal;writing-mode:lr-tb;fill:#000000;fill-opacity:1;fill-rule:nonzero;stroke:none;font-family:Arial;-inkscape-font-specification:Arial"
         x="218.71024 223.69533 228.73444 234.71854 241.19763 245.67873 248.14023 253.17934 258.15543 261.13351 263.11261 268.09772 273.13681 275.61993"
         y="-736.42151"
         sodipodi:role="line"
         id="tspan4543">48KHz period, </tspan><tspan
         style="font-size:9px;font-variant:normal;font-weight:normal;font-stretch:normal;writing-mode:lr-tb;fill:#000000;fill-opacity:1;fill-rule:nonzero;stroke:none;font-family:Arial;-inkscape-font-specification:Arial"
         x="218.71024 225.19203 230.43182 235.41963 240.40742 245.44923 247.93503 250.45683 256.93863 262.17844"
         y="-725.44153"
         sodipodi:role="line"
         id="tspan4545">N=432, R=5</tspan><tspan
         style="font-size:9px;font-variant:normal;font-weight:normal;font-stretch:normal;writing-mode:lr-tb;fill:#000000;fill-opacity:1;fill-rule:nonzero;stroke:none;font-family:Arial;-inkscape-font-specification:Arial"
         x="307.09021 313.57114 321.05103 349.19492 382.4328 387.41971 424.61761"
         y="-761.44153"
         sodipodi:role="line"
         id="tspan4547">RMS-90-</tspan><tspan
         style="font-size:9px;font-variant:normal;font-weight:normal;font-stretch:normal;writing-mode:lr-tb;fill:#000000;fill-opacity:1;fill-rule:nonzero;stroke:none;font-family:Arial;-inkscape-font-specification:Arial"
         x="306.12723 307.74902 312.73773 317.72641 322.76013 327.24481"
         y="-744.40454"
         sodipodi:role="line"
         id="tspan4549"> peak </tspan><tspan
         style="font-size:9px;font-variant:normal;font-weight:normal;font-stretch:normal;writing-mode:lr-tb;fill:#000000;fill-opacity:1;fill-rule:nonzero;stroke:none;font-family:Arial;-inkscape-font-specification:Arial"
         x="313.32721 315.82654 320.82782"
         y="-733.42456"
         sodipodi:role="line"
         id="tspan4551">to </tspan><tspan
         style="font-size:9px;font-variant:normal;font-weight:normal;font-stretch:normal;writing-mode:lr-tb;fill:#000000;fill-opacity:1;fill-rule:nonzero;stroke:none;font-family:Arial;-inkscape-font-specification:Arial"
         x="307.38724 312.36603 317.40784 322.38663"
         y="-722.44452"
         sodipodi:role="line"
         id="tspan4553">peak</tspan><tspan
         style="font-size:9px;font-variant:normal;font-weight:normal;font-stretch:normal;writing-mode:lr-tb;fill:#000000;fill-opacity:1;fill-rule:nonzero;stroke:none;font-family:Arial;-inkscape-font-specification:Arial"
         x="349.21021 376.27051"
         y="-733.42456"
         sodipodi:role="line"
         id="tspan4555">- </tspan></text>
<text
       transform="scale(1,-1)"
       id="text4557"
       x="378.73022"
       y="-733.42456"><tspan
         style="font-size:9px;font-variant:normal;font-weight:normal;writing-mode:lr-tb;fill:#000000;fill-opacity:1;fill-rule:nonzero;stroke:none;font-family:Symbol;-inkscape-font-specification:Symbol"
         x="378.73022"
         y="-733.42456"
         id="tspan4559">±</tspan></text>
<text
       transform="scale(1,-1)"
       id="text4561"
       x="383.70721"
       y="-733.42456"><tspan
         style="font-size:9px;font-variant:normal;font-weight:normal;font-stretch:normal;writing-mode:lr-tb;fill:#000000;fill-opacity:1;fill-rule:nonzero;stroke:none;font-family:Arial;-inkscape-font-specification:Arial"
         x="383.70721 388.74542 393.72061 424.61581 456.83401 461.69223"
         y="-733.42456"
         sodipodi:role="line"
         id="tspan4563">280-ps</tspan><tspan
         style="font-size:9px;font-variant:normal;font-weight:normal;font-stretch:normal;writing-mode:lr-tb;fill:#000000;fill-opacity:1;fill-rule:nonzero;stroke:none;font-family:Arial;-inkscape-font-specification:Arial"
         x="218.71024 224.53323 229.03323 234.07323 237.01624 242.05623 247.04224 252.02823 254.55003 257.03403 260.01303 265.05301 270.03903 275.02502 280.06503 285.05103 289.53302 294.01501 296.47382 301.51382 303.97083"
         y="-705.40753"
         sodipodi:role="line"
         id="tspan4565">Average frequency of </tspan><tspan
         style="font-size:9px;font-variant:normal;font-weight:normal;font-stretch:normal;writing-mode:lr-tb;fill:#000000;fill-opacity:1;fill-rule:nonzero;stroke:none;font-family:Arial;-inkscape-font-specification:Arial"
         x="218.71024 223.69443 228.73264 231.21483 236.25304 241.23723 248.73244 256.20963 262.68781 267.16803"
         y="-694.42755"
         sodipodi:role="line"
         id="tspan4567">12.288MHz </tspan><tspan
         style="font-size:9px;font-variant:normal;font-weight:normal;font-stretch:normal;writing-mode:lr-tb;fill:#000000;fill-opacity:1;fill-rule:nonzero;stroke:none;font-family:Arial;-inkscape-font-specification:Arial"
         x="218.71024 225.19203 230.43182 235.41963 240.40742 245.44923 247.93503 250.45683 256.93863 262.17841"
         y="-681.40454"
         sodipodi:role="line"
         id="tspan4569">N=432, R=5</tspan><tspan
         style="font-size:9px;font-variant:normal;font-weight:normal;font-stretch:normal;writing-mode:lr-tb;fill:#000000;fill-opacity:1;fill-rule:nonzero;stroke:none;font-family:Arial;-inkscape-font-specification:Arial"
         x="218.71024 223.69083 228.72543 231.18694 236.22153 241.20213 246.18272 251.21733 253.67883 258.15543 263.13602 270.60962 275.59021 277.62781 282.60843"
         y="-668.44452"
         sodipodi:role="line"
         id="tspan4571">on 1000 samples</tspan><tspan
         style="font-size:9px;font-variant:normal;font-weight:normal;font-stretch:normal;writing-mode:lr-tb;fill:#000000;fill-opacity:1;fill-rule:nonzero;stroke:none;font-family:Arial;-inkscape-font-specification:Arial"
         x="349.21021 382.44992 387.42963 424.62933 456.85202 461.70572"
         y="-686.92151"
         sodipodi:role="line"
         id="tspan4573">-90-ps</tspan><tspan
         style="font-size:9px;font-variant:normal;font-weight:normal;font-stretch:normal;writing-mode:lr-tb;fill:#000000;fill-opacity:1;fill-rule:nonzero;stroke:none;font-family:Arial;-inkscape-font-specification:Arial"
         x="78.733238 87.220238 93.214226 95.673027 98.166039 103.16103 109.15505 111.67684 116.16785 118.15682 123.15184 127.64285 132.13383 134.65562 136.64462 138.63364 141.12663 143.61963 148.61462"
         y="-644.91852"
         sodipodi:role="line"
         id="tspan4575">WS I2S clock jitter</tspan><tspan
         style="font-size:9px;font-variant:normal;font-weight:normal;font-stretch:normal;writing-mode:lr-tb;fill:#000000;fill-opacity:1;fill-rule:nonzero;stroke:none;font-family:Arial;-inkscape-font-specification:Arial"
         x="218.71024 225.20824 229.70824 234.20824 236.20622 241.21024 243.66904 246.17104 251.17503 253.69682 258.19681 262.69681 267.19681 269.19482 274.19882 276.72061 281.72461 284.22662 286.68542 291.68942 299.18643 305.1264 311.66043"
         y="-651.39856"
         sodipodi:role="line"
         id="tspan4577">Cycle to cycle at 48KHz</tspan><tspan
         style="font-size:9px;font-variant:normal;font-weight:normal;font-stretch:normal;writing-mode:lr-tb;fill:#000000;fill-opacity:1;fill-rule:nonzero;stroke:none;font-family:Arial;-inkscape-font-specification:Arial"
         x="218.71024 223.69083 228.72543 231.18694 236.22153 241.20213 246.18272 251.21733 253.67883 258.15543 263.13602 270.60962 275.59021 277.62781 282.60843"
         y="-638.43854"
         sodipodi:role="line"
         id="tspan4579">on 1000 samples</tspan><tspan
         style="font-size:9px;font-variant:normal;font-weight:normal;font-stretch:normal;writing-mode:lr-tb;fill:#000000;fill-opacity:1;fill-rule:nonzero;stroke:none;font-family:Arial;-inkscape-font-specification:Arial"
         x="349.21021 379.9902 385.03021 390.00723 424.62122 456.84122 461.70123"
         y="-644.91852"
         sodipodi:role="line"
         id="tspan4581">-400-ps</tspan><tspan
         style="font-size:9px;font-variant:normal;font-weight:normal;font-stretch:normal;writing-mode:lr-tb;fill:#000000;fill-opacity:1;fill-rule:nonzero;stroke:none;font-family:Arial;-inkscape-font-specification:Arial"
         x="16.210218"
         y="-614.92151"
         id="tspan4583">I</tspan></text>
<text
       transform="scale(1,-1)"
       id="text4585"
       x="18.733229"
       y="-612.64752"><tspan
         style="font-size:7.19999981px;font-variant:normal;font-weight:normal;font-stretch:normal;writing-mode:lr-tb;fill:#000000;fill-opacity:1;fill-rule:nonzero;stroke:none;font-family:Arial;-inkscape-font-specification:Arial"
         x="18.733229 23.894909 29.114189 31.518269 36.25515 40.264832 44.274509 46.282589 50.292271 55.029152"
         y="-612.64752"
         sodipodi:role="line"
         id="tspan4587">DD(PLLI2S)</tspan><tspan
         style="font-size:7.19999981px;font-variant:normal;font-weight:normal;font-stretch:normal;writing-mode:lr-tb;fill:#000000;fill-opacity:1;fill-rule:nonzero;stroke:none;font-family:Arial;-inkscape-font-specification:Arial"
         x="57.490829 59.897789 63.910351"
         y="-618.52991"
         sodipodi:role="line"
         id="tspan4589">(4)</tspan></text>
<text
       transform="scale(1,-1)"
       id="text4591"
       x="78.733231"
       y="-620.44751"><tspan
         style="font-size:9px;font-variant:normal;font-weight:normal;font-stretch:normal;writing-mode:lr-tb;fill:#000000;fill-opacity:1;fill-rule:nonzero;stroke:none;font-family:Arial;-inkscape-font-specification:Arial"
         x="78.733231 84.717331 89.756432 94.741531 97.224632 102.20973 108.19383 110.71563 115.70072 120.68584 127.16493 132.20403 135.14613 137.66794 142.14903 147.13414 152.17323 156.60933 161.64844 169.09053 174.12964 176.59474 178.63684 183.62193 188.60704 191.12883 196.11394 201.09903"
         y="-620.44751"
         sodipodi:role="line"
         id="tspan4593">PLLI2S power consumption on </tspan><tspan
         style="font-size:9px;font-variant:normal;font-weight:normal;font-stretch:normal;writing-mode:lr-tb;fill:#000000;fill-opacity:1;fill-rule:nonzero;stroke:none;font-family:Arial;-inkscape-font-specification:Arial"
         x="78.733231"
         y="-609.40454"
         id="tspan4595">V</tspan></text>
<text
       transform="scale(1,-1)"
       id="text4597"
       x="84.733231"
       y="-607.18756"><tspan
         style="font-size:7.19999981px;font-variant:normal;font-weight:normal;font-stretch:normal;writing-mode:lr-tb;fill:#000000;fill-opacity:1;fill-rule:nonzero;stroke:none;font-family:Arial;-inkscape-font-specification:Arial"
         x="84.733231 89.951797"
         y="-607.18756"
         sodipodi:role="line"
         id="tspan4599">DD</tspan></text>
<text
       transform="scale(1,-1)"
       id="text4601"
       x="218.71323"
       y="-621.40753"><tspan
         style="font-size:9px;font-variant:normal;font-weight:normal;font-stretch:normal;writing-mode:lr-tb;fill:#000000;fill-opacity:1;fill-rule:nonzero;stroke:none;font-family:Arial;-inkscape-font-specification:Arial"
         x="218.71323 224.72073 231.22324 238.22974 240.69124 243.19774 246.19923 251.20773 256.21622 258.6777 263.9382 266.39972 271.4082 276.41672 283.91821 291.41971 297.92221"
         y="-621.40753"
         sodipodi:role="line"
         id="tspan4603">VCO freq = 192MHz</tspan><tspan
         style="font-size:9px;font-variant:normal;font-weight:normal;font-stretch:normal;writing-mode:lr-tb;fill:#000000;fill-opacity:1;fill-rule:nonzero;stroke:none;font-family:Arial;-inkscape-font-specification:Arial"
         x="218.71323 224.72073 231.22324 238.22974 240.69124 243.19774 246.19923 251.20773 256.21622 258.6777 263.9382 266.39972 271.4082 276.41672 283.91821 291.41971 297.92221"
         y="-608.44751"
         sodipodi:role="line"
         id="tspan4605">VCO freq = 432MHz</tspan><tspan
         style="font-size:9px;font-variant:normal;font-weight:normal;font-stretch:normal;writing-mode:lr-tb;fill:#000000;fill-opacity:1;fill-rule:nonzero;stroke:none;font-family:Arial;-inkscape-font-specification:Arial"
         x="341.95023 346.98843 349.45261 354.49081"
         y="-621.40753"
         sodipodi:role="line"
         id="tspan4607">0.15</tspan><tspan
         style="font-size:9px;font-variant:normal;font-weight:normal;font-stretch:normal;writing-mode:lr-tb;fill:#000000;fill-opacity:1;fill-rule:nonzero;stroke:none;font-family:Arial;-inkscape-font-specification:Arial"
         x="341.95023 346.98843 349.45261 354.49081"
         y="-608.44751"
         sodipodi:role="line"
         id="tspan4609">0.45</tspan><tspan
         style="font-size:9px;font-variant:normal;font-weight:normal;font-stretch:normal;writing-mode:lr-tb;fill:#000000;fill-opacity:1;fill-rule:nonzero;stroke:none;font-family:Arial;-inkscape-font-specification:Arial"
         x="385.98721"
         y="-614.92755"
         id="tspan4611">-</tspan><tspan
         style="font-size:9px;font-variant:normal;font-weight:normal;font-stretch:normal;writing-mode:lr-tb;fill:#000000;fill-opacity:1;fill-rule:nonzero;stroke:none;font-family:Arial;-inkscape-font-specification:Arial"
         x="417.37021 422.40842 424.87262 429.91083"
         y="-621.40753"
         sodipodi:role="line"
         id="tspan4613">0.40</tspan><tspan
         style="font-size:9px;font-variant:normal;font-weight:normal;font-stretch:normal;writing-mode:lr-tb;fill:#000000;fill-opacity:1;fill-rule:nonzero;stroke:none;font-family:Arial;-inkscape-font-specification:Arial"
         x="417.37021 422.40842 424.87262 429.91083"
         y="-608.44751"
         sodipodi:role="line"
         id="tspan4615">0.75</tspan><tspan
         style="font-size:9px;font-variant:normal;font-weight:normal;font-stretch:normal;writing-mode:lr-tb;fill:#000000;fill-opacity:1;fill-rule:nonzero;stroke:none;font-family:Arial;-inkscape-font-specification:Arial"
         x="454.81021 462.25052"
         y="-614.92755"
         sodipodi:role="line"
         id="tspan4617">mA</tspan><tspan
         style="font-size:9px;font-variant:normal;font-weight:normal;font-stretch:normal;writing-mode:lr-tb;fill:#000000;fill-opacity:1;fill-rule:nonzero;stroke:none;font-family:Arial;-inkscape-font-specification:Arial"
         x="16.213228"
         y="-584.93054"
         id="tspan4619">I</tspan></text>
<text
       transform="scale(1,-1)"
       id="text4621"
       x="18.733229"
       y="-582.64752"><tspan
         style="font-size:7.19999981px;font-variant:normal;font-weight:normal;font-stretch:normal;writing-mode:lr-tb;fill:#000000;fill-opacity:1;fill-rule:nonzero;stroke:none;font-family:Arial;-inkscape-font-specification:Arial"
         x="18.733229 23.889149 29.109869 33.912991 36.253708 41.056831 45.060749 49.064671 51.06699 55.02771 59.83083"
         y="-582.64752"
         sodipodi:role="line"
         id="tspan4623">DDA(PLLI2S)</tspan><tspan
         style="font-size:7.19999981px;font-variant:normal;font-weight:normal;font-stretch:normal;writing-mode:lr-tb;fill:#000000;fill-opacity:1;fill-rule:nonzero;stroke:none;font-family:Arial;-inkscape-font-specification:Arial"
         x="62.293232 64.700195 68.712753"
         y="-588.52991"
         sodipodi:role="line"
         id="tspan4625">(4)</tspan></text>
<text
       transform="scale(1,-1)"
       id="text4627"
       x="78.733231"
       y="-590.44751"><tspan
         style="font-size:9px;font-variant:normal;font-weight:normal;font-stretch:normal;writing-mode:lr-tb;fill:#000000;fill-opacity:1;fill-rule:nonzero;stroke:none;font-family:Arial;-inkscape-font-specification:Arial"
         x="78.733231 84.717331 89.756432 94.741531 97.224632 102.20973 108.19383 110.71563 115.70072 120.68584 127.16493 132.20403 135.14613 137.66794 142.14903 147.13414 152.17323 156.60933 161.64844 169.09053 174.12964 176.59474 178.63684 183.62193 188.60704 191.12883 196.11394 201.09903"
         y="-590.44751"
         sodipodi:role="line"
         id="tspan4629">PLLI2S power consumption on </tspan><tspan
         style="font-size:9px;font-variant:normal;font-weight:normal;font-stretch:normal;writing-mode:lr-tb;fill:#000000;fill-opacity:1;fill-rule:nonzero;stroke:none;font-family:Arial;-inkscape-font-specification:Arial"
         x="78.733231"
         y="-579.40454"
         id="tspan4631">V</tspan></text>
<text
       transform="scale(1,-1)"
       id="text4633"
       x="84.733231"
       y="-577.18756"><tspan
         style="font-size:7.19999981px;font-variant:normal;font-weight:normal;font-stretch:normal;writing-mode:lr-tb;fill:#000000;fill-opacity:1;fill-rule:nonzero;stroke:none;font-family:Arial;-inkscape-font-specification:Arial"
         x="84.733231 89.951797 95.112755"
         y="-577.18756"
         sodipodi:role="line"
         id="tspan4635">DDA</tspan></text>
<text
       transform="scale(1,-1)"
       id="text4637"
       x="218.71323"
       y="-591.40753"><tspan
         style="font-size:9px;font-variant:normal;font-weight:normal;font-stretch:normal;writing-mode:lr-tb;fill:#000000;fill-opacity:1;fill-rule:nonzero;stroke:none;font-family:Arial;-inkscape-font-specification:Arial"
         x="218.71323 224.72073 231.22324 238.22974 240.69124 243.19774 246.19923 251.20773 256.21622 258.6777 263.9382 266.39972 271.4082 276.41672 283.91821 291.41971 297.92221"
         y="-591.40753"
         sodipodi:role="line"
         id="tspan4639">VCO freq = 192MHz</tspan><tspan
         style="font-size:9px;font-variant:normal;font-weight:normal;font-stretch:normal;writing-mode:lr-tb;fill:#000000;fill-opacity:1;fill-rule:nonzero;stroke:none;font-family:Arial;-inkscape-font-specification:Arial"
         x="218.71323 224.72073 231.22324 238.22974 240.69124 243.19774 246.19923 251.20773 256.21622 258.6777 263.9382 266.39972 271.4082 276.41672 283.91821 291.41971 297.92221"
         y="-578.38452"
         sodipodi:role="line"
         id="tspan4641">VCO freq = 432MHz</tspan><tspan
         style="font-size:9px;font-variant:normal;font-weight:normal;font-stretch:normal;writing-mode:lr-tb;fill:#000000;fill-opacity:1;fill-rule:nonzero;stroke:none;font-family:Arial;-inkscape-font-specification:Arial"
         x="334.8132 339.80283 342.29041 347.28003"
         y="-591.40753"
         sodipodi:role="line"
         id="tspan4643">0.30</tspan><tspan
         style="font-size:9px;font-variant:normal;font-weight:normal;font-stretch:normal;writing-mode:lr-tb;fill:#000000;fill-opacity:1;fill-rule:nonzero;stroke:none;font-family:Arial;-inkscape-font-specification:Arial"
         x="334.8132 339.80283 342.29041 347.28003"
         y="-578.38452"
         sodipodi:role="line"
         id="tspan4645">0.55</tspan><tspan
         style="font-size:9px;font-variant:normal;font-weight:normal;font-stretch:normal;writing-mode:lr-tb;fill:#000000;fill-opacity:1;fill-rule:nonzero;stroke:none;font-family:Arial;-inkscape-font-specification:Arial"
         x="385.99622"
         y="-584.92755"
         id="tspan4647">-</tspan><tspan
         style="font-size:9px;font-variant:normal;font-weight:normal;font-stretch:normal;writing-mode:lr-tb;fill:#000000;fill-opacity:1;fill-rule:nonzero;stroke:none;font-family:Arial;-inkscape-font-specification:Arial"
         x="417.37921 422.41742 424.88162 429.91983"
         y="-591.40753"
         sodipodi:role="line"
         id="tspan4649">0.40</tspan><tspan
         style="font-size:9px;font-variant:normal;font-weight:normal;font-stretch:normal;writing-mode:lr-tb;fill:#000000;fill-opacity:1;fill-rule:nonzero;stroke:none;font-family:Arial;-inkscape-font-specification:Arial"
         x="417.37921 422.41742 424.88162 429.91983"
         y="-578.38452"
         sodipodi:role="line"
         id="tspan4651">0.85</tspan><tspan
         style="font-size:9px;font-variant:normal;font-weight:normal;font-stretch:normal;writing-mode:lr-tb;fill:#000000;fill-opacity:1;fill-rule:nonzero;stroke:none;font-family:Arial;-inkscape-font-specification:Arial"
         x="454.81921 462.25952"
         y="-584.92755"
         sodipodi:role="line"
         id="tspan4653">mA</tspan><tspan
         style="font-size:9px;font-variant:normal;font-weight:normal;font-stretch:normal;writing-mode:lr-tb;fill:#000000;fill-opacity:1;fill-rule:nonzero;stroke:none;font-family:Arial;-inkscape-font-specification:Arial"
         x="13.216234 18.205828 27.443422 31.947023 36.927631 41.413227 46.447834 48.906635 53.392231 58.381824 61.364429 66.39904 68.857841 73.892433 76.353035 78.87484 83.864433 88.350029 90.333641 95.368233 100.35783 102.81664 105.30423 110.29385 115.32842 117.78725 122.82185 127.81143 132.80103 135.78363 140.77322 145.80783 148.79044 150.77403 155.76363 158.25124 163.24083 165.76263 170.75223 172.73582 177.22144 179.20503 183.69063 185.67422 190.70883 195.68944 198.21123 200.69884 205.73343 210.21904 212.70663 217.69623 220.67883 223.20064 230.68323 233.14203 235.62964 240.61923 243.14104 248.13063 253.16524 257.65082 262.68542 265.14423 267.63181 272.62143 277.65601 280.11481 284.6004 289.59003 294.6246 299.1282 301.11182 303.59943 305.58301 310.5726 315.56223 318.08401 324.0726 329.06223 334.05182 336.57361 338.55722 343.59183 348.58142 353.57101 356.05862 358.58041 363.06601 365.10361 370.09323 374.57883 379.06442 381.52322 386.00882 391.04343 393.02701 398.01663 403.00623 407.49182"
         y="-560.74451"
         sodipodi:role="line"
         id="tspan4655">1.Take care of using the appropriate division factor M to have the specified PLL input clock values.</tspan><tspan
         style="font-size:9px;font-variant:normal;font-weight:normal;font-stretch:normal;writing-mode:lr-tb;fill:#000000;fill-opacity:1;fill-rule:nonzero;stroke:none;font-family:Arial;-inkscape-font-specification:Arial"
         x="13.216234 18.207628 27.447023 34.436436 39.42783 44.419224 47.403629 52.440037 57.422428 59.911823 64.948235 69.939629 74.931038 77.452827 82.444237 86.931633 89.453438 94.444832 99.436234 103.92363 105.96304 110.95443 115.94585 118.43523 120.89404 125.93044 130.91283 133.40224 135.86102 138.35043 143.34183 147.82922 150.31863 155.31003 160.30144 162.82323 164.80864 169.80003 172.32184 177.31323 180.29764 185.33403 190.32544 195.31683 199.80423 202.29364 204.27904 209.27043 214.26184"
         y="-546.04755"
         sodipodi:role="line"
         id="tspan4657">2.Guaranteed by design, not tested in production.</tspan></text>
<text
       transform="scale(1,-1)"
       id="text4659"
       x="13.213228"
       y="-532.0675"><tspan
         style="font-size:7.98000002px;font-variant:normal;font-weight:normal;font-stretch:normal;writing-mode:lr-tb;fill:#000000;fill-opacity:1;fill-rule:nonzero;stroke:none;font-family:Arial;-inkscape-font-specification:Arial"
         x="13.213228 17.650906 27.435184 32.176105 36.613781 38.386139 42.823818 47.261497 49.483128 53.920807 55.693165 59.683964 64.185486 68.623161 70.844795 76.607147 78.379509 80.598747 85.036423 87.258057 93.906197 98.343872 100.11623 104.61775 106.83939 112.12293 116.62447 121.06213 123.28376 125.9419 130.37958 134.81726 139.25493 141.0273 145.46497 149.90265"
         y="-532.0675"
         sodipodi:role="line"
         id="tspan4661">3.Value given with main PLL running.</tspan><tspan
         style="font-size:7.98000002px;font-variant:normal;font-weight:normal;font-stretch:normal;writing-mode:lr-tb;fill:#000000;fill-opacity:1;fill-rule:nonzero;stroke:none;font-family:Arial;-inkscape-font-specification:Arial"
         x="13.213228 17.654099 27.433588 32.760239 37.201111 41.195099 45.635971 50.076839 52.298473 56.739342 61.180214 63.401844 67.395836 71.836708 76.277573 78.978806 83.419678 87.413666 89.636101 94.076965 96.778198 98.513847 102.50784 106.9487 109.17113 110.94669 115.38755 119.82842 122.05085 124.27251 128.71336 133.15422 135.37666 137.59828 139.82072 144.26158 148.25557 150.478 154.91887 159.35974 161.58138 163.35693 167.79779 170.01942 174.4603 177.16153 181.6024 186.04327 190.48413 194.47813 196.75642 198.49207 202.93294 207.37381"
         y="-518.38983"
         sodipodi:role="line"
         id="tspan4663">4.Based on characterization, not tested in production.</tspan></text>
<text
       transform="scale(1,-1)"
       id="text4665"
       x="111.25323"
       y="-797.74756"><tspan
         style="font-size:9.96000004px;font-variant:normal;font-weight:bold;font-stretch:normal;writing-mode:lr-tb;fill:#000000;fill-opacity:1;fill-rule:nonzero;stroke:none;font-family:Arial;-inkscape-font-specification:Arial Bold"
         x="111.25323 116.5918 122.1694 128.28484 131.08359 136.65123 139.41315 144.98077 150.49863 153.29738 156.11905 162.79225 168.90768 174.97333 177.79201 183.30984 189.97308 192.79475 196.09152 201.66911 207.78456 213.85019 216.64896 222.76439 225.52631 232.19951 238.31494 244.43039 247.72714 250.48906 256.05667 262.17212 267.68994 271.58432 277.15195 282.6698 286.01636 291.53418 295.43851 298.23727 303.75513 307.11163 309.9104 315.47803 320.99588 323.75778 327.10434 332.67197 338.73761 344.86301 348.20959 351.00833 357.12378 363.18942 368.75705 374.8725"
         y="-797.74756"
         sodipodi:role="line"
         id="tspan4667">Table 34. PLLI2S (audio PLL) characteristics (continued)</tspan></text>
<text
       transform="scale(1,-1)"
       id="text4669"
       x="28.273228"
       y="-780.40753"><tspan
         style="font-size:9px;font-variant:normal;font-weight:bold;font-stretch:normal;writing-mode:lr-tb;fill:#000000;fill-opacity:1;fill-rule:nonzero;stroke:none;font-family:Arial;-inkscape-font-specification:Arial Bold"
         x="28.273228 34.261829 39.251431 47.29203 52.74963 58.23423 123.70023 129.68884 134.72343 138.21004 143.19963 151.18623 156.22084 159.20345 164.19304 250.29424 256.76883 262.25342 267.73801 273.22263 275.71021 278.69281 281.18042 286.66504 292.14963 342.91324 350.41382 352.90143 379.84201 384.64261 389.62323 417.40082 424.83841 429.87302 452.85364 459.39124 464.84882 467.33643"
         y="-780.40753"
         sodipodi:role="line"
         id="tspan4671">SymbolParameterConditionsMinTypMaxUnit</tspan></text>
<path
       d="m 12.973228,572.68724 0.48,0 0,220.5 -0.48,0 0,-220.5 z"
       style="fill:#000000;fill-opacity:1;fill-rule:nonzero;stroke:none"
       id="path4673"
       inkscape:connector-curvature="0" /><path
       d="m 75.493228,572.14724 0.48,0 0,221.52 -0.48,0 0,-221.52 z"
       style="fill:#000000;fill-opacity:1;fill-rule:nonzero;stroke:none"
       id="path4675"
       inkscape:connector-curvature="0" /><path
       d="m 215.47323,572.14724 0.48,0 0,221.52 -0.48,0 0,-221.52 z"
       style="fill:#000000;fill-opacity:1;fill-rule:nonzero;stroke:none"
       id="path4677"
       inkscape:connector-curvature="0" /><path
       d="m 302.17323,716.14724 0.48,0 0,57.3 -0.48,0 0,-57.3 z"
       style="fill:#000000;fill-opacity:1;fill-rule:nonzero;stroke:none"
       id="path4679"
       inkscape:connector-curvature="0" /><path
       d="m 331.57323,572.14724 0.48,0 0,221.52 -0.48,0 0,-221.52 z"
       style="fill:#000000;fill-opacity:1;fill-rule:nonzero;stroke:none"
       id="path4681"
       inkscape:connector-curvature="0" /><path
       d="m 369.31323,572.14724 0.48,0 0,221.52 -0.48,0 0,-221.52 z"
       style="fill:#000000;fill-opacity:1;fill-rule:nonzero;stroke:none"
       id="path4683"
       inkscape:connector-curvature="0" /><path
       d="m 405.13323,572.14724 0.48,0 0,221.52 -0.48,0 0,-221.52 z"
       style="fill:#000000;fill-opacity:1;fill-rule:nonzero;stroke:none"
       id="path4685"
       inkscape:connector-curvature="0" /><path
       d="m 446.59323,572.14724 0.48,0 0,221.52 -0.48,0 0,-221.52 z"
       style="fill:#000000;fill-opacity:1;fill-rule:nonzero;stroke:none"
       id="path4687"
       inkscape:connector-curvature="0" /><path
       d="m 476.05323,572.68724 0.48,0 0,220.5 -0.48,0 0,-220.5 z"
       style="fill:#000000;fill-opacity:1;fill-rule:nonzero;stroke:none"
       id="path4689"
       inkscape:connector-curvature="0" /><path
       d="m 12.973228,793.18724 463.560002,0 0,0.48 -463.560002,0 0,-0.48 z"
       style="fill:#000000;fill-opacity:1;fill-rule:nonzero;stroke:none"
       id="path4691"
       inkscape:connector-curvature="0" /><path
       d="m 12.973228,771.40724 463.560002,0 0,1.98 -463.560002,0 0,-1.98 z"
       style="fill:#000000;fill-opacity:1;fill-rule:nonzero;stroke:none"
       id="path4693"
       inkscape:connector-curvature="0" /><path
       d="m 302.17323,755.20724 174.36,0 0,0.48 -174.36,0 0,-0.48 z"
       style="fill:#000000;fill-opacity:1;fill-rule:nonzero;stroke:none"
       id="path4695"
       inkscape:connector-curvature="0" /><path
       d="m 215.41323,716.20724 261.12,0 0,0.48 -261.12,0 0,-0.48 z"
       style="fill:#000000;fill-opacity:1;fill-rule:nonzero;stroke:none"
       id="path4697"
       inkscape:connector-curvature="0" /><path
       d="m 75.493228,662.20724 401.040002,0 0,0.48 -401.040002,0 0,-0.48 z"
       style="fill:#000000;fill-opacity:1;fill-rule:nonzero;stroke:none"
       id="path4699"
       inkscape:connector-curvature="0" /><path
       d="m 12.973228,632.20724 463.560002,0 0,0.48 -463.560002,0 0,-0.48 z"
       style="fill:#000000;fill-opacity:1;fill-rule:nonzero;stroke:none"
       id="path4701"
       inkscape:connector-curvature="0" /><path
       d="m 12.973228,602.20724 463.560002,0 0,0.48 -463.560002,0 0,-0.48 z"
       style="fill:#000000;fill-opacity:1;fill-rule:nonzero;stroke:none"
       id="path4703"
       inkscape:connector-curvature="0" /><path
       d="m 12.973228,572.14724 463.560002,0 0,0.48 -463.560002,0 0,-0.48 z"
       style="fill:#000000;fill-opacity:1;fill-rule:nonzero;stroke:none"
       id="path4705"
       inkscape:connector-curvature="0" /></g></svg>